G04*
G04 #@! TF.GenerationSoftware,Altium Limited,Altium Designer,21.2.1 (34)*
G04*
G04 Layer_Color=32768*
%FSLAX24Y24*%
%MOIN*%
G70*
G04*
G04 #@! TF.SameCoordinates,093661B1-31BE-42CD-8BD9-57EC7F8E6B73*
G04*
G04*
G04 #@! TF.FilePolarity,Positive*
G04*
G01*
G75*
%ADD13C,0.0039*%
%ADD103C,0.0047*%
%ADD104R,0.1051X0.0091*%
D13*
X37880Y44583D02*
Y46252D01*
X38931D01*
Y44583D02*
Y46252D01*
X37880Y44583D02*
X38931D01*
X33566Y46342D02*
X33764Y46315D01*
X33567Y44354D02*
Y46343D01*
Y46598D02*
X33764Y46629D01*
Y46315D02*
Y46629D01*
X30811Y44787D02*
Y47110D01*
Y44354D02*
Y44610D01*
Y47110D02*
X33567D01*
Y46598D02*
Y47110D01*
X30811Y44354D02*
X33567D01*
X30614Y44591D02*
Y44807D01*
X30614Y44591D02*
X30811Y44610D01*
X30614Y44807D02*
X30811Y44787D01*
X9658Y46370D02*
X9856Y46343D01*
X9659Y44382D02*
Y46370D01*
Y46626D02*
X9856Y46657D01*
Y46343D02*
Y46657D01*
X5525Y47138D02*
X9659D01*
Y46626D02*
Y47138D01*
X5525Y44382D02*
X9659D01*
X5328Y44834D02*
X5525Y44815D01*
X5328Y44618D02*
X5525Y44638D01*
X5328Y44618D02*
Y44835D01*
X5525Y44382D02*
Y44638D01*
Y44815D02*
Y47138D01*
X4531Y46370D02*
X4728Y46343D01*
X4532Y44382D02*
Y46370D01*
Y46626D02*
X4728Y46657D01*
Y46343D02*
Y46657D01*
X398Y47138D02*
X4532D01*
Y46626D02*
Y47138D01*
X398Y44382D02*
X4532D01*
X201Y44834D02*
X398Y44815D01*
X201Y44618D02*
X398Y44638D01*
X201Y44618D02*
Y44835D01*
X398Y44382D02*
Y44638D01*
Y44815D02*
Y47138D01*
X14786Y46370D02*
X14983Y46343D01*
X14786Y44382D02*
Y46370D01*
Y46626D02*
X14983Y46657D01*
Y46343D02*
Y46657D01*
X10652Y47138D02*
X14786D01*
Y46626D02*
Y47138D01*
X10652Y44382D02*
X14786D01*
X10455Y44834D02*
X10652Y44815D01*
X10455Y44618D02*
X10652Y44638D01*
X10455Y44618D02*
Y44835D01*
X10652Y44382D02*
Y44638D01*
Y44815D02*
Y47138D01*
X19913Y46370D02*
X20110Y46343D01*
X19913Y44382D02*
Y46370D01*
Y46626D02*
X20110Y46657D01*
Y46343D02*
Y46657D01*
X15780Y47138D02*
X19913D01*
Y46626D02*
Y47138D01*
X15780Y44382D02*
X19913D01*
X15583Y44834D02*
X15780Y44815D01*
X15583Y44618D02*
X15780Y44638D01*
X15583Y44618D02*
Y44835D01*
X15780Y44382D02*
Y44638D01*
Y44815D02*
Y47138D01*
X28444Y46386D02*
X28642Y46358D01*
X28445Y44398D02*
Y46386D01*
Y46642D02*
X28642Y46673D01*
Y46358D02*
Y46673D01*
X25689Y44831D02*
Y47154D01*
Y44398D02*
Y44654D01*
Y47154D02*
X28445D01*
Y46642D02*
Y47154D01*
X25689Y44398D02*
X28445D01*
X25492Y44634D02*
Y44850D01*
X25492Y44634D02*
X25689Y44654D01*
X25492Y44850D02*
X25689Y44831D01*
X25681Y46386D02*
X25878Y46358D01*
X25681Y44398D02*
Y46386D01*
Y46642D02*
X25878Y46673D01*
Y46358D02*
Y46673D01*
X21547Y47154D02*
X25681D01*
Y46642D02*
Y47154D01*
X21547Y44398D02*
X25681D01*
X21350Y44850D02*
X21547Y44831D01*
X21350Y44634D02*
X21547Y44654D01*
X21350Y44634D02*
Y44850D01*
X21547Y44398D02*
Y44654D01*
Y44831D02*
Y47154D01*
X33331Y43016D02*
X33642Y42705D01*
X33331Y41921D02*
X33642Y42232D01*
X32547D02*
X32858Y41921D01*
X32547Y42705D02*
X32858Y43016D01*
X33331D01*
X33642Y42232D02*
Y42705D01*
X32858Y41921D02*
X33331D01*
X32547Y42232D02*
Y42705D01*
X32122Y40453D02*
Y41437D01*
X33382Y40453D02*
Y41437D01*
X32122D02*
X33382D01*
X32122Y40453D02*
X33382D01*
X34630Y43941D02*
X36717D01*
Y42248D02*
Y43941D01*
X35024Y41854D02*
X36323D01*
X36717Y42248D01*
X34630D02*
X35024Y41854D01*
X34630Y42248D02*
Y43941D01*
X35020Y40079D02*
Y40709D01*
X36280Y40079D02*
Y40709D01*
X35020D02*
X36280D01*
X35020Y40079D02*
X36280D01*
X35020Y39063D02*
X36280D01*
X35020Y39693D02*
X36280D01*
Y39063D02*
Y39693D01*
X35020Y39063D02*
Y39693D01*
X38409Y23791D02*
X38437Y23989D01*
X36449Y23988D02*
X38437D01*
X38693D02*
X38724Y23791D01*
X38409D02*
X38724D01*
X36882Y26744D02*
X39205D01*
X36449D02*
X36705D01*
X39205Y23988D02*
Y26744D01*
X38693Y23988D02*
X39205D01*
X36449D02*
Y26744D01*
X36685Y26941D02*
X36902D01*
X36685Y26941D02*
X36705Y26744D01*
X36882D02*
X36901Y26941D01*
X38409Y26567D02*
X38437Y26764D01*
X36449Y26764D02*
X38437D01*
X38693D02*
X38724Y26567D01*
X38409D02*
X38724D01*
X36882Y29520D02*
X39205D01*
X36449D02*
X36705D01*
X39205Y26764D02*
Y29520D01*
X38693Y26764D02*
X39205D01*
X36449D02*
Y29520D01*
X36685Y29717D02*
X36902D01*
X36685Y29717D02*
X36705Y29520D01*
X36882D02*
X36901Y29717D01*
X38406Y29366D02*
X38433Y29564D01*
X36445Y29563D02*
X38433D01*
X38689D02*
X38720Y29366D01*
X38406D02*
X38720D01*
X36878Y32319D02*
X39201D01*
X36445D02*
X36701D01*
X39201Y29563D02*
Y32319D01*
X38689Y29563D02*
X39201D01*
X36445D02*
Y32319D01*
X36681Y32516D02*
X36898D01*
X36681Y32516D02*
X36701Y32319D01*
X36878D02*
X36897Y32516D01*
X8611Y24520D02*
X8808Y24492D01*
X8808Y24492D02*
Y26480D01*
X8611Y24205D02*
X8808Y24236D01*
X8611Y24205D02*
Y24520D01*
X11563Y23724D02*
Y26047D01*
Y26224D02*
Y26480D01*
X8808Y23724D02*
X11563D01*
X8808D02*
Y24236D01*
Y26480D02*
X11563D01*
X11760Y26028D02*
Y26244D01*
X11563Y26224D02*
X11760Y26244D01*
X11563Y26047D02*
X11760Y26028D01*
X5776Y24520D02*
X5973Y24492D01*
X5973Y24492D02*
Y26480D01*
X5776Y24205D02*
X5973Y24236D01*
X5776Y24205D02*
Y24520D01*
X8729Y23724D02*
Y26047D01*
Y26224D02*
Y26480D01*
X5973Y23724D02*
X8729D01*
X5973D02*
Y24236D01*
Y26480D02*
X8729D01*
X8926Y26028D02*
Y26244D01*
X8729Y26224D02*
X8926Y26244D01*
X8729Y26047D02*
X8926Y26028D01*
X2937Y24520D02*
X3135Y24492D01*
X3134Y24492D02*
Y26480D01*
X2937Y24205D02*
X3134Y24236D01*
X2937Y24205D02*
Y24520D01*
X5890Y23724D02*
Y26047D01*
Y26224D02*
Y26480D01*
X3134Y23724D02*
X5890D01*
X3134D02*
Y24236D01*
Y26480D02*
X5890D01*
X6087Y26028D02*
Y26244D01*
X5890Y26224D02*
X6087Y26244D01*
X5890Y26047D02*
X6087Y26028D01*
X28075Y23717D02*
Y24717D01*
X24075Y23717D02*
Y24717D01*
Y23717D02*
X28075D01*
X24075Y24717D02*
X28075D01*
X91Y24520D02*
X288Y24492D01*
X288Y24492D02*
Y26480D01*
X91Y24205D02*
X288Y24236D01*
X91Y24205D02*
Y24520D01*
X3044Y23724D02*
Y26047D01*
Y26224D02*
Y26480D01*
X288Y23724D02*
X3044D01*
X288D02*
Y24236D01*
Y26480D02*
X3044D01*
X3241Y26028D02*
Y26244D01*
X3044Y26224D02*
X3241Y26244D01*
X3044Y26047D02*
X3241Y26028D01*
X28626Y35720D02*
Y37256D01*
X26264Y35720D02*
X28626D01*
X26264D02*
Y37256D01*
X28626D01*
Y36291D02*
X28882D01*
Y36685D01*
X28626D02*
X28882D01*
X26008D02*
X26264D01*
X26008Y36291D02*
Y36685D01*
Y36291D02*
X26264D01*
X35455Y40525D02*
X35390Y40590D01*
X35259D01*
X35193Y40525D01*
Y40262D01*
X35259Y40197D01*
X35390D01*
X35455Y40262D01*
X35586Y40197D02*
X35718D01*
X35652D01*
Y40590D01*
X35586Y40525D01*
X35914D02*
X35980Y40590D01*
X36111D01*
X36177Y40525D01*
Y40459D01*
X36111Y40394D01*
X36177Y40328D01*
Y40262D01*
X36111Y40197D01*
X35980D01*
X35914Y40262D01*
Y40328D01*
X35980Y40394D01*
X35914Y40459D01*
Y40525D01*
X35980Y40394D02*
X36111D01*
X35455Y39509D02*
X35390Y39575D01*
X35259D01*
X35193Y39509D01*
Y39247D01*
X35259Y39181D01*
X35390D01*
X35455Y39247D01*
X35586Y39181D02*
X35718D01*
X35652D01*
Y39575D01*
X35586Y39509D01*
X35914Y39247D02*
X35980Y39181D01*
X36111D01*
X36177Y39247D01*
Y39509D01*
X36111Y39575D01*
X35980D01*
X35914Y39509D01*
Y39443D01*
X35980Y39378D01*
X36177D01*
D103*
X32516Y41102D02*
X32437Y41181D01*
X32280D01*
X32201Y41102D01*
Y40787D01*
X32280Y40709D01*
X32437D01*
X32516Y40787D01*
X32673Y40709D02*
X32831D01*
X32752D01*
Y41181D01*
X32673Y41102D01*
X33067Y41181D02*
X33382D01*
Y41102D01*
X33067Y40787D01*
Y40709D01*
D104*
X38406Y44898D02*
D03*
M02*
