G04*
G04 #@! TF.GenerationSoftware,Altium Limited,Altium Designer,21.2.1 (34)*
G04*
G04 Layer_Color=8388736*
%FSLAX24Y24*%
%MOIN*%
G70*
G04*
G04 #@! TF.SameCoordinates,093661B1-31BE-42CD-8BD9-57EC7F8E6B73*
G04*
G04*
G04 #@! TF.FilePolarity,Negative*
G04*
G01*
G75*
%ADD53R,0.0749X0.0986*%
%ADD54R,0.0836X0.2226*%
%ADD55R,0.0454X0.0474*%
%ADD56R,0.0671X0.0631*%
%ADD57R,0.1340X0.0474*%
%ADD58R,0.0434X0.1064*%
%ADD59R,0.0710X0.1261*%
%ADD60R,0.0474X0.0316*%
%ADD61R,0.0474X0.0454*%
%ADD62R,0.0434X0.0710*%
%ADD63R,0.3308X0.1104*%
%ADD64R,0.0474X0.0493*%
%ADD65O,0.0198X0.0789*%
%ADD66O,0.0789X0.0198*%
%ADD67R,0.0493X0.0474*%
%ADD68R,0.0659X0.0549*%
%ADD69O,0.0651X0.0257*%
%ADD70R,0.0533X0.0631*%
%ADD71R,0.0549X0.0659*%
%ADD72R,0.0828X0.0513*%
%ADD73R,0.0592X0.0316*%
%ADD74O,0.0651X0.0316*%
%ADD75R,0.0631X0.0552*%
%ADD76R,0.0552X0.0828*%
%ADD77R,0.0395X0.0198*%
%ADD78R,0.0867X0.0749*%
%ADD79R,0.0631X0.0671*%
%ADD80R,0.0395X0.0395*%
%ADD81R,0.0336X0.0680*%
%ADD82R,0.1300X0.1104*%
%ADD83R,0.0552X0.0631*%
%ADD84C,0.0789*%
G04:AMPARAMS|DCode=85|XSize=78.9mil|YSize=78.9mil|CornerRadius=21.7mil|HoleSize=0mil|Usage=FLASHONLY|Rotation=180.000|XOffset=0mil|YOffset=0mil|HoleType=Round|Shape=RoundedRectangle|*
%AMROUNDEDRECTD85*
21,1,0.0789,0.0354,0,0,180.0*
21,1,0.0354,0.0789,0,0,180.0*
1,1,0.0434,-0.0177,0.0177*
1,1,0.0434,0.0177,0.0177*
1,1,0.0434,0.0177,-0.0177*
1,1,0.0434,-0.0177,-0.0177*
%
%ADD85ROUNDEDRECTD85*%
%ADD86C,0.0907*%
G04:AMPARAMS|DCode=87|XSize=78.9mil|YSize=78.9mil|CornerRadius=21.7mil|HoleSize=0mil|Usage=FLASHONLY|Rotation=90.000|XOffset=0mil|YOffset=0mil|HoleType=Round|Shape=RoundedRectangle|*
%AMROUNDEDRECTD87*
21,1,0.0789,0.0354,0,0,90.0*
21,1,0.0354,0.0789,0,0,90.0*
1,1,0.0434,0.0177,0.0177*
1,1,0.0434,0.0177,-0.0177*
1,1,0.0434,-0.0177,-0.0177*
1,1,0.0434,-0.0177,0.0177*
%
%ADD87ROUNDEDRECTD87*%
%ADD88C,0.0710*%
G04:AMPARAMS|DCode=89|XSize=71mil|YSize=71mil|CornerRadius=19.7mil|HoleSize=0mil|Usage=FLASHONLY|Rotation=0.000|XOffset=0mil|YOffset=0mil|HoleType=Round|Shape=RoundedRectangle|*
%AMROUNDEDRECTD89*
21,1,0.0710,0.0315,0,0,0.0*
21,1,0.0315,0.0710,0,0,0.0*
1,1,0.0395,0.0157,-0.0157*
1,1,0.0395,-0.0157,-0.0157*
1,1,0.0395,-0.0157,0.0157*
1,1,0.0395,0.0157,0.0157*
%
%ADD89ROUNDEDRECTD89*%
D53*
X38406Y44591D02*
D03*
Y46244D02*
D03*
D54*
X34500Y45717D02*
D03*
X37165D02*
D03*
D55*
X22112Y43559D02*
D03*
X21463D02*
D03*
X24353D02*
D03*
X23703D02*
D03*
X28108Y38311D02*
D03*
X28758D02*
D03*
X25944D02*
D03*
X26594D02*
D03*
X23703D02*
D03*
X24353D02*
D03*
X21463D02*
D03*
X22112D02*
D03*
X26594Y43559D02*
D03*
X25944D02*
D03*
X18280Y26571D02*
D03*
X18929D02*
D03*
X29533Y30146D02*
D03*
X30183D02*
D03*
X30183Y31650D02*
D03*
X29533D02*
D03*
X30183Y28925D02*
D03*
X29533D02*
D03*
X30183Y26083D02*
D03*
X29533D02*
D03*
X29533Y24618D02*
D03*
X30183D02*
D03*
X29533Y27437D02*
D03*
X30183D02*
D03*
X16350Y27350D02*
D03*
X15701D02*
D03*
X15701Y26553D02*
D03*
X16350D02*
D03*
X14455Y25236D02*
D03*
X13805D02*
D03*
X16350Y25776D02*
D03*
X15701D02*
D03*
X15947Y31657D02*
D03*
X16596D02*
D03*
X10847D02*
D03*
X11497D02*
D03*
X5747D02*
D03*
X6397D02*
D03*
X648D02*
D03*
X1297D02*
D03*
X28108Y43559D02*
D03*
X28758D02*
D03*
X27811Y35260D02*
D03*
X28461D02*
D03*
D56*
X23531Y39126D02*
D03*
X24532D02*
D03*
X23531Y42748D02*
D03*
X24532D02*
D03*
X21307Y39126D02*
D03*
X22307D02*
D03*
X21307Y42748D02*
D03*
X22307D02*
D03*
X25756Y39126D02*
D03*
X26756D02*
D03*
X25756Y42748D02*
D03*
X26756D02*
D03*
X28724Y36488D02*
D03*
X26165D02*
D03*
X28980Y42748D02*
D03*
X27980D02*
D03*
X28980Y39126D02*
D03*
X27980D02*
D03*
D57*
X33094Y42902D02*
D03*
Y42035D02*
D03*
D58*
X32142Y40945D02*
D03*
X33362D02*
D03*
D59*
X35673Y43764D02*
D03*
Y42031D02*
D03*
D60*
X37709Y43398D02*
D03*
Y42650D02*
D03*
X38654Y43024D02*
D03*
D61*
X38165Y41837D02*
D03*
Y41187D02*
D03*
X38835Y41187D02*
D03*
Y41837D02*
D03*
X31295Y35742D02*
D03*
Y35093D02*
D03*
X1622Y29689D02*
D03*
Y29039D02*
D03*
X23288Y31837D02*
D03*
Y31188D02*
D03*
X22576Y31851D02*
D03*
Y31201D02*
D03*
X30575Y35762D02*
D03*
Y35112D02*
D03*
X31252Y39846D02*
D03*
Y39197D02*
D03*
X31315Y36427D02*
D03*
Y37077D02*
D03*
D62*
X35039Y40394D02*
D03*
X36260D02*
D03*
Y39378D02*
D03*
X35039D02*
D03*
D63*
X35795Y37858D02*
D03*
Y35654D02*
D03*
D64*
X32079Y35708D02*
D03*
Y35118D02*
D03*
X21965Y31847D02*
D03*
Y31256D02*
D03*
X21340Y31855D02*
D03*
Y31264D02*
D03*
X20245Y25918D02*
D03*
Y26508D02*
D03*
X19603Y25918D02*
D03*
Y26508D02*
D03*
X31268Y38429D02*
D03*
Y37839D02*
D03*
D65*
X22438Y30095D02*
D03*
X22635D02*
D03*
X22832D02*
D03*
X23028D02*
D03*
X23225D02*
D03*
X23422D02*
D03*
X23619D02*
D03*
X23816D02*
D03*
X24013D02*
D03*
X24210D02*
D03*
X24406D02*
D03*
X24603D02*
D03*
X24800D02*
D03*
X24997D02*
D03*
X25194D02*
D03*
X25391D02*
D03*
Y25725D02*
D03*
X25194D02*
D03*
X24997D02*
D03*
X24800D02*
D03*
X24603D02*
D03*
X24406D02*
D03*
X24210D02*
D03*
X24013D02*
D03*
X23816D02*
D03*
X23619D02*
D03*
X23422D02*
D03*
X23225D02*
D03*
X23028D02*
D03*
X22832D02*
D03*
X22635D02*
D03*
X22438D02*
D03*
D66*
X26099Y29386D02*
D03*
Y29190D02*
D03*
Y28993D02*
D03*
Y28796D02*
D03*
Y28599D02*
D03*
Y28402D02*
D03*
Y28205D02*
D03*
Y28008D02*
D03*
Y27812D02*
D03*
Y27615D02*
D03*
Y27418D02*
D03*
Y27221D02*
D03*
Y27024D02*
D03*
Y26827D02*
D03*
Y26630D02*
D03*
Y26434D02*
D03*
X21729D02*
D03*
Y26630D02*
D03*
Y26827D02*
D03*
Y27024D02*
D03*
Y27221D02*
D03*
Y27418D02*
D03*
Y27615D02*
D03*
Y27812D02*
D03*
Y28008D02*
D03*
Y28205D02*
D03*
Y28402D02*
D03*
Y28599D02*
D03*
Y28796D02*
D03*
Y28993D02*
D03*
Y29190D02*
D03*
Y29386D02*
D03*
D67*
X2315Y28303D02*
D03*
X1724D02*
D03*
X2315Y27614D02*
D03*
X1724D02*
D03*
X26977Y25741D02*
D03*
X27568D02*
D03*
X26981Y29394D02*
D03*
X27572D02*
D03*
X20217Y25059D02*
D03*
X19626D02*
D03*
X19751Y28296D02*
D03*
X20341D02*
D03*
X20341Y29233D02*
D03*
X19751D02*
D03*
X19751Y27347D02*
D03*
X20341D02*
D03*
X20341Y30138D02*
D03*
X19751D02*
D03*
X33709Y29532D02*
D03*
X33118D02*
D03*
X33709Y32280D02*
D03*
X33118D02*
D03*
X33709Y26768D02*
D03*
X33118D02*
D03*
X13830Y27325D02*
D03*
X14421D02*
D03*
X4945Y28921D02*
D03*
X5535D02*
D03*
X7969D02*
D03*
X8559D02*
D03*
X33516Y35154D02*
D03*
X32925D02*
D03*
X26461Y35264D02*
D03*
X27051D02*
D03*
D68*
X2319Y29732D02*
D03*
Y29059D02*
D03*
D69*
X6827Y28165D02*
D03*
Y27909D02*
D03*
Y27654D02*
D03*
Y27398D02*
D03*
X8559Y28165D02*
D03*
Y27909D02*
D03*
Y27654D02*
D03*
Y27398D02*
D03*
X3807Y28165D02*
D03*
Y27909D02*
D03*
Y27654D02*
D03*
Y27398D02*
D03*
X5539Y28165D02*
D03*
Y27909D02*
D03*
Y27654D02*
D03*
Y27398D02*
D03*
D70*
X19023Y27378D02*
D03*
Y28245D02*
D03*
X18235Y27378D02*
D03*
Y28245D02*
D03*
D71*
X18217Y25850D02*
D03*
X18890D02*
D03*
D72*
X18849Y29193D02*
D03*
Y30178D02*
D03*
D73*
X35980Y25358D02*
D03*
X35154Y24984D02*
D03*
Y25732D02*
D03*
X35980Y28189D02*
D03*
X35154Y27815D02*
D03*
Y28563D02*
D03*
X35976Y30878D02*
D03*
X35150Y30504D02*
D03*
Y31252D02*
D03*
D74*
X30947Y31646D02*
D03*
Y31146D02*
D03*
Y30646D02*
D03*
Y30146D02*
D03*
X33093Y31646D02*
D03*
Y31146D02*
D03*
Y30646D02*
D03*
Y30146D02*
D03*
X30951Y28926D02*
D03*
Y28426D02*
D03*
Y27926D02*
D03*
Y27426D02*
D03*
X33096Y28926D02*
D03*
Y28426D02*
D03*
Y27926D02*
D03*
Y27426D02*
D03*
X30951Y26111D02*
D03*
Y25611D02*
D03*
Y25111D02*
D03*
Y24611D02*
D03*
X33096Y26111D02*
D03*
Y25611D02*
D03*
Y25111D02*
D03*
Y24611D02*
D03*
D75*
X34205Y31291D02*
D03*
Y30504D02*
D03*
Y25760D02*
D03*
Y24972D02*
D03*
X34205Y28579D02*
D03*
Y27791D02*
D03*
D76*
X14126Y26276D02*
D03*
D77*
X13654Y25980D02*
D03*
Y26177D02*
D03*
Y26374D02*
D03*
Y26571D02*
D03*
X14598D02*
D03*
Y26374D02*
D03*
Y26177D02*
D03*
Y25980D02*
D03*
D78*
X18583Y35035D02*
D03*
X17126D02*
D03*
X13470D02*
D03*
X12013D02*
D03*
X8357D02*
D03*
X6900D02*
D03*
X3244D02*
D03*
X1787D02*
D03*
D79*
X15980Y33598D02*
D03*
Y32598D02*
D03*
X19602Y33598D02*
D03*
Y32598D02*
D03*
X5797Y33598D02*
D03*
Y32598D02*
D03*
X9419Y33598D02*
D03*
Y32598D02*
D03*
X10888Y33598D02*
D03*
Y32598D02*
D03*
X14511Y33598D02*
D03*
Y32598D02*
D03*
X705Y33598D02*
D03*
Y32598D02*
D03*
X4327Y33598D02*
D03*
Y32598D02*
D03*
D80*
X38839Y40596D02*
D03*
Y39986D02*
D03*
X38161Y39980D02*
D03*
Y40591D02*
D03*
D81*
X33553Y38839D02*
D03*
X33053D02*
D03*
X32553D02*
D03*
X32053D02*
D03*
Y36704D02*
D03*
X32553D02*
D03*
X33053D02*
D03*
X33553D02*
D03*
D82*
X32803Y37772D02*
D03*
D83*
X33256Y39878D02*
D03*
X32469D02*
D03*
D84*
X31500Y45693D02*
D03*
X7592Y45720D02*
D03*
X6214D02*
D03*
X2465D02*
D03*
X1087D02*
D03*
X12719D02*
D03*
X11341D02*
D03*
X17846D02*
D03*
X16468D02*
D03*
X26378Y45736D02*
D03*
X23614D02*
D03*
X22236D02*
D03*
X37787Y26055D02*
D03*
X37787Y28831D02*
D03*
X37783Y31630D02*
D03*
X10874Y25142D02*
D03*
X8040D02*
D03*
X5201D02*
D03*
X2355D02*
D03*
D85*
X32878Y45693D02*
D03*
X8970Y45720D02*
D03*
X3843D02*
D03*
X14097D02*
D03*
X19224D02*
D03*
X27756Y45736D02*
D03*
X24992D02*
D03*
X9497Y25142D02*
D03*
X6662D02*
D03*
X3823D02*
D03*
X977D02*
D03*
D86*
X961Y36492D02*
D03*
Y42492D02*
D03*
X3961Y43492D02*
D03*
Y40492D02*
D03*
Y36492D02*
D03*
X9091D02*
D03*
Y40492D02*
D03*
Y43492D02*
D03*
X6091Y42492D02*
D03*
Y36492D02*
D03*
X11220D02*
D03*
Y42492D02*
D03*
X14220Y43492D02*
D03*
Y40492D02*
D03*
Y36492D02*
D03*
X16350D02*
D03*
Y42492D02*
D03*
X19350Y43492D02*
D03*
Y40492D02*
D03*
Y36492D02*
D03*
D87*
X37787Y24677D02*
D03*
X37787Y27453D02*
D03*
X37783Y30252D02*
D03*
D88*
X25575Y24217D02*
D03*
X26575D02*
D03*
X27575D02*
D03*
D89*
X24575D02*
D03*
M02*
