G04*
G04 #@! TF.GenerationSoftware,Altium Limited,Altium Designer,21.2.1 (34)*
G04*
G04 Layer_Color=32768*
%FSLAX24Y24*%
%MOIN*%
G70*
G04*
G04 #@! TF.SameCoordinates,093661B1-31BE-42CD-8BD9-57EC7F8E6B73*
G04*
G04*
G04 #@! TF.FilePolarity,Positive*
G04*
G01*
G75*
%ADD13C,0.0039*%
%ADD106C,0.0020*%
D13*
X4823Y35661D02*
Y44366D01*
X98D02*
X4823D01*
X98Y35661D02*
Y44366D01*
Y35661D02*
X4823D01*
X5228D02*
X9953D01*
X5228D02*
Y44366D01*
X9953D01*
Y35661D02*
Y44366D01*
X15083Y35661D02*
Y44366D01*
X10358D02*
X15083D01*
X10358Y35661D02*
Y44366D01*
Y35661D02*
X15083D01*
X20213D02*
Y44366D01*
X15488D02*
X20213D01*
X15488Y35661D02*
Y44366D01*
Y35661D02*
X20213D01*
X21787Y43382D02*
Y43736D01*
X21610Y43559D02*
X21965D01*
X24028Y43382D02*
Y43736D01*
X23851Y43559D02*
X24205D01*
X23835Y40937D02*
X24228D01*
X24032Y40740D02*
Y41134D01*
X28433Y38134D02*
Y38488D01*
X28256Y38311D02*
X28610D01*
X26269Y38134D02*
Y38488D01*
X26092Y38311D02*
X26446D01*
X24028Y38134D02*
Y38488D01*
X23851Y38311D02*
X24205D01*
X21787Y38134D02*
Y38488D01*
X21610Y38311D02*
X21965D01*
X21610Y40937D02*
X22004D01*
X21807Y40740D02*
Y41134D01*
X26269Y43382D02*
Y43736D01*
X26092Y43559D02*
X26446D01*
X26059Y40937D02*
X26453D01*
X26256Y40740D02*
Y41134D01*
X37984Y43024D02*
X38378D01*
X38181Y42827D02*
Y43220D01*
X37988Y41512D02*
X38343D01*
X38165Y41335D02*
Y41689D01*
X38657Y41512D02*
X39012D01*
X38835Y41335D02*
Y41689D01*
X33787Y34433D02*
X37803D01*
Y38764D01*
X33787D02*
X37803D01*
X33787Y34433D02*
Y38764D01*
X31118Y35417D02*
X31472D01*
X31295Y35240D02*
Y35594D01*
X32079Y35226D02*
Y35600D01*
X31892Y35413D02*
X32266D01*
X21965Y31365D02*
Y31739D01*
X21778Y31552D02*
X22153D01*
X23914Y27713D02*
Y28107D01*
X23717Y27910D02*
X24111D01*
X21340Y31373D02*
Y31747D01*
X21153Y31560D02*
X21527D01*
X2020Y28116D02*
Y28490D01*
X1833Y28303D02*
X2207D01*
X2020Y27427D02*
Y27801D01*
X1833Y27614D02*
X2207D01*
X2319Y29199D02*
Y29593D01*
X2122Y29396D02*
X2516D01*
X1622Y29187D02*
Y29541D01*
X1445Y29364D02*
X1799D01*
X7496Y27782D02*
X7890D01*
X7693Y27585D02*
Y27978D01*
X4476Y27782D02*
X4870D01*
X4673Y27585D02*
Y27978D01*
X27273Y25554D02*
Y25928D01*
X27086Y25741D02*
X27460D01*
X27277Y29207D02*
Y29581D01*
X27090Y29394D02*
X27464D01*
X19921Y24872D02*
Y25246D01*
X19734Y25059D02*
X20108D01*
X23288Y31335D02*
Y31690D01*
X23111Y31512D02*
X23465D01*
X22576Y31349D02*
Y31703D01*
X22399Y31526D02*
X22753D01*
X20046Y28109D02*
Y28483D01*
X19859Y28296D02*
X20233D01*
X20046Y29046D02*
Y29420D01*
X19859Y29233D02*
X20233D01*
X20046Y27160D02*
Y27534D01*
X19859Y27347D02*
X20233D01*
X20058Y26213D02*
X20432D01*
X20245Y26026D02*
Y26400D01*
X19416Y26213D02*
X19790D01*
X19603Y26026D02*
Y26400D01*
X18356Y25850D02*
X18750D01*
X18553Y25654D02*
Y26047D01*
X20046Y29951D02*
Y30325D01*
X19859Y30138D02*
X20233D01*
X18427Y26571D02*
X18781D01*
X18604Y26394D02*
Y26748D01*
X29858Y29969D02*
Y30323D01*
X29681Y30146D02*
X30035D01*
X31823Y30896D02*
X32217D01*
X32020Y30699D02*
Y31093D01*
X31827Y28176D02*
X32220D01*
X32024Y27979D02*
Y28373D01*
X33413Y29344D02*
Y29718D01*
X33226Y29532D02*
X33600D01*
X34008Y30898D02*
X34402D01*
X34205Y30701D02*
Y31094D01*
X33413Y32093D02*
Y32467D01*
X33226Y32280D02*
X33600D01*
X29858Y31472D02*
Y31827D01*
X29681Y31650D02*
X30035D01*
X29858Y28748D02*
Y29102D01*
X29681Y28925D02*
X30035D01*
X29858Y25906D02*
Y26260D01*
X29681Y26083D02*
X30035D01*
X31827Y25361D02*
X32220D01*
X32024Y25164D02*
Y25557D01*
X29858Y24441D02*
Y24795D01*
X29681Y24618D02*
X30035D01*
X29858Y27260D02*
Y27614D01*
X29681Y27437D02*
X30035D01*
X34008Y25366D02*
X34402D01*
X34205Y25169D02*
Y25563D01*
X34008Y28185D02*
X34402D01*
X34205Y27988D02*
Y28382D01*
X33413Y26581D02*
Y26955D01*
X33226Y26768D02*
X33600D01*
X14125Y27138D02*
Y27512D01*
X13938Y27325D02*
X14312D01*
X15848Y27350D02*
X16203D01*
X16026Y27173D02*
Y27528D01*
X15848Y26553D02*
X16203D01*
X16026Y26376D02*
Y26730D01*
X13953Y25236D02*
X14307D01*
X14130Y25059D02*
Y25413D01*
X15848Y25776D02*
X16203D01*
X16026Y25598D02*
Y25953D01*
X5240Y28734D02*
Y29108D01*
X5053Y28921D02*
X5427D01*
X8264Y28734D02*
Y29108D01*
X8077Y28921D02*
X8451D01*
X17657Y35035D02*
X18051D01*
X17854Y34839D02*
Y35232D01*
X17594Y33098D02*
X17988D01*
X17791Y32902D02*
Y33295D01*
X16094Y31657D02*
X16449D01*
X16272Y31480D02*
Y31835D01*
X10995Y31657D02*
X11349D01*
X11172Y31480D02*
Y31835D01*
X7411Y33098D02*
X7804D01*
X7608Y32902D02*
Y33295D01*
X12503Y33098D02*
X12896D01*
X12699Y32902D02*
Y33295D01*
X12545Y35035D02*
X12938D01*
X12741Y34839D02*
Y35232D01*
X2319Y33098D02*
X2713D01*
X2516Y32902D02*
Y33295D01*
X7432Y35035D02*
X7825D01*
X7629Y34839D02*
Y35232D01*
X5895Y31657D02*
X6249D01*
X6072Y31480D02*
Y31835D01*
X2319Y35035D02*
X2713D01*
X2516Y34839D02*
Y35232D01*
X795Y31657D02*
X1150D01*
X972Y31480D02*
Y31835D01*
X28480Y40740D02*
Y41134D01*
X28283Y40937D02*
X28677D01*
X28256Y43559D02*
X28610D01*
X28433Y43382D02*
Y43736D01*
X38839Y40114D02*
Y40469D01*
X38661Y40291D02*
X39016D01*
X37984Y40285D02*
X38339D01*
X38161Y40108D02*
Y40463D01*
X30575Y35260D02*
Y35614D01*
X30398Y35437D02*
X30752D01*
X31252Y39344D02*
Y39699D01*
X31075Y39522D02*
X31429D01*
X31081Y38134D02*
X31455D01*
X31268Y37947D02*
Y38321D01*
X31315Y36575D02*
Y36929D01*
X31138Y36752D02*
X31492D01*
X33220Y34967D02*
Y35341D01*
X33033Y35154D02*
X33407D01*
X32665Y39878D02*
X33059D01*
X32862Y39681D02*
Y40075D01*
X26756Y35077D02*
Y35451D01*
X26569Y35264D02*
X26943D01*
X27959Y35260D02*
X28313D01*
X28136Y35083D02*
Y35437D01*
D106*
X38209Y45417D02*
X38602D01*
X38406Y45220D02*
Y45614D01*
X37776Y44059D02*
Y46776D01*
X39035D01*
Y44059D02*
Y46776D01*
X37776Y44059D02*
X39035D01*
X35833Y45559D02*
Y45874D01*
X35675Y45717D02*
X35990D01*
X34024Y46888D02*
X37642D01*
Y44545D02*
Y46888D01*
X34024Y44545D02*
X37642D01*
X34024D02*
Y46888D01*
X32189Y45535D02*
Y45929D01*
X31992Y45732D02*
X32386D01*
X33843Y44276D02*
Y47189D01*
X30535D02*
X33843D01*
X30535Y44276D02*
Y47189D01*
Y44276D02*
X33843D01*
X9934Y44303D02*
Y47217D01*
X5249D02*
X9934D01*
X5249Y44303D02*
Y47217D01*
Y44303D02*
X9934D01*
X7592Y45563D02*
Y45957D01*
X7395Y45760D02*
X7789D01*
X4807Y44303D02*
Y47217D01*
X122D02*
X4807D01*
X122Y44303D02*
Y47217D01*
Y44303D02*
X4807D01*
X2465Y45563D02*
Y45957D01*
X2268Y45760D02*
X2661D01*
X15062Y44303D02*
Y47217D01*
X10377D02*
X15062D01*
X10377Y44303D02*
Y47217D01*
Y44303D02*
X15062D01*
X12719Y45563D02*
Y45957D01*
X12522Y45760D02*
X12916D01*
X20189Y44303D02*
Y47217D01*
X15504D02*
X20189D01*
X15504Y44303D02*
Y47217D01*
Y44303D02*
X20189D01*
X17846Y45563D02*
Y45957D01*
X17650Y45760D02*
X18043D01*
X27067Y45579D02*
Y45972D01*
X26870Y45776D02*
X27264D01*
X28720Y44319D02*
Y47232D01*
X25413D02*
X28720D01*
X25413Y44319D02*
Y47232D01*
Y44319D02*
X28720D01*
X25957D02*
Y47232D01*
X21272D02*
X25957D01*
X21272Y44319D02*
Y47232D01*
Y44319D02*
X25957D01*
X23614Y45579D02*
Y45972D01*
X23417Y45776D02*
X23811D01*
X21177Y43264D02*
X22398D01*
X21177Y43864D02*
X22398D01*
Y43264D02*
Y43864D01*
X21177Y43264D02*
Y43864D01*
X23418Y43264D02*
X24638D01*
X23418Y43864D02*
X24638D01*
Y43264D02*
Y43864D01*
X23418Y43264D02*
Y43864D01*
X22929Y38634D02*
Y43240D01*
X25134Y38634D02*
Y43240D01*
X22929Y38634D02*
X25134D01*
X22929Y43240D02*
X25134D01*
X27823Y38606D02*
X29043D01*
X27823Y38006D02*
X29043D01*
X27823D02*
Y38606D01*
X29043Y38006D02*
Y38606D01*
X25659D02*
X26879D01*
X25659Y38006D02*
X26879D01*
X25659D02*
Y38606D01*
X26879Y38006D02*
Y38606D01*
X23418D02*
X24638D01*
X23418Y38006D02*
X24638D01*
X23418D02*
Y38606D01*
X24638Y38006D02*
Y38606D01*
X21177D02*
X22398D01*
X21177Y38006D02*
X22398D01*
X21177D02*
Y38606D01*
X22398Y38006D02*
Y38606D01*
X20705Y38634D02*
Y43240D01*
X22909Y38634D02*
Y43240D01*
X20705Y38634D02*
X22909D01*
X20705Y43240D02*
X22909D01*
X25659Y43264D02*
X26879D01*
X25659Y43864D02*
X26879D01*
Y43264D02*
Y43864D01*
X25659Y43264D02*
Y43864D01*
X25154Y38634D02*
Y43240D01*
X27358Y38634D02*
Y43240D01*
X25154Y38634D02*
X27358D01*
X25154Y43240D02*
X27358D01*
X32898Y42469D02*
X33291D01*
X33094Y42272D02*
Y42665D01*
X32386Y43177D02*
X33803D01*
Y41760D02*
Y43177D01*
X32386Y41760D02*
X33803D01*
X32386D02*
Y43177D01*
X32752Y40748D02*
Y41142D01*
X32555Y40945D02*
X32949D01*
X31886Y40315D02*
Y41575D01*
Y40315D02*
X33618D01*
Y41575D01*
X31886D02*
X33618D01*
X36835Y41362D02*
Y44433D01*
X34512Y41362D02*
X36835D01*
X34512D02*
Y44433D01*
X36835D01*
X35476Y42898D02*
X35870D01*
X35673Y42701D02*
Y43094D01*
X37423Y42335D02*
Y43713D01*
X38939Y42335D02*
Y43713D01*
X37423D02*
X38939D01*
X37423Y42335D02*
X38939D01*
X38461Y40902D02*
Y42122D01*
X37860Y40902D02*
Y42122D01*
X38461D01*
X37860Y40902D02*
X38461D01*
X38539Y40902D02*
Y42122D01*
X39140Y40902D02*
Y42122D01*
X38539Y40902D02*
X39140D01*
X38539Y42122D02*
X39140D01*
X35453Y40394D02*
X35846D01*
X35650Y40197D02*
Y40591D01*
X36516Y39941D02*
Y40846D01*
X34783Y39941D02*
X36516D01*
X34783D02*
Y40846D01*
X36516D01*
X34783Y39831D02*
X36516D01*
X34783Y38925D02*
Y39831D01*
Y38925D02*
X36516D01*
Y39831D01*
X35650Y39181D02*
Y39575D01*
X35453Y39378D02*
X35846D01*
X31591Y34807D02*
Y36028D01*
X30990Y34807D02*
Y36028D01*
X31591D01*
X30990Y34807D02*
X31591D01*
X31783Y34822D02*
Y36003D01*
X32374Y34822D02*
Y36003D01*
X31783Y34822D02*
X32374D01*
X31783Y36003D02*
X32374D01*
X21670Y30961D02*
Y32142D01*
X22261Y30961D02*
Y32142D01*
X21670Y30961D02*
X22261D01*
X21670Y32142D02*
X22261D01*
X21277Y25272D02*
X26552D01*
X21277Y30548D02*
X26552D01*
Y25272D02*
Y30548D01*
X21277Y25272D02*
Y30548D01*
X21044Y30969D02*
Y32150D01*
X21635Y30969D02*
Y32150D01*
X21044Y30969D02*
X21635D01*
X21044Y32150D02*
X21635D01*
X37630Y25366D02*
X38024D01*
X37827Y25169D02*
Y25563D01*
X36370Y23713D02*
X39283D01*
Y27020D01*
X36370D02*
X39283D01*
X36370Y23713D02*
Y27020D01*
X37630Y28142D02*
X38024D01*
X37827Y27945D02*
Y28339D01*
X36370Y26488D02*
X39283D01*
Y29795D01*
X36370D02*
X39283D01*
X36370Y26488D02*
Y29795D01*
X37626Y30941D02*
X38020D01*
X37823Y30744D02*
Y31138D01*
X36366Y29287D02*
X39280D01*
Y32594D01*
X36366D02*
X39280D01*
X36366Y29287D02*
Y32594D01*
X10186Y24906D02*
Y25299D01*
X9989Y25102D02*
X10382D01*
X8532Y23646D02*
Y26559D01*
Y23646D02*
X11839D01*
Y26559D01*
X8532D02*
X11839D01*
X7351Y24906D02*
Y25299D01*
X7154Y25102D02*
X7548D01*
X5697Y23646D02*
Y26559D01*
Y23646D02*
X9004D01*
Y26559D01*
X5697D02*
X9004D01*
X4512Y24906D02*
Y25299D01*
X4315Y25102D02*
X4709D01*
X2859Y23646D02*
Y26559D01*
Y23646D02*
X6166D01*
Y26559D01*
X2859D02*
X6166D01*
X1429Y28008D02*
Y28598D01*
X2610Y28008D02*
Y28598D01*
X1429D02*
X2610D01*
X1429Y28008D02*
X2610D01*
X1429Y27319D02*
Y27909D01*
X2610Y27319D02*
Y27909D01*
X1429D02*
X2610D01*
X1429Y27319D02*
X2610D01*
X1925Y30065D02*
X2713D01*
X1925Y28726D02*
X2713D01*
Y30065D01*
X1925Y28726D02*
Y30065D01*
X1327Y29974D02*
X1927D01*
X1327Y28754D02*
X1927D01*
Y29974D01*
X1327Y28754D02*
Y29974D01*
X23937Y23608D02*
Y24825D01*
Y23608D02*
X28213D01*
Y24825D01*
X23937D02*
X28213D01*
X26075Y24020D02*
Y24413D01*
X25878Y24217D02*
X26272D01*
X6453Y27073D02*
Y28490D01*
X8933Y27073D02*
Y28490D01*
X6453D02*
X8933D01*
X6453Y27073D02*
X8933D01*
X3433D02*
Y28490D01*
X5913Y27073D02*
Y28490D01*
X3433D02*
X5913D01*
X3433Y27073D02*
X5913D01*
X1666Y24906D02*
Y25299D01*
X1469Y25102D02*
X1863D01*
X12Y23646D02*
Y26559D01*
Y23646D02*
X3319D01*
Y26559D01*
X12D02*
X3319D01*
X25791Y35642D02*
X29098D01*
X25791D02*
Y37335D01*
X29098D01*
Y35642D02*
Y37335D01*
X27248Y36488D02*
X27642D01*
X27445Y36291D02*
Y36685D01*
X27863Y25445D02*
Y26036D01*
X26682Y25445D02*
Y26036D01*
Y25445D02*
X27863D01*
X26682Y26036D02*
X27863D01*
X27867Y29099D02*
Y29690D01*
X26686Y29099D02*
Y29690D01*
Y29099D02*
X27867D01*
X26686Y29690D02*
X27867D01*
X19331Y24764D02*
Y25354D01*
X20512Y24764D02*
Y25354D01*
X19331D02*
X20512D01*
X19331Y24764D02*
X20512D01*
X22993Y32123D02*
X23593D01*
X22993Y30902D02*
X23593D01*
Y32123D01*
X22993Y30902D02*
Y32123D01*
X22280Y32136D02*
X22881D01*
X22280Y30916D02*
X22881D01*
Y32136D01*
X22280Y30916D02*
Y32136D01*
X20637Y28001D02*
Y28591D01*
X19456Y28001D02*
Y28591D01*
Y28001D02*
X20637D01*
X19456Y28591D02*
X20637D01*
X19456Y28938D02*
Y29528D01*
X20637Y28938D02*
Y29528D01*
X19456D02*
X20637D01*
X19456Y28938D02*
X20637D01*
X20637Y27052D02*
Y27642D01*
X19456Y27052D02*
Y27642D01*
Y27052D02*
X20637D01*
X19456Y27642D02*
X20637D01*
X19950Y26804D02*
X20540D01*
X19950Y25623D02*
X20540D01*
Y26804D01*
X19950Y25623D02*
Y26804D01*
X19308D02*
X19899D01*
X19308Y25623D02*
X19899D01*
Y26804D01*
X19308Y25623D02*
Y26804D01*
X17884Y25457D02*
Y26244D01*
X19222Y25457D02*
Y26244D01*
X17884D02*
X19222D01*
X17884Y25457D02*
X19222D01*
X19456Y29843D02*
Y30434D01*
X20637Y29843D02*
Y30434D01*
X19456D02*
X20637D01*
X19456Y29843D02*
X20637D01*
X17994Y26276D02*
Y26876D01*
X19215Y26276D02*
Y26876D01*
X17994D02*
X19215D01*
X17994Y26276D02*
X19215D01*
X34799Y24661D02*
Y26055D01*
Y24661D02*
X36335D01*
Y26055D01*
X34799D02*
X36335D01*
X34799Y27492D02*
Y28886D01*
Y27492D02*
X36335D01*
Y28886D01*
X34799D02*
X36335D01*
X34795Y30181D02*
Y31575D01*
Y30181D02*
X36331D01*
Y31575D01*
X34795D02*
X36331D01*
X29248Y30441D02*
X30468D01*
X29248Y29841D02*
X30468D01*
X29248D02*
Y30441D01*
X30468Y29841D02*
Y30441D01*
X30563Y29813D02*
Y31978D01*
X33476Y29813D02*
Y31978D01*
X30563D02*
X33476D01*
X30563Y29813D02*
X33476D01*
X30567Y27093D02*
Y29259D01*
X33480Y27093D02*
Y29259D01*
X30567D02*
X33480D01*
X30567Y27093D02*
X33480D01*
X32823Y29236D02*
Y29827D01*
X34004Y29236D02*
Y29827D01*
X32823D02*
X34004D01*
X32823Y29236D02*
X34004D01*
X34579Y30150D02*
Y31646D01*
X33831Y30150D02*
Y31646D01*
X34579D01*
X33831Y30150D02*
X34579D01*
X32823Y31984D02*
Y32575D01*
X34004Y31984D02*
Y32575D01*
X32823D02*
X34004D01*
X32823Y31984D02*
X34004D01*
X29248Y31354D02*
X30468D01*
X29248Y31955D02*
X30468D01*
Y31354D02*
Y31955D01*
X29248Y31354D02*
Y31955D01*
X29248Y28630D02*
X30468D01*
X29248Y29230D02*
X30468D01*
Y28630D02*
Y29230D01*
X29248Y28630D02*
Y29230D01*
X29248Y25787D02*
X30468D01*
X29248Y26388D02*
X30468D01*
Y25787D02*
Y26388D01*
X29248Y25787D02*
Y26388D01*
X30567Y24278D02*
Y26443D01*
X33480Y24278D02*
Y26443D01*
X30567D02*
X33480D01*
X30567Y24278D02*
X33480D01*
X29248Y24913D02*
X30468D01*
X29248Y24313D02*
X30468D01*
X29248D02*
Y24913D01*
X30468Y24313D02*
Y24913D01*
X29248Y27732D02*
X30468D01*
X29248Y27132D02*
X30468D01*
X29248D02*
Y27732D01*
X30468Y27132D02*
Y27732D01*
X34579Y24618D02*
Y26114D01*
X33831Y24618D02*
Y26114D01*
X34579D01*
X33831Y24618D02*
X34579D01*
X34579Y27437D02*
Y28933D01*
X33831Y27437D02*
Y28933D01*
X34579D01*
X33831Y27437D02*
X34579D01*
X32823Y26472D02*
Y27063D01*
X34004Y26472D02*
Y27063D01*
X32823D02*
X34004D01*
X32823Y26472D02*
X34004D01*
X14854Y25665D02*
Y26886D01*
X13398D02*
X14854D01*
X13398Y25665D02*
Y26886D01*
Y25665D02*
X14854D01*
X14716Y27030D02*
Y27620D01*
X13535Y27030D02*
Y27620D01*
Y27030D02*
X14716D01*
X13535Y27620D02*
X14716D01*
X16636Y27045D02*
Y27646D01*
X15415Y27045D02*
Y27646D01*
Y27045D02*
X16636D01*
X15415Y27646D02*
X16636D01*
X15415Y26258D02*
Y26858D01*
X16636Y26258D02*
Y26858D01*
X15415D02*
X16636D01*
X15415Y26258D02*
X16636D01*
X14740Y24931D02*
Y25531D01*
X13520Y24931D02*
Y25531D01*
Y24931D02*
X14740D01*
X13520Y25531D02*
X14740D01*
X16636Y25470D02*
Y26071D01*
X15415Y25470D02*
Y26071D01*
Y25470D02*
X16636D01*
X15415Y26071D02*
X16636D01*
X5831Y28626D02*
Y29217D01*
X4650Y28626D02*
Y29217D01*
Y28626D02*
X5831D01*
X4650Y29217D02*
X5831D01*
X8854Y28626D02*
Y29217D01*
X7673Y28626D02*
Y29217D01*
Y28626D02*
X8854D01*
X7673Y29217D02*
X8854D01*
X19035Y34425D02*
Y35646D01*
X16673Y34425D02*
Y35646D01*
Y34425D02*
X19035D01*
X16673Y35646D02*
X19035D01*
X15488Y31996D02*
Y34201D01*
X20094Y31996D02*
Y34201D01*
X15488D02*
X20094D01*
X15488Y31996D02*
X20094D01*
X15661Y31362D02*
Y31963D01*
X16882Y31362D02*
Y31963D01*
X15661D02*
X16882D01*
X15661Y31362D02*
X16882D01*
X10562D02*
Y31963D01*
X11782Y31362D02*
Y31963D01*
X10562D02*
X11782D01*
X10562Y31362D02*
X11782D01*
X5304Y31996D02*
Y34201D01*
X9911Y31996D02*
Y34201D01*
X5304D02*
X9911D01*
X5304Y31996D02*
X9911D01*
X10396D02*
Y34201D01*
X15003Y31996D02*
Y34201D01*
X10396D02*
X15003D01*
X10396Y31996D02*
X15003D01*
X13923Y34425D02*
Y35646D01*
X11560Y34425D02*
Y35646D01*
Y34425D02*
X13923D01*
X11560Y35646D02*
X13923D01*
X213Y31996D02*
Y34201D01*
X4819Y31996D02*
Y34201D01*
X213D02*
X4819D01*
X213Y31996D02*
X4819D01*
X8810Y34425D02*
Y35646D01*
X6448Y34425D02*
Y35646D01*
Y34425D02*
X8810D01*
X6448Y35646D02*
X8810D01*
X5462Y31362D02*
Y31963D01*
X6682Y31362D02*
Y31963D01*
X5462D02*
X6682D01*
X5462Y31362D02*
X6682D01*
X3697Y34425D02*
Y35646D01*
X1335Y34425D02*
Y35646D01*
Y34425D02*
X3697D01*
X1335Y35646D02*
X3697D01*
X362Y31362D02*
Y31963D01*
X1583Y31362D02*
Y31963D01*
X362D02*
X1583D01*
X362Y31362D02*
X1583D01*
X27378Y43240D02*
X29583D01*
X27378Y38634D02*
X29583D01*
Y43240D01*
X27378Y38634D02*
Y43240D01*
X27823Y43264D02*
Y43864D01*
X29043Y43264D02*
Y43864D01*
X27823D02*
X29043D01*
X27823Y43264D02*
X29043D01*
X38602Y40823D02*
X39075D01*
X38602Y39760D02*
X39075D01*
Y40823D01*
X38602Y39760D02*
Y40823D01*
X37925Y39754D02*
Y40817D01*
X38398Y39754D02*
Y40817D01*
X37925Y39754D02*
X38398D01*
X37925Y40817D02*
X38398D01*
X30280Y36047D02*
X30880D01*
X30280Y34827D02*
X30880D01*
Y36047D01*
X30280Y34827D02*
Y36047D01*
X33886Y36305D02*
Y39238D01*
X31720Y36305D02*
X33886D01*
X31720D02*
Y39238D01*
X33886D01*
X30957Y40132D02*
X31557D01*
X30957Y38911D02*
X31557D01*
Y40132D01*
X30957Y38911D02*
Y40132D01*
X30972Y37543D02*
X31563D01*
X30972Y38724D02*
X31563D01*
X30972Y37543D02*
Y38724D01*
X31563Y37543D02*
Y38724D01*
X31010Y36142D02*
X31610D01*
X31010Y37362D02*
X31610D01*
X31010Y36142D02*
Y37362D01*
X31610Y36142D02*
Y37362D01*
X32630Y34858D02*
Y35449D01*
X33811Y34858D02*
Y35449D01*
X32630D02*
X33811D01*
X32630Y34858D02*
X33811D01*
X33582Y39508D02*
Y40256D01*
X32132Y39508D02*
Y40256D01*
Y39508D02*
X33582D01*
X32132Y40256D02*
X33582D01*
X27346Y34969D02*
Y35559D01*
X26165Y34969D02*
Y35559D01*
Y34969D02*
X27346D01*
X26165Y35559D02*
X27346D01*
X27526Y34965D02*
Y35565D01*
X28746Y34965D02*
Y35565D01*
X27526D02*
X28746D01*
X27526Y34965D02*
X28746D01*
M02*
