G04*
G04 #@! TF.GenerationSoftware,Altium Limited,Altium Designer,21.2.1 (34)*
G04*
G04 Layer_Physical_Order=1*
G04 Layer_Color=255*
%FSLAX24Y24*%
%MOIN*%
G70*
G04*
G04 #@! TF.SameCoordinates,093661B1-31BE-42CD-8BD9-57EC7F8E6B73*
G04*
G04*
G04 #@! TF.FilePolarity,Positive*
G04*
G01*
G75*
%ADD10C,0.0236*%
%ADD12C,0.0079*%
%ADD22R,0.0669X0.0906*%
%ADD23R,0.0756X0.2146*%
%ADD24R,0.0374X0.0394*%
%ADD25R,0.0591X0.0551*%
%ADD26R,0.1260X0.0394*%
%ADD27R,0.0354X0.0984*%
%ADD28R,0.0630X0.1181*%
%ADD29R,0.0394X0.0236*%
%ADD30R,0.0394X0.0374*%
%ADD31R,0.0354X0.0630*%
%ADD32R,0.3228X0.1024*%
%ADD33R,0.0394X0.0413*%
%ADD34O,0.0118X0.0709*%
%ADD35O,0.0709X0.0118*%
%ADD36R,0.0413X0.0394*%
%ADD37R,0.0579X0.0469*%
%ADD38O,0.0571X0.0177*%
%ADD39R,0.0453X0.0551*%
%ADD40R,0.0469X0.0579*%
%ADD41R,0.0748X0.0433*%
%ADD42R,0.0512X0.0236*%
%ADD43O,0.0571X0.0236*%
%ADD44R,0.0551X0.0472*%
%ADD45R,0.0472X0.0748*%
%ADD46R,0.0315X0.0118*%
%ADD47R,0.0787X0.0669*%
%ADD48R,0.0551X0.0591*%
%ADD49R,0.0315X0.0315*%
%ADD50R,0.0256X0.0600*%
%ADD51R,0.1220X0.1024*%
%ADD52R,0.0472X0.0551*%
%ADD90C,0.0118*%
%ADD91C,0.0394*%
%ADD92C,0.0157*%
%ADD93C,0.0197*%
%ADD94C,0.0709*%
G04:AMPARAMS|DCode=95|XSize=70.9mil|YSize=70.9mil|CornerRadius=17.7mil|HoleSize=0mil|Usage=FLASHONLY|Rotation=180.000|XOffset=0mil|YOffset=0mil|HoleType=Round|Shape=RoundedRectangle|*
%AMROUNDEDRECTD95*
21,1,0.0709,0.0354,0,0,180.0*
21,1,0.0354,0.0709,0,0,180.0*
1,1,0.0354,-0.0177,0.0177*
1,1,0.0354,0.0177,0.0177*
1,1,0.0354,0.0177,-0.0177*
1,1,0.0354,-0.0177,-0.0177*
%
%ADD95ROUNDEDRECTD95*%
%ADD96C,0.0827*%
G04:AMPARAMS|DCode=97|XSize=70.9mil|YSize=70.9mil|CornerRadius=17.7mil|HoleSize=0mil|Usage=FLASHONLY|Rotation=90.000|XOffset=0mil|YOffset=0mil|HoleType=Round|Shape=RoundedRectangle|*
%AMROUNDEDRECTD97*
21,1,0.0709,0.0354,0,0,90.0*
21,1,0.0354,0.0709,0,0,90.0*
1,1,0.0354,0.0177,0.0177*
1,1,0.0354,0.0177,-0.0177*
1,1,0.0354,-0.0177,-0.0177*
1,1,0.0354,-0.0177,0.0177*
%
%ADD97ROUNDEDRECTD97*%
%ADD98C,0.0630*%
G04:AMPARAMS|DCode=99|XSize=63mil|YSize=63mil|CornerRadius=15.7mil|HoleSize=0mil|Usage=FLASHONLY|Rotation=0.000|XOffset=0mil|YOffset=0mil|HoleType=Round|Shape=RoundedRectangle|*
%AMROUNDEDRECTD99*
21,1,0.0630,0.0315,0,0,0.0*
21,1,0.0315,0.0630,0,0,0.0*
1,1,0.0315,0.0157,-0.0157*
1,1,0.0315,-0.0157,-0.0157*
1,1,0.0315,-0.0157,0.0157*
1,1,0.0315,0.0157,0.0157*
%
%ADD99ROUNDEDRECTD99*%
%ADD100C,0.0236*%
%ADD101C,0.0394*%
G36*
X39159Y44900D02*
X39109Y44885D01*
X39082Y44925D01*
X39082Y44925D01*
X38898Y45109D01*
Y45201D01*
X38806D01*
X38779Y45228D01*
X38727Y45263D01*
X38665Y45275D01*
X38665Y45275D01*
X38082D01*
X37708Y45649D01*
Y46197D01*
X37703Y46222D01*
X37701Y46237D01*
Y46947D01*
X36630D01*
Y44486D01*
X37089D01*
X37134Y44477D01*
X37256Y44477D01*
X37627Y44107D01*
X38178Y43556D01*
Y43004D01*
X38190Y42942D01*
X38218Y42900D01*
X38207Y42865D01*
X38196Y42850D01*
X38063D01*
Y42925D01*
X37657D01*
X37642Y42928D01*
X36484Y42928D01*
X36484Y42928D01*
X36423Y42916D01*
X36371Y42881D01*
X36371Y42881D01*
X36272Y42783D01*
X34795D01*
X34362Y43216D01*
X34309Y43251D01*
X34248Y43263D01*
X34248Y43263D01*
X32461D01*
X32461Y43263D01*
X32425Y43256D01*
X32307D01*
Y43154D01*
X32296Y43098D01*
X32296Y43098D01*
Y42713D01*
X32296Y42713D01*
X32307Y42657D01*
Y42547D01*
X32449D01*
X32465Y42544D01*
X32465Y42544D01*
X33811D01*
X35024Y41331D01*
X35076Y41297D01*
X35138Y41284D01*
X35138Y41284D01*
X35201D01*
Y41283D01*
X36142D01*
X36174Y41245D01*
X36118Y41189D01*
X36074Y41124D01*
X36059Y41047D01*
Y40914D01*
X36031Y40877D01*
X35976Y40866D01*
X35925D01*
Y40835D01*
X35918Y40830D01*
X35918Y40830D01*
X35831Y40743D01*
X35797Y40691D01*
X35784Y40630D01*
X35784Y40630D01*
Y39011D01*
X35300Y38528D01*
X34191D01*
X34172Y38574D01*
X34268Y38669D01*
X35063D01*
X35335Y38941D01*
Y40701D01*
X35259Y40701D01*
X35260Y40699D01*
Y38985D01*
X35008Y38732D01*
X34228D01*
X34024Y38528D01*
Y37189D01*
X37567D01*
Y38138D01*
X37570Y38154D01*
X37570Y38154D01*
Y38350D01*
X37570Y38350D01*
X37567Y38366D01*
Y38528D01*
X37459D01*
X37401Y38586D01*
X37349Y38621D01*
X37287Y38633D01*
X37287Y38633D01*
X37129D01*
X36739Y39023D01*
Y39347D01*
X36953D01*
X38056Y38245D01*
Y34791D01*
X34281D01*
X34266Y34841D01*
X34275Y34847D01*
X34275Y34847D01*
X34412Y34984D01*
X37567D01*
Y36323D01*
X34113D01*
X34062Y36374D01*
Y36823D01*
X34062Y36823D01*
X34050Y36884D01*
X34015Y36936D01*
X33839Y37113D01*
Y37162D01*
X33735D01*
X33720Y37164D01*
X33720Y37164D01*
X33425D01*
X33411Y37162D01*
X31768D01*
Y36921D01*
X31618D01*
X31541Y36906D01*
X31476Y36862D01*
X31385Y36772D01*
X30961D01*
Y36087D01*
X30941D01*
Y35496D01*
X30291D01*
Y41202D01*
X30768Y41678D01*
X32367D01*
X32461Y41583D01*
X32513Y41549D01*
X32575Y41536D01*
X32575Y41536D01*
X32823D01*
X33028Y41332D01*
Y40713D01*
X33025Y40477D01*
X32906Y40358D01*
X32875Y40311D01*
X32862D01*
Y40260D01*
X32859Y40244D01*
X32859Y40244D01*
X32859Y39539D01*
X32812Y39491D01*
X32777Y39439D01*
X32765Y39378D01*
X32765Y39378D01*
Y39297D01*
X32254D01*
Y39437D01*
X32239Y39514D01*
X32195Y39579D01*
X31786Y39988D01*
X31721Y40032D01*
X31644Y40047D01*
X31606D01*
Y40191D01*
X30898D01*
Y39502D01*
Y38852D01*
X31051D01*
Y38793D01*
X30913D01*
Y38065D01*
X31481D01*
X31496Y38039D01*
X31547Y37988D01*
X31610Y37952D01*
X31680Y37933D01*
X31753D01*
X31823Y37952D01*
X31886Y37988D01*
X31937Y38039D01*
X31973Y38102D01*
X31992Y38172D01*
Y38245D01*
X31973Y38315D01*
X31964Y38332D01*
X31993Y38382D01*
X32884D01*
X32887Y38379D01*
X32949Y38367D01*
X32949Y38367D01*
X33181D01*
X33243Y38379D01*
X33246Y38382D01*
X33295D01*
X33339Y38425D01*
Y38512D01*
X33342Y38528D01*
X33342Y39162D01*
X33424Y39244D01*
X33453Y39232D01*
Y39232D01*
X34083D01*
X34559Y39709D01*
X34559Y40545D01*
X34669Y40655D01*
X34677Y40663D01*
X34755Y40663D01*
X34755Y40663D01*
X34799Y40705D01*
X34775Y40705D01*
X34657Y40705D01*
X34657D01*
X34646Y40705D01*
X34500Y40559D01*
Y39736D01*
X34051Y39287D01*
X33533D01*
X33513Y39334D01*
X33610Y39430D01*
X33610Y39430D01*
X33620Y39445D01*
X33650D01*
Y39508D01*
X33657Y39543D01*
X33657Y39543D01*
X33657Y40166D01*
X33838Y40347D01*
X33873Y40399D01*
X33885Y40461D01*
X33885Y40461D01*
Y41858D01*
X33885Y41858D01*
X33882Y41874D01*
Y42390D01*
X33118D01*
X33094Y42393D01*
X30768D01*
Y47033D01*
X39159D01*
Y44900D01*
D02*
G37*
G36*
X37547Y46197D02*
Y45583D01*
X38016Y45114D01*
X38665D01*
X38969Y44811D01*
Y42992D01*
X38874Y42898D01*
X38445D01*
X38339Y43004D01*
Y43622D01*
X37740Y44220D01*
X37323Y44638D01*
X37134Y44638D01*
Y46157D01*
X37197Y46220D01*
X37547Y46197D01*
D02*
G37*
G36*
X34728Y42622D02*
X36339D01*
X36484Y42768D01*
X37642Y42768D01*
X37646Y42531D01*
X37504D01*
X37402Y42429D01*
X36976Y42429D01*
X35992Y41445D01*
X35876Y41445D01*
X35138D01*
X33878Y42705D01*
X32465D01*
X32457Y42713D01*
Y43098D01*
X32461Y43102D01*
X34248D01*
X34728Y42622D01*
D02*
G37*
G36*
X30441Y42110D02*
Y41941D01*
X30413Y41913D01*
X29752D01*
X29697Y41969D01*
Y42106D01*
X29744Y42154D01*
X29768D01*
X29814Y42155D01*
X30397D01*
X30441Y42110D01*
D02*
G37*
G36*
X33724Y40461D02*
X33496Y40232D01*
X33496Y39543D01*
X33181Y39228D01*
X33181Y38528D01*
X32949D01*
X32925Y38551D01*
Y39378D01*
X33020Y39472D01*
X33020Y40244D01*
X33185Y40409D01*
X33189Y40795D01*
Y41398D01*
X32890Y41697D01*
X32575D01*
X32469Y41803D01*
Y41854D01*
X33720D01*
X33724Y41858D01*
Y40461D01*
D02*
G37*
G36*
X30055Y35350D02*
X30226D01*
X30230Y35348D01*
X30291Y35336D01*
X30779D01*
X30780Y35335D01*
Y34000D01*
X38233D01*
Y33836D01*
X37813Y33416D01*
X28728D01*
X28646Y33405D01*
X28570Y33374D01*
X28504Y33323D01*
X27388Y32207D01*
X25729D01*
X25725Y32211D01*
X25706Y32219D01*
X25684Y32233D01*
X25658Y32238D01*
X25638Y32247D01*
X25544D01*
X25534Y32242D01*
X25385D01*
X25375Y32247D01*
X25281D01*
X25271Y32242D01*
X25121D01*
X25111Y32247D01*
X25017D01*
X25007Y32242D01*
X25000D01*
X25000Y32242D01*
X24954Y32233D01*
X24915Y32207D01*
X24915Y32207D01*
X24836Y32128D01*
X24810Y32089D01*
X24801Y32043D01*
X24801Y32043D01*
X24801Y31720D01*
X24810Y31674D01*
X24810Y31674D01*
X24810Y31674D01*
X24820Y31660D01*
X24836Y31635D01*
X24836Y31635D01*
X24915Y31557D01*
X24954Y31530D01*
X25000Y31521D01*
X25000Y31521D01*
X25662D01*
X25708Y31530D01*
X25747Y31557D01*
X25763Y31572D01*
X27519D01*
X27601Y31582D01*
X27678Y31614D01*
X27744Y31665D01*
X28837Y32758D01*
X28887Y32738D01*
X28887Y32232D01*
X28892Y32211D01*
X28897Y32186D01*
X28897Y32186D01*
X28897Y32186D01*
X28910Y32167D01*
X28923Y32147D01*
X28923Y32147D01*
X28923Y32147D01*
X28923Y32147D01*
X28982Y32088D01*
X28982Y32088D01*
X28982Y32088D01*
X29003Y32074D01*
X29021Y32062D01*
X29021Y32062D01*
X29021Y32062D01*
X29041Y32058D01*
X29067Y32053D01*
X29067Y32053D01*
X29067Y32053D01*
X29197Y32053D01*
X29197Y32053D01*
X29243Y32062D01*
X29243Y32062D01*
X29282Y32088D01*
X29323Y32129D01*
X29373Y32108D01*
Y31965D01*
X29228D01*
Y31335D01*
X29572D01*
X29591Y31288D01*
X29523Y31220D01*
X25245D01*
X25245Y31220D01*
X25184Y31208D01*
X25131Y31173D01*
X25131Y31173D01*
X24742Y30783D01*
X24717Y30786D01*
X24528Y30975D01*
Y35533D01*
X26552Y37557D01*
X28164D01*
X28164Y37557D01*
X28226Y37569D01*
X28278Y37604D01*
X28670Y37996D01*
X29063D01*
Y38322D01*
X29094Y38353D01*
X29129Y38405D01*
X29141Y38467D01*
X29141Y38467D01*
Y38732D01*
X29394D01*
Y39520D01*
X28567D01*
Y38732D01*
X28820D01*
Y38626D01*
X28463D01*
X28453Y38626D01*
Y38626D01*
X28413D01*
Y38626D01*
X27803D01*
Y38547D01*
X27740D01*
X27654Y38511D01*
X27587Y38445D01*
X27551Y38358D01*
Y38264D01*
X27587Y38177D01*
X27654Y38111D01*
X27740Y38075D01*
X27803D01*
Y37996D01*
X28151D01*
X28170Y37950D01*
X28098Y37878D01*
X26485D01*
X26452Y37871D01*
X26427Y37918D01*
X26506Y37996D01*
X26899D01*
Y38626D01*
X26866D01*
X26847Y38672D01*
X26869Y38695D01*
X26869Y38695D01*
X26895Y38732D01*
X27169D01*
Y39520D01*
X26343D01*
Y38732D01*
X26407D01*
X26417Y38722D01*
X26435Y38692D01*
X26420Y38640D01*
X26391Y38626D01*
X26299D01*
X26289Y38626D01*
Y38626D01*
X26249D01*
Y38626D01*
X25639D01*
Y38547D01*
X25595D01*
X25508Y38511D01*
X25441Y38445D01*
X25406Y38358D01*
Y38264D01*
X25441Y38177D01*
X25508Y38111D01*
X25595Y38075D01*
X25639D01*
Y37996D01*
X25986D01*
X26006Y37950D01*
X24220Y36164D01*
X24173Y36183D01*
Y37190D01*
X24467Y37484D01*
X24467Y37484D01*
X24501Y37536D01*
X24514Y37597D01*
Y37996D01*
X24658D01*
Y38405D01*
X24680Y38438D01*
X24692Y38499D01*
X24692Y38499D01*
Y38732D01*
X24945D01*
Y39520D01*
X24118D01*
Y38732D01*
X24371D01*
Y38626D01*
X24059D01*
X24048Y38626D01*
X24009D01*
X23998Y38626D01*
X23398D01*
Y38547D01*
X23347D01*
X23260Y38511D01*
X23193Y38445D01*
X23157Y38358D01*
Y38264D01*
X23193Y38177D01*
X23260Y38111D01*
X23347Y38075D01*
X23398D01*
Y37996D01*
X23998D01*
X24009Y37996D01*
X24048D01*
X24059Y37996D01*
X24192D01*
Y37664D01*
X23899Y37370D01*
X23864Y37318D01*
X23853Y37260D01*
X23834Y37248D01*
X23806Y37236D01*
X22822Y38220D01*
X22770Y38255D01*
X22709Y38267D01*
X22709Y38267D01*
X22417D01*
Y38399D01*
X22421Y38402D01*
X22421Y38402D01*
X22455Y38454D01*
X22468Y38516D01*
Y38732D01*
X22720D01*
Y39520D01*
X21894D01*
Y38732D01*
X22147D01*
Y38626D01*
X21807D01*
X21807Y38626D01*
X21768D01*
Y38626D01*
X21757Y38626D01*
X21433D01*
Y40346D01*
X30055D01*
Y35350D01*
D02*
G37*
G36*
X33181Y35587D02*
X33130Y35535D01*
Y35177D01*
X33122Y35185D01*
X32720D01*
Y35638D01*
X32925Y35843D01*
Y36602D01*
X33181D01*
Y35587D01*
D02*
G37*
G36*
X33902Y36823D02*
Y36307D01*
X34047Y36161D01*
X34894D01*
X34874Y36142D01*
Y35146D01*
X34346D01*
X34161Y34961D01*
X33307D01*
X33311Y34965D01*
Y35468D01*
X33425Y35583D01*
Y37004D01*
X33720D01*
X33902Y36823D01*
D02*
G37*
G36*
X18325Y35528D02*
X18032D01*
Y34543D01*
X18325D01*
Y34378D01*
X15043D01*
Y32008D01*
X13902D01*
Y33384D01*
X14077D01*
Y33146D01*
X14944D01*
Y34051D01*
X14077D01*
Y33900D01*
X13902D01*
Y34240D01*
X13728D01*
Y34543D01*
X14021D01*
Y35528D01*
X13728D01*
Y35614D01*
X16868D01*
Y35528D01*
X16575D01*
Y35405D01*
X16555Y35390D01*
X16461D01*
X16371Y35366D01*
X16290Y35319D01*
X16224Y35253D01*
X16178Y35172D01*
X16154Y35082D01*
Y34989D01*
X16178Y34899D01*
X16224Y34818D01*
X16290Y34752D01*
X16371Y34705D01*
X16461Y34681D01*
X16555D01*
X16575Y34666D01*
Y34543D01*
X17677D01*
Y35528D01*
X17384D01*
Y35614D01*
X18325D01*
Y35528D01*
D02*
G37*
G36*
X13212D02*
X12919D01*
Y34543D01*
X13212D01*
Y34240D01*
X10146D01*
Y31913D01*
X8854D01*
Y33391D01*
X8986D01*
Y33146D01*
X9852D01*
Y34051D01*
X8986D01*
Y33908D01*
X8854D01*
Y34354D01*
X8615D01*
Y34543D01*
X8908D01*
Y35528D01*
X8615D01*
Y35614D01*
X11755D01*
Y35528D01*
X11462D01*
Y35390D01*
X11398D01*
X11308Y35366D01*
X11227Y35319D01*
X11161Y35253D01*
X11115Y35172D01*
X11091Y35082D01*
Y34989D01*
X11115Y34899D01*
X11161Y34818D01*
X11227Y34752D01*
X11308Y34705D01*
X11398Y34681D01*
X11462D01*
Y34543D01*
X12564D01*
Y35528D01*
X12271D01*
Y35614D01*
X13212D01*
Y35528D01*
D02*
G37*
G36*
X8099D02*
X7806D01*
Y34543D01*
X8099D01*
Y34354D01*
X4878D01*
Y32071D01*
X3713D01*
Y33340D01*
X3894D01*
Y33146D01*
X4760D01*
Y34051D01*
X3894D01*
Y33857D01*
X3713D01*
Y34091D01*
X3502D01*
Y34543D01*
X3795D01*
Y35528D01*
X3490D01*
Y35614D01*
X6642D01*
Y35528D01*
X6349D01*
Y35395D01*
X6342Y35390D01*
X6249D01*
X6159Y35366D01*
X6078Y35319D01*
X6012Y35253D01*
X5965Y35172D01*
X5941Y35082D01*
Y34989D01*
X5965Y34899D01*
X6012Y34818D01*
X6078Y34752D01*
X6159Y34705D01*
X6249Y34681D01*
X6342D01*
X6349Y34676D01*
Y34543D01*
X7451D01*
Y35528D01*
X7158D01*
Y35614D01*
X8099D01*
Y35528D01*
D02*
G37*
G36*
X37811Y41492D02*
Y40843D01*
X37846D01*
Y40276D01*
X38476D01*
X38476Y40276D01*
Y40276D01*
X38524Y40281D01*
Y40282D01*
X39154D01*
X39159Y40234D01*
Y34505D01*
X39093Y34439D01*
X39046Y34458D01*
X39046Y38642D01*
X39046Y38642D01*
X39034Y38703D01*
X38999Y38755D01*
X38999Y38755D01*
X36925Y40830D01*
X36925Y40830D01*
X36872Y40865D01*
X36811Y40877D01*
X36811Y40877D01*
X36461D01*
Y40964D01*
X37132Y41636D01*
X37811D01*
Y41492D01*
D02*
G37*
G36*
X36811Y40717D02*
X38886Y38642D01*
X38886Y34366D01*
X38748Y34228D01*
Y34059D01*
X38354D01*
Y34220D01*
X38217Y34358D01*
Y38311D01*
X37020Y39508D01*
X36665D01*
X36579Y39421D01*
Y38957D01*
X37063Y38472D01*
X37287D01*
X37409Y38350D01*
Y38154D01*
X37402Y38146D01*
X37398Y38150D01*
X35248D01*
Y38248D01*
X35945Y38945D01*
Y40630D01*
X36031Y40717D01*
X36811Y40717D01*
D02*
G37*
G36*
X29638Y42346D02*
X29636Y42345D01*
X29562Y42288D01*
X29505Y42214D01*
X29470Y42128D01*
X29458Y42035D01*
X29470Y41943D01*
X29489Y41896D01*
X29456Y41846D01*
X21150D01*
Y39559D01*
X20854D01*
Y38693D01*
X21080D01*
X21118Y38665D01*
Y37957D01*
X21150D01*
Y32322D01*
X19043D01*
Y33368D01*
X19169D01*
Y33146D01*
X20035D01*
Y34051D01*
X19169D01*
Y33884D01*
X19043D01*
Y34378D01*
X18841D01*
Y34543D01*
X19134D01*
Y35528D01*
X18841D01*
Y35614D01*
X20500D01*
Y47033D01*
X29638D01*
Y42346D01*
D02*
G37*
G36*
X29256Y32870D02*
Y32232D01*
X29197Y32173D01*
X29067Y32173D01*
X29008Y32232D01*
X29008Y32862D01*
X28949Y32921D01*
X29307D01*
X29256Y32870D01*
D02*
G37*
G36*
X16824Y33280D02*
Y32112D01*
X16684Y31972D01*
X16291D01*
Y31972D01*
X16252D01*
Y31972D01*
X15677D01*
X15677Y33185D01*
X16374D01*
Y33438D01*
X16666D01*
X16824Y33280D01*
D02*
G37*
G36*
X25709Y32051D02*
X25709Y31717D01*
Y31688D01*
X25662Y31642D01*
X25000D01*
X24935Y31707D01*
X24921Y31720D01*
X24921Y31996D01*
Y32043D01*
X25000Y32122D01*
X25638D01*
X25709Y32051D01*
D02*
G37*
G36*
X21768Y37701D02*
X21768Y37701D01*
X21820Y37667D01*
X21882Y37654D01*
X21882Y37654D01*
X22059D01*
X22098Y37615D01*
X22185Y37579D01*
X22279D01*
X22366Y37615D01*
X22433Y37681D01*
X22469Y37768D01*
Y37862D01*
X22451Y37904D01*
X22479Y37946D01*
X22642D01*
X23655Y36933D01*
Y30601D01*
X23619Y30571D01*
X23550Y30557D01*
X23521Y30538D01*
X23491Y30557D01*
X23422Y30571D01*
X23417Y30570D01*
X23378Y30602D01*
Y30882D01*
X23603D01*
Y31493D01*
X22973D01*
Y31283D01*
X22891D01*
Y31506D01*
X22891D01*
Y31546D01*
X22891D01*
Y32156D01*
X22827D01*
X22799Y32198D01*
X22815Y32236D01*
Y32330D01*
X22779Y32417D01*
X22713Y32484D01*
X22626Y32520D01*
X22532D01*
X22445Y32484D01*
X22378Y32417D01*
X22343Y32330D01*
Y32236D01*
X22359Y32198D01*
X22331Y32156D01*
X22261D01*
Y31588D01*
X22261Y31581D01*
X22245Y31581D01*
X21654D01*
Y31589D01*
X21201D01*
X21189Y31592D01*
X21145D01*
X21118Y31610D01*
X21072Y31619D01*
X21072Y31619D01*
X20941D01*
X20895Y31610D01*
X20856Y31584D01*
X20856Y31584D01*
X20786Y31514D01*
X20760Y31475D01*
X20751Y31429D01*
X20751Y31429D01*
Y31081D01*
X20751Y31080D01*
X20760Y31034D01*
X20786Y30995D01*
X20857Y30924D01*
X20896Y30898D01*
X20942Y30889D01*
X20942Y30889D01*
X21045D01*
X21068Y30893D01*
X21091Y30898D01*
X21091Y30898D01*
X21091Y30898D01*
X21101Y30904D01*
X21130Y30895D01*
X21151Y30878D01*
Y30611D01*
X21165Y30542D01*
X21204Y30483D01*
X21549Y30138D01*
Y29567D01*
X21434D01*
X21404Y29561D01*
X21365Y29593D01*
Y29934D01*
X20728Y30571D01*
X18324D01*
X18231Y30478D01*
X18231Y30009D01*
X17928Y29706D01*
X17886Y29734D01*
X17908Y29787D01*
X17917Y29833D01*
Y29880D01*
X17917Y29880D01*
X17917Y30277D01*
X17908Y30323D01*
X17891Y30364D01*
X17865Y30403D01*
X17833Y30434D01*
X17794Y30460D01*
X17753Y30477D01*
X17707Y30487D01*
X17685D01*
X17685Y30487D01*
X17394D01*
X17348Y30477D01*
X17312Y30462D01*
X17272Y30436D01*
X17245Y30409D01*
X17219Y30370D01*
X17204Y30333D01*
X17195Y30287D01*
Y30215D01*
X14200D01*
X13632Y30782D01*
X13561Y30830D01*
X13476Y30847D01*
X2496D01*
X2412Y30830D01*
X2340Y30782D01*
X2163Y30605D01*
X2115Y30533D01*
X2098Y30449D01*
Y30343D01*
X1906D01*
Y29484D01*
X171D01*
Y33685D01*
X311D01*
Y33185D01*
X1098D01*
Y33438D01*
X1170D01*
X1465Y33142D01*
Y32053D01*
X1385Y31972D01*
X1003D01*
X992Y31972D01*
X953D01*
X942Y31972D01*
X343D01*
Y31343D01*
X413D01*
Y31291D01*
X449Y31204D01*
X516Y31138D01*
X603Y31102D01*
X697D01*
X783Y31138D01*
X850Y31204D01*
X886Y31291D01*
Y31343D01*
X942D01*
X953Y31343D01*
X992D01*
X1003Y31343D01*
X1602D01*
Y31736D01*
X1740Y31873D01*
X1740Y31873D01*
X1774Y31925D01*
X1787Y31986D01*
X1787Y31986D01*
Y33209D01*
X1774Y33270D01*
X1740Y33322D01*
X1423Y33639D01*
X1442Y33685D01*
X2453D01*
Y31437D01*
X5354D01*
Y33182D01*
X5403Y33185D01*
Y33185D01*
X6190D01*
Y33438D01*
X6331D01*
X6623Y33146D01*
Y32110D01*
X6485Y31972D01*
X6102D01*
X6092Y31972D01*
X6052D01*
X6042Y31972D01*
X5442D01*
Y31343D01*
X5512D01*
Y31292D01*
X5548Y31205D01*
X5614Y31138D01*
X5701Y31102D01*
X5795D01*
X5882Y31138D01*
X5948Y31205D01*
X5984Y31292D01*
Y31343D01*
X6042D01*
X6052Y31343D01*
X6092D01*
X6102Y31343D01*
X6702D01*
Y31736D01*
X6897Y31930D01*
X6907Y31945D01*
X6957Y31930D01*
Y31437D01*
X10445D01*
Y33185D01*
X10495Y33185D01*
Y33185D01*
X11282D01*
Y33434D01*
X11548D01*
X11706Y33276D01*
Y32093D01*
X11585Y31972D01*
X11202D01*
X11192Y31972D01*
X11152D01*
X11142Y31972D01*
X10542D01*
Y31343D01*
X10611D01*
Y31291D01*
X10647Y31204D01*
X10713Y31138D01*
X10800Y31102D01*
X10894D01*
X10981Y31138D01*
X11047Y31204D01*
X11083Y31291D01*
Y31343D01*
X11142D01*
X11152Y31343D01*
X11192D01*
X11202Y31343D01*
X11802D01*
Y31736D01*
X11980Y31913D01*
X11980Y31913D01*
X12014Y31965D01*
X12027Y32027D01*
Y33343D01*
X12027Y33343D01*
X12014Y33404D01*
X11980Y33456D01*
X11728Y33708D01*
X11696Y33730D01*
X11711Y33780D01*
X12567D01*
X12567Y31437D01*
X15642Y31437D01*
Y31343D01*
X15710D01*
Y31288D01*
X15746Y31202D01*
X15813Y31135D01*
X15900Y31099D01*
X15994D01*
X16081Y31135D01*
X16147Y31202D01*
X16183Y31288D01*
Y31343D01*
X16252D01*
Y31343D01*
X16291D01*
Y31343D01*
X16902D01*
Y31736D01*
X17098Y31932D01*
X17098Y31932D01*
X17133Y31984D01*
X17145Y32045D01*
X17145Y32045D01*
Y33346D01*
X17145Y33346D01*
X17133Y33408D01*
X17098Y33460D01*
X17098Y33460D01*
X16846Y33712D01*
X16820Y33730D01*
X16835Y33780D01*
X17520D01*
X17520Y31437D01*
X20050Y31437D01*
X20685Y32072D01*
X21150D01*
X21433Y32372D01*
X21433Y37973D01*
X21483Y37987D01*
X21768Y37701D01*
D02*
G37*
G36*
X39199Y23793D02*
X27808D01*
X27795Y23843D01*
X27841Y23870D01*
X27921Y23951D01*
X27978Y24049D01*
X28008Y24160D01*
Y24274D01*
X27978Y24384D01*
X27921Y24482D01*
X27897Y24506D01*
X27917Y24553D01*
X28040D01*
X28040Y24553D01*
X28101Y24565D01*
X28153Y24600D01*
X28285Y24731D01*
X28503D01*
X29233Y24001D01*
X29233Y24001D01*
X29285Y23966D01*
X29346Y23954D01*
X31374D01*
X31374Y23954D01*
X31435Y23966D01*
X31488Y24001D01*
X31637Y24150D01*
X31637Y24150D01*
X31672Y24202D01*
X31684Y24264D01*
X31684Y24264D01*
Y24846D01*
X31672Y24908D01*
X31637Y24960D01*
X31637Y24960D01*
X31373Y25224D01*
X31321Y25259D01*
X31300Y25263D01*
X31288Y25281D01*
X31210Y25333D01*
X31200Y25335D01*
Y25386D01*
X31210Y25388D01*
X31288Y25440D01*
X31341Y25518D01*
X31359Y25611D01*
X31341Y25703D01*
X31288Y25781D01*
X31210Y25833D01*
X31200Y25835D01*
Y25886D01*
X31210Y25888D01*
X31288Y25940D01*
X31341Y26018D01*
X31359Y26111D01*
X31341Y26203D01*
X31288Y26281D01*
X31210Y26333D01*
X31118Y26351D01*
X30783D01*
X30691Y26333D01*
X30613Y26281D01*
X30607Y26271D01*
X30488D01*
Y26398D01*
X29889D01*
X29878Y26398D01*
Y26398D01*
X29839D01*
Y26398D01*
X29694D01*
Y26461D01*
X32335D01*
X32335Y26461D01*
X32396Y26474D01*
X32448Y26509D01*
X32469Y26529D01*
X32480Y26527D01*
X32673D01*
X32743Y26541D01*
X32793Y26508D01*
Y26453D01*
X32914D01*
Y26349D01*
X32837Y26333D01*
X32759Y26281D01*
X32707Y26203D01*
X32688Y26111D01*
X32707Y26018D01*
X32759Y25940D01*
X32837Y25888D01*
X32847Y25886D01*
Y25835D01*
X32837Y25833D01*
X32759Y25781D01*
X32707Y25703D01*
X32688Y25611D01*
X32707Y25518D01*
X32759Y25440D01*
X32837Y25388D01*
X32847Y25386D01*
Y25335D01*
X32837Y25333D01*
X32759Y25281D01*
X32707Y25203D01*
X32688Y25111D01*
X32707Y25018D01*
X32759Y24940D01*
X32837Y24888D01*
X32929Y24870D01*
X33264D01*
X33356Y24888D01*
X33434Y24940D01*
X33486Y25018D01*
X33497Y25071D01*
X33811D01*
Y24618D01*
X34598D01*
Y25076D01*
X34668D01*
X34780Y24965D01*
Y24748D01*
X35528D01*
Y24804D01*
X36245D01*
X36314Y24817D01*
X36372Y24857D01*
X36592Y25076D01*
X37142D01*
X37318Y24900D01*
X37312Y24854D01*
Y24500D01*
X37323Y24423D01*
X37352Y24351D01*
X37400Y24289D01*
X37461Y24242D01*
X37533Y24212D01*
X37610Y24202D01*
X37965D01*
X38042Y24212D01*
X38113Y24242D01*
X38175Y24289D01*
X38222Y24351D01*
X38252Y24423D01*
X38262Y24500D01*
Y24854D01*
X38252Y24931D01*
X38222Y25003D01*
X38175Y25065D01*
X38113Y25112D01*
X38042Y25142D01*
X37965Y25152D01*
X37610D01*
X37581Y25148D01*
X37363Y25366D01*
X37610Y25613D01*
X37725Y25583D01*
X37850D01*
X37970Y25615D01*
X38077Y25677D01*
X38165Y25765D01*
X38228Y25873D01*
X38260Y25993D01*
Y26117D01*
X38228Y26237D01*
X38165Y26345D01*
X38077Y26433D01*
X37970Y26495D01*
X37850Y26528D01*
X37725D01*
X37605Y26495D01*
X37497Y26433D01*
X37409Y26345D01*
X37347Y26237D01*
X37315Y26117D01*
Y25993D01*
X37347Y25873D01*
X37351Y25865D01*
X37142Y25656D01*
X36607D01*
X36403Y25860D01*
X36345Y25899D01*
X36276Y25913D01*
X35528D01*
Y25969D01*
X34780D01*
Y25752D01*
X34684Y25656D01*
X34598D01*
Y26114D01*
X33811D01*
Y25661D01*
X33800Y25650D01*
X33497D01*
X33486Y25703D01*
X33434Y25781D01*
X33356Y25833D01*
X33346Y25835D01*
Y25886D01*
X33356Y25888D01*
X33434Y25940D01*
X33486Y26018D01*
X33505Y26111D01*
X33486Y26203D01*
X33434Y26281D01*
X33356Y26333D01*
X33316Y26341D01*
Y26453D01*
X33443D01*
Y27083D01*
X32793D01*
Y27058D01*
X32743Y27028D01*
X32721Y27040D01*
Y27729D01*
X32771Y27747D01*
X32837Y27703D01*
X32929Y27685D01*
X33264D01*
X33356Y27703D01*
X33434Y27756D01*
X33486Y27834D01*
X33497Y27886D01*
X33811D01*
Y27437D01*
X34598D01*
Y27895D01*
X34709D01*
X34780Y27825D01*
Y27579D01*
X35528D01*
Y27634D01*
X36268D01*
X36337Y27648D01*
X36395Y27687D01*
X36607Y27899D01*
X37114D01*
X37321Y27693D01*
X37312Y27630D01*
Y27276D01*
X37323Y27199D01*
X37352Y27127D01*
X37400Y27065D01*
X37461Y27018D01*
X37533Y26988D01*
X37610Y26978D01*
X37965D01*
X38042Y26988D01*
X38113Y27018D01*
X38175Y27065D01*
X38222Y27127D01*
X38252Y27199D01*
X38262Y27276D01*
Y27630D01*
X38252Y27707D01*
X38222Y27779D01*
X38175Y27841D01*
X38113Y27888D01*
X38042Y27918D01*
X37965Y27928D01*
X37610D01*
X37598Y27926D01*
X37398Y28127D01*
X37404Y28191D01*
X37603Y28391D01*
X37605Y28390D01*
X37725Y28358D01*
X37850D01*
X37970Y28390D01*
X38077Y28453D01*
X38165Y28541D01*
X38228Y28648D01*
X38260Y28769D01*
Y28893D01*
X38228Y29013D01*
X38165Y29121D01*
X38077Y29209D01*
X37970Y29271D01*
X37850Y29303D01*
X37725D01*
X37605Y29271D01*
X37497Y29209D01*
X37409Y29121D01*
X37347Y29013D01*
X37315Y28893D01*
Y28769D01*
X37347Y28648D01*
X37348Y28647D01*
X37180Y28479D01*
X36606D01*
X36394Y28691D01*
X36336Y28730D01*
X36267Y28744D01*
X35528D01*
Y28799D01*
X34780D01*
Y28527D01*
X34727Y28475D01*
X34598D01*
Y28933D01*
X33811D01*
Y28468D01*
X33731D01*
X33718Y28466D01*
X33497D01*
X33486Y28518D01*
X33434Y28596D01*
X33356Y28649D01*
X33346Y28650D01*
Y28701D01*
X33356Y28703D01*
X33434Y28756D01*
X33486Y28834D01*
X33505Y28926D01*
X33486Y29018D01*
X33434Y29096D01*
X33356Y29148D01*
X33316Y29156D01*
Y29217D01*
X33443D01*
Y29846D01*
X32793D01*
Y29732D01*
X32721D01*
Y30443D01*
X32771Y30464D01*
X32833Y30423D01*
X32925Y30405D01*
X33260D01*
X33352Y30423D01*
X33430Y30475D01*
X33482Y30554D01*
X33493Y30606D01*
X33808D01*
X33811Y30603D01*
Y30150D01*
X34598D01*
Y30608D01*
X34652D01*
X34776Y30485D01*
Y30268D01*
X35524D01*
Y30323D01*
X36333D01*
X36403Y30337D01*
X36461Y30376D01*
X36673Y30588D01*
X37124D01*
X37308Y30404D01*
Y30075D01*
X37319Y29998D01*
X37348Y29926D01*
X37396Y29864D01*
X37457Y29817D01*
X37529Y29787D01*
X37606Y29777D01*
X37961D01*
X38038Y29787D01*
X38110Y29817D01*
X38171Y29864D01*
X38219Y29926D01*
X38248Y29998D01*
X38258Y30075D01*
Y30429D01*
X38248Y30506D01*
X38219Y30578D01*
X38171Y30640D01*
X38110Y30687D01*
X38038Y30717D01*
X37961Y30727D01*
X37606D01*
X37529Y30717D01*
X37513Y30710D01*
X37343Y30880D01*
X37641Y31179D01*
X37721Y31157D01*
X37846D01*
X37966Y31190D01*
X38074Y31252D01*
X38162Y31340D01*
X38224Y31448D01*
X38256Y31568D01*
Y31692D01*
X38224Y31812D01*
X38162Y31920D01*
X38074Y32008D01*
X37966Y32070D01*
X37846Y32102D01*
X37721D01*
X37601Y32070D01*
X37493Y32008D01*
X37405Y31920D01*
X37343Y31812D01*
X37311Y31692D01*
Y31568D01*
X37343Y31448D01*
X37364Y31412D01*
X37119Y31168D01*
X36673D01*
X36461Y31380D01*
X36403Y31419D01*
X36333Y31433D01*
X35524D01*
Y31488D01*
X34776D01*
Y31271D01*
X34692Y31187D01*
X34598D01*
Y31646D01*
X33811D01*
Y31192D01*
X33804Y31185D01*
X33493D01*
X33482Y31238D01*
X33430Y31316D01*
X33352Y31368D01*
X33342Y31370D01*
Y31421D01*
X33352Y31423D01*
X33430Y31475D01*
X33482Y31553D01*
X33501Y31646D01*
X33482Y31738D01*
X33430Y31816D01*
X33352Y31868D01*
X33331Y31872D01*
Y31965D01*
X33443D01*
Y32594D01*
X32793D01*
Y32480D01*
X32721D01*
Y32781D01*
X37945D01*
X38027Y32792D01*
X38104Y32823D01*
X38170Y32874D01*
X38776Y33480D01*
X38826Y33546D01*
X38858Y33623D01*
X38869Y33705D01*
Y34000D01*
X39199D01*
Y23793D01*
D02*
G37*
G36*
X21099Y31471D02*
X21189D01*
X21189Y31059D01*
X21096D01*
X21045Y31009D01*
X20942D01*
X20871Y31080D01*
Y31429D01*
X20941Y31499D01*
X21072D01*
X21099Y31471D01*
D02*
G37*
G36*
X36452Y30878D02*
X36259Y30685D01*
X35524D01*
Y30740D01*
X35031D01*
X34945Y30826D01*
X34939Y30858D01*
X34912Y30897D01*
X35031Y31016D01*
X35524D01*
Y31071D01*
X36259D01*
X36452Y30878D01*
D02*
G37*
G36*
X29510Y30631D02*
X29510Y30631D01*
X29878Y30263D01*
Y29853D01*
X29430D01*
X28620Y30664D01*
X28639Y30710D01*
X29431D01*
X29510Y30631D01*
D02*
G37*
G36*
X17685Y30366D02*
X17707D01*
X17748Y30349D01*
X17779Y30318D01*
X17796Y30277D01*
Y30255D01*
X17796Y29880D01*
X17796D01*
Y29833D01*
X17760Y29746D01*
X17694Y29680D01*
X17607Y29644D01*
X17560Y29644D01*
X17511D01*
X17421Y29681D01*
X17352Y29750D01*
X17315Y29840D01*
Y29888D01*
Y30268D01*
Y30287D01*
X17330Y30323D01*
X17358Y30351D01*
X17394Y30366D01*
X17685D01*
Y30366D01*
D02*
G37*
G36*
X18357Y30395D02*
Y29843D01*
X19341D01*
Y30017D01*
X19426D01*
Y29823D01*
X19849D01*
X19986Y29686D01*
X19849Y29548D01*
X19426D01*
Y29354D01*
X19341D01*
Y29528D01*
X18357D01*
Y28859D01*
X19341D01*
Y29033D01*
X19426D01*
Y28918D01*
X20076D01*
Y29321D01*
X20174Y29419D01*
X20691D01*
Y29044D01*
X20691Y29044D01*
X20703Y28982D01*
X20738Y28930D01*
X20986Y28682D01*
X20986Y28682D01*
X21008Y28668D01*
X21016Y28605D01*
X20482Y28071D01*
X20213D01*
X20076Y28208D01*
Y28611D01*
X19426D01*
Y28208D01*
X19309Y28091D01*
X19306Y28086D01*
X19196Y27976D01*
X18731D01*
X18585Y28122D01*
X18580Y28125D01*
Y28638D01*
X17900D01*
Y29572D01*
X18300Y29972D01*
X18300Y30417D01*
X18307Y30421D01*
X18357Y30395D01*
D02*
G37*
G36*
X21300Y29922D02*
Y29505D01*
X21267Y29455D01*
X21253Y29386D01*
X21267Y29317D01*
X21287Y29288D01*
X21271Y29265D01*
X21258Y29256D01*
X21214Y29246D01*
X21201Y29255D01*
Y29607D01*
X21189Y29668D01*
X21154Y29720D01*
X21154Y29720D01*
X21004Y29870D01*
X20952Y29905D01*
X20891Y29917D01*
X20891Y29917D01*
X20209D01*
X20076Y30050D01*
Y30453D01*
X19426D01*
Y30338D01*
X19341D01*
Y30512D01*
X19387Y30522D01*
X20700Y30522D01*
X21300Y29922D01*
D02*
G37*
G36*
X25626Y29399D02*
X25623Y29386D01*
X25637Y29317D01*
X25657Y29288D01*
X25637Y29259D01*
X25623Y29190D01*
X25594Y29153D01*
X25527D01*
X25488Y29193D01*
X25401Y29229D01*
X25307D01*
X25220Y29193D01*
X25154Y29126D01*
X25118Y29040D01*
Y28946D01*
X25154Y28859D01*
X25220Y28792D01*
X25307Y28756D01*
X25401D01*
X25488Y28792D01*
X25527Y28832D01*
X25594D01*
X25623Y28796D01*
X25637Y28727D01*
X25657Y28697D01*
X25637Y28668D01*
X25623Y28599D01*
X25637Y28530D01*
X25657Y28501D01*
X25637Y28471D01*
X25623Y28402D01*
X25637Y28333D01*
X25657Y28304D01*
X25637Y28274D01*
X25623Y28205D01*
X25637Y28136D01*
X25657Y28107D01*
X25637Y28078D01*
X25623Y28008D01*
X25637Y27939D01*
X25657Y27910D01*
X25637Y27881D01*
X25623Y27812D01*
X25637Y27742D01*
X25657Y27713D01*
X25637Y27684D01*
X25623Y27615D01*
X25637Y27546D01*
X25657Y27516D01*
X25637Y27487D01*
X25623Y27418D01*
X25637Y27349D01*
X25657Y27319D01*
X25637Y27290D01*
X25623Y27221D01*
X25637Y27152D01*
X25657Y27123D01*
X25637Y27093D01*
X25623Y27024D01*
X25637Y26955D01*
X25657Y26926D01*
X25637Y26896D01*
X25623Y26827D01*
X25637Y26758D01*
X25657Y26729D01*
X25637Y26700D01*
X25623Y26630D01*
X25637Y26561D01*
X25657Y26532D01*
X25637Y26503D01*
X25623Y26434D01*
X25637Y26364D01*
X25676Y26306D01*
X25735Y26267D01*
X25804Y26253D01*
X26395D01*
X26464Y26267D01*
X26522Y26306D01*
X26562Y26364D01*
X26575Y26434D01*
X26562Y26503D01*
X26542Y26532D01*
X26562Y26561D01*
X26575Y26630D01*
X26562Y26700D01*
X26542Y26729D01*
X26562Y26758D01*
X26575Y26827D01*
X26563Y26890D01*
X26566Y26894D01*
X26631Y26898D01*
X26858Y26671D01*
X26858Y26671D01*
X26896Y26645D01*
X26957Y26585D01*
X27044Y26549D01*
X27138D01*
X27225Y26585D01*
X27291Y26651D01*
X27327Y26738D01*
Y26801D01*
X27348Y26815D01*
X27442D01*
X27529Y26851D01*
X27595Y26917D01*
X27631Y27004D01*
Y27054D01*
X27646Y27099D01*
X27678Y27100D01*
X27740D01*
X27827Y27136D01*
X27893Y27203D01*
X27929Y27289D01*
Y27342D01*
X27947Y27354D01*
X28041D01*
X28128Y27390D01*
X28195Y27456D01*
X28225Y27529D01*
X28277Y27547D01*
X28997Y26827D01*
X29049Y26793D01*
X29110Y26780D01*
X29110Y26780D01*
X29454D01*
X29469Y26752D01*
X29472Y26730D01*
X29420Y26679D01*
X29385Y26626D01*
X29373Y26565D01*
X29373Y26565D01*
Y26398D01*
X29228D01*
Y25768D01*
X29582D01*
X29601Y25722D01*
X29414Y25535D01*
X27961D01*
X27899Y25522D01*
X27847Y25488D01*
X27847Y25488D01*
X27627Y25267D01*
X25550D01*
X25529Y25317D01*
X25558Y25361D01*
X25571Y25430D01*
Y25549D01*
X25643D01*
X25643Y25549D01*
X25689Y25559D01*
X25728Y25585D01*
X25728Y25585D01*
X25771Y25628D01*
X26427D01*
X26597Y25459D01*
X26636Y25433D01*
X26653Y25429D01*
Y25426D01*
X26682Y25423D01*
X26682Y25423D01*
X26702Y25423D01*
X27154D01*
X27166Y25426D01*
X27302D01*
Y25558D01*
X27305Y25575D01*
X27305Y25575D01*
Y26138D01*
X27305Y26138D01*
X27296Y26184D01*
X27270Y26223D01*
X27219Y26274D01*
X27180Y26300D01*
X27134Y26309D01*
X27134Y26309D01*
X26770D01*
X26770Y26309D01*
X26724Y26300D01*
X26685Y26274D01*
X26623Y26212D01*
X26597Y26173D01*
X26588Y26127D01*
X26588Y26127D01*
Y26057D01*
X25748D01*
X25702Y26048D01*
X25663Y26022D01*
X25663Y26022D01*
X25618Y25976D01*
X25571Y25996D01*
Y26020D01*
X25558Y26089D01*
X25518Y26148D01*
X25460Y26187D01*
X25391Y26201D01*
X25322Y26187D01*
X25263Y26148D01*
X25224Y26089D01*
X25219Y26067D01*
X25168D01*
X25164Y26089D01*
X25125Y26148D01*
X25066Y26187D01*
X24997Y26201D01*
X24928Y26187D01*
X24899Y26168D01*
X24869Y26187D01*
X24800Y26201D01*
X24731Y26187D01*
X24702Y26168D01*
X24672Y26187D01*
X24603Y26201D01*
X24534Y26187D01*
X24505Y26168D01*
X24476Y26187D01*
X24406Y26201D01*
X24337Y26187D01*
X24308Y26168D01*
X24279Y26187D01*
X24210Y26201D01*
X24140Y26187D01*
X24111Y26168D01*
X24082Y26187D01*
X24013Y26201D01*
X23944Y26187D01*
X23914Y26168D01*
X23885Y26187D01*
X23816Y26201D01*
X23747Y26187D01*
X23717Y26168D01*
X23688Y26187D01*
X23619Y26201D01*
X23550Y26187D01*
X23521Y26168D01*
X23491Y26187D01*
X23422Y26201D01*
X23353Y26187D01*
X23324Y26168D01*
X23294Y26187D01*
X23225Y26201D01*
X23156Y26187D01*
X23127Y26168D01*
X23098Y26187D01*
X23028Y26201D01*
X22959Y26187D01*
X22930Y26168D01*
X22901Y26187D01*
X22832Y26201D01*
X22763Y26187D01*
X22704Y26148D01*
X22665Y26089D01*
X22660Y26067D01*
X22609D01*
X22605Y26089D01*
X22566Y26148D01*
X22507Y26187D01*
X22438Y26201D01*
X22369Y26187D01*
X22310Y26148D01*
X22271Y26089D01*
X22257Y26020D01*
Y25430D01*
X22271Y25361D01*
X22303Y25313D01*
X22285Y25263D01*
X20541D01*
Y25374D01*
X20387D01*
X20383Y25392D01*
X20344Y25451D01*
X20252Y25543D01*
X20263Y25582D01*
X20271Y25593D01*
X20560D01*
Y25737D01*
X20603D01*
X20672Y25751D01*
X20731Y25790D01*
X20931Y25990D01*
X20970Y26049D01*
X20984Y26118D01*
Y26493D01*
X21195Y26704D01*
X21256Y26695D01*
X21264Y26681D01*
X21253Y26630D01*
X21267Y26561D01*
X21287Y26532D01*
X21267Y26503D01*
X21253Y26434D01*
X21267Y26364D01*
X21306Y26306D01*
X21365Y26267D01*
X21434Y26253D01*
X22025D01*
X22094Y26267D01*
X22152Y26306D01*
X22191Y26364D01*
X22205Y26434D01*
X22191Y26503D01*
X22172Y26532D01*
X22191Y26561D01*
X22205Y26630D01*
X22191Y26700D01*
X22172Y26729D01*
X22191Y26758D01*
X22205Y26827D01*
X22191Y26896D01*
X22172Y26926D01*
X22191Y26955D01*
X22205Y27024D01*
X22191Y27093D01*
X22172Y27123D01*
X22191Y27152D01*
X22205Y27221D01*
X22191Y27290D01*
X22172Y27319D01*
X22191Y27349D01*
X22205Y27418D01*
X22191Y27487D01*
X22172Y27516D01*
X22191Y27546D01*
X22205Y27615D01*
X22191Y27684D01*
X22172Y27713D01*
X22191Y27742D01*
X22205Y27812D01*
X22191Y27881D01*
X22172Y27910D01*
X22191Y27939D01*
X22205Y28008D01*
X22235Y28045D01*
X23532D01*
X23532Y28045D01*
X23593Y28057D01*
X23646Y28092D01*
X24992Y29438D01*
X25594D01*
X25626Y29399D01*
D02*
G37*
G36*
X15046Y29723D02*
X14981Y29697D01*
X14915Y29630D01*
X14879Y29544D01*
Y29450D01*
X14915Y29363D01*
X14961Y29316D01*
Y29049D01*
X14911Y29016D01*
X14867Y29034D01*
X14773D01*
X14687Y28998D01*
X14620Y28931D01*
X14584Y28845D01*
Y28751D01*
X14620Y28664D01*
X14687Y28597D01*
X14773Y28562D01*
Y28016D01*
X14691D01*
X14604Y27980D01*
X14538Y27914D01*
X14502Y27827D01*
Y27733D01*
X14538Y27646D01*
X14604Y27580D01*
X14691Y27544D01*
X14773D01*
Y26891D01*
X14630Y26748D01*
X14323D01*
Y26394D01*
Y26207D01*
X14323Y26197D01*
X14323D01*
Y26157D01*
X14323D01*
Y25803D01*
X14448D01*
X14450Y25793D01*
X14485Y25741D01*
X14563Y25662D01*
X14563Y25662D01*
X14615Y25627D01*
X14677Y25615D01*
X15396D01*
Y25461D01*
X15995D01*
X16006Y25461D01*
X16045D01*
X16056Y25461D01*
X16617D01*
X16647Y25411D01*
X16639Y25397D01*
X14760D01*
Y25551D01*
X14150D01*
Y25551D01*
X14110D01*
Y25551D01*
X13500D01*
Y25397D01*
X13417D01*
Y26197D01*
X13929D01*
Y26394D01*
Y26748D01*
X13671D01*
X13654Y26751D01*
X13480D01*
X13476Y26756D01*
Y26972D01*
X13505Y27010D01*
X14155D01*
Y27640D01*
X14011D01*
Y28854D01*
X14447Y29290D01*
X14486Y29348D01*
X14500Y29417D01*
Y29773D01*
X15036D01*
X15046Y29723D01*
D02*
G37*
G36*
X5838Y29343D02*
Y29209D01*
X5742Y29114D01*
Y28988D01*
X5329Y28988D01*
Y29316D01*
X5395Y29381D01*
X5800D01*
X5838Y29343D01*
D02*
G37*
G36*
X27185Y29197D02*
X27315Y29067D01*
X27315Y28957D01*
X27256Y28898D01*
X26854D01*
X26803Y28949D01*
Y29171D01*
X26777Y29197D01*
X26666D01*
X26536Y29328D01*
X26143D01*
X26140Y29446D01*
X26526D01*
X26670Y29591D01*
X27185D01*
X27185Y29197D01*
D02*
G37*
G36*
X29250Y29579D02*
X29250Y29579D01*
X29302Y29545D01*
X29364Y29532D01*
X29364Y29532D01*
X29530D01*
X29537Y29510D01*
X29538Y29482D01*
X29493Y29452D01*
X29493Y29452D01*
X29420Y29379D01*
X29385Y29327D01*
X29373Y29266D01*
X29334Y29240D01*
X29228D01*
Y28610D01*
X29228D01*
X29224Y28562D01*
X28939D01*
X28936Y28563D01*
X28936Y28563D01*
X26605D01*
X26575Y28599D01*
X26562Y28668D01*
X26542Y28697D01*
X26562Y28727D01*
X26575Y28796D01*
X26562Y28865D01*
X26542Y28894D01*
X26562Y28924D01*
X26575Y28993D01*
X26562Y29062D01*
X26557Y29068D01*
X26593Y29103D01*
X26602Y29098D01*
X26620Y29086D01*
X26666Y29077D01*
X26683Y29032D01*
Y28949D01*
X26683Y28949D01*
X26692Y28903D01*
X26718Y28864D01*
X26769Y28812D01*
X26808Y28786D01*
X26854Y28777D01*
X26854Y28777D01*
X27256D01*
X27302Y28786D01*
X27341Y28812D01*
X27341Y28812D01*
X27400Y28872D01*
X27426Y28911D01*
X27435Y28957D01*
X27435Y28957D01*
X27435Y29067D01*
X27426Y29113D01*
X27400Y29152D01*
X27400Y29152D01*
X27306Y29246D01*
Y29709D01*
X27196D01*
X27185Y29712D01*
X27076D01*
X27048Y29753D01*
X27059Y29780D01*
Y29874D01*
X27023Y29961D01*
X26957Y30027D01*
X26870Y30063D01*
X26776D01*
X26689Y30027D01*
X26649Y29987D01*
X26233D01*
X26233Y29987D01*
X26172Y29975D01*
X26120Y29940D01*
X25938Y29759D01*
X25603D01*
X25571Y29798D01*
X25571Y29800D01*
Y29873D01*
X25613Y29901D01*
X25626Y29896D01*
X25720D01*
X25807Y29932D01*
X25873Y29998D01*
X25909Y30085D01*
Y30179D01*
X25873Y30266D01*
X25807Y30332D01*
X25720Y30368D01*
X25626D01*
X25613Y30363D01*
X25570Y30399D01*
X25558Y30459D01*
X25548Y30473D01*
X25572Y30517D01*
X28313D01*
X29250Y29579D01*
D02*
G37*
G36*
X8835Y29051D02*
X9220D01*
X9272Y29000D01*
Y28839D01*
X9224Y28791D01*
X8850D01*
X8783Y28724D01*
X8626D01*
X8626Y29118D01*
X8768D01*
X8835Y29051D01*
D02*
G37*
G36*
X10948Y29203D02*
X11106Y29155D01*
X11251Y29078D01*
X11379Y28973D01*
X11483Y28846D01*
X11561Y28700D01*
X11609Y28542D01*
X11624Y28385D01*
X11623Y28378D01*
Y26999D01*
X11573Y26997D01*
X11561Y27151D01*
X11521Y27317D01*
X11455Y27475D01*
X11366Y27621D01*
X11255Y27751D01*
X11125Y27862D01*
X10979Y27951D01*
X10821Y28017D01*
X10655Y28057D01*
X10484Y28070D01*
Y28070D01*
X8996D01*
X8958Y28120D01*
X8967Y28165D01*
X8951Y28246D01*
X8905Y28314D01*
X8837Y28360D01*
X8760Y28375D01*
Y28564D01*
X8783Y28604D01*
X8795Y28606D01*
X8884D01*
Y28654D01*
X8900Y28671D01*
X9224D01*
X9224Y28671D01*
X9270Y28680D01*
X9310Y28706D01*
X9310Y28706D01*
X9357Y28753D01*
X9383Y28793D01*
X9392Y28839D01*
X9392Y28839D01*
Y29000D01*
X9392Y29000D01*
X9383Y29046D01*
X9357Y29085D01*
X9306Y29136D01*
X9267Y29162D01*
X9242Y29167D01*
X9247Y29217D01*
X10783D01*
X10791Y29219D01*
X10948Y29203D01*
D02*
G37*
G36*
X36386Y28188D02*
X36193Y27996D01*
X35528D01*
Y28051D01*
X35065D01*
X34940Y28176D01*
X35084Y28321D01*
X35088Y28327D01*
X35528D01*
Y28382D01*
X36192D01*
X36386Y28188D01*
D02*
G37*
G36*
X21255Y28074D02*
X21263Y28059D01*
X21253Y28008D01*
X21267Y27939D01*
X21287Y27910D01*
X21267Y27881D01*
X21253Y27812D01*
X21259Y27781D01*
X20463Y26985D01*
X20082D01*
X20076Y27032D01*
X20076D01*
Y27435D01*
X20170Y27529D01*
X20573D01*
X20573Y27529D01*
X20634Y27541D01*
X20686Y27576D01*
X21194Y28084D01*
X21255Y28074D01*
D02*
G37*
G36*
X3075Y27744D02*
Y27492D01*
X3000Y27417D01*
X2492D01*
X2484Y27425D01*
X2480Y27801D01*
X2491Y27811D01*
X2559D01*
X2638Y27890D01*
X2929D01*
X3075Y27744D01*
D02*
G37*
G36*
X4325Y30034D02*
X4280Y30015D01*
X4125Y29920D01*
X3986Y29801D01*
X3915Y29719D01*
X3910Y29715D01*
X3901Y29701D01*
X3868Y29663D01*
X3773Y29507D01*
X3703Y29339D01*
X3660Y29162D01*
X3646Y28980D01*
X3647D01*
Y28376D01*
X3610D01*
X3530Y28360D01*
X3461Y28314D01*
X3416Y28246D01*
X3399Y28165D01*
X3416Y28085D01*
X3447Y28037D01*
X3416Y27990D01*
X3399Y27909D01*
X3416Y27829D01*
X3447Y27782D01*
X3416Y27734D01*
X3399Y27654D01*
X3416Y27573D01*
X3461Y27505D01*
X3530Y27459D01*
X3610Y27443D01*
X4004D01*
X4085Y27459D01*
X4103Y27471D01*
X4145Y27463D01*
X4194Y27430D01*
X4227Y27381D01*
X4237Y27326D01*
X4237Y27323D01*
Y27181D01*
X4238Y27176D01*
X4225Y27111D01*
X4185Y27051D01*
X4125Y27012D01*
X4060Y26999D01*
X4055Y27000D01*
X1977D01*
Y27000D01*
X1792Y26985D01*
X1612Y26942D01*
X1441Y26871D01*
X1283Y26774D01*
X1142Y26654D01*
X1022Y26513D01*
X925Y26355D01*
X854Y26184D01*
X834Y26101D01*
X832Y26099D01*
X828Y26074D01*
X811Y26004D01*
X796Y25819D01*
X796D01*
Y25616D01*
X723Y25607D01*
X651Y25577D01*
X589Y25529D01*
X542Y25468D01*
X512Y25396D01*
X502Y25319D01*
Y24965D01*
X512Y24887D01*
X542Y24816D01*
X589Y24754D01*
X651Y24707D01*
X723Y24677D01*
X800Y24667D01*
X1154D01*
X1231Y24677D01*
X1303Y24707D01*
X1365Y24754D01*
X1412Y24816D01*
X1442Y24887D01*
X1452Y24965D01*
Y25319D01*
X1442Y25396D01*
X1412Y25468D01*
X1365Y25529D01*
X1303Y25577D01*
X1231Y25607D01*
X1157Y25616D01*
Y25819D01*
X1156Y25827D01*
X1171Y25979D01*
X1175Y25992D01*
X1218Y26133D01*
X1294Y26275D01*
X1396Y26400D01*
X1520Y26502D01*
X1662Y26578D01*
X1817Y26625D01*
X1969Y26640D01*
X1977Y26638D01*
X4055D01*
Y26637D01*
X4196Y26656D01*
X4327Y26710D01*
X4440Y26796D01*
X4526Y26909D01*
X4581Y27040D01*
X4599Y27181D01*
X4598D01*
Y27323D01*
X4599D01*
X4581Y27455D01*
X4530Y27579D01*
X4449Y27685D01*
X4343Y27766D01*
X4242Y27808D01*
X4219Y27819D01*
X4207Y27870D01*
X4215Y27909D01*
X4199Y27990D01*
X4167Y28037D01*
X4199Y28085D01*
X4215Y28165D01*
X4199Y28246D01*
X4153Y28314D01*
X4085Y28360D01*
X4004Y28376D01*
X3968D01*
Y28980D01*
X3966Y28988D01*
X3982Y29144D01*
X4030Y29302D01*
X4107Y29448D01*
X4150Y29500D01*
X4212Y29575D01*
X4340Y29680D01*
X4485Y29758D01*
X4643Y29806D01*
X4800Y29821D01*
X4807Y29820D01*
X6446D01*
X6452Y29804D01*
X6455Y29770D01*
X6400Y29740D01*
X6393Y29739D01*
X6378Y29728D01*
X6337Y29707D01*
X6308Y29683D01*
X6302Y29679D01*
X6301Y29677D01*
X6227Y29616D01*
X6165Y29541D01*
X6163Y29540D01*
X6159Y29534D01*
X6136Y29505D01*
X6068Y29378D01*
X6026Y29241D01*
X6012Y29098D01*
X6013D01*
Y28154D01*
X6012D01*
X6009Y28135D01*
X5989Y28123D01*
X5945Y28154D01*
X5947Y28165D01*
X5931Y28246D01*
X5885Y28314D01*
X5817Y28360D01*
X5738Y28376D01*
Y28606D01*
X5860D01*
Y28977D01*
X5862Y28988D01*
Y29064D01*
X5923Y29124D01*
X5923Y29124D01*
X5924Y29124D01*
X5937Y29143D01*
X5949Y29163D01*
X5950Y29163D01*
X5950Y29163D01*
X5954Y29186D01*
X5959Y29209D01*
X5959Y29209D01*
X5959Y29209D01*
Y29343D01*
X5950Y29389D01*
X5924Y29428D01*
X5924Y29428D01*
X5885Y29466D01*
X5846Y29493D01*
X5800Y29502D01*
X5800Y29502D01*
X5395D01*
X5395Y29502D01*
X5349Y29493D01*
X5310Y29466D01*
X5310Y29466D01*
X5244Y29401D01*
X5218Y29362D01*
X5209Y29316D01*
X5209Y29316D01*
Y28988D01*
X5211Y28979D01*
Y28606D01*
X5337D01*
Y28375D01*
X5262Y28360D01*
X5193Y28314D01*
X5148Y28246D01*
X5132Y28165D01*
X5148Y28085D01*
X5179Y28037D01*
X5148Y27990D01*
X5132Y27909D01*
X5148Y27829D01*
X5179Y27782D01*
X5148Y27734D01*
X5132Y27654D01*
X5148Y27573D01*
X5179Y27526D01*
X5148Y27478D01*
X5132Y27398D01*
X5148Y27317D01*
X5193Y27249D01*
X5262Y27203D01*
X5343Y27187D01*
X5359D01*
Y26724D01*
X5360Y26720D01*
X5348Y26660D01*
X5311Y26606D01*
X5257Y26570D01*
X5197Y26558D01*
X5193Y26559D01*
X4634D01*
Y26560D01*
X4440Y26541D01*
X4254Y26484D01*
X4082Y26393D01*
X3932Y26269D01*
X3809Y26119D01*
X3717Y25947D01*
X3660Y25761D01*
X3646Y25617D01*
X3646D01*
X3569Y25607D01*
X3497Y25577D01*
X3436Y25529D01*
X3388Y25468D01*
X3358Y25396D01*
X3348Y25319D01*
Y24965D01*
X3358Y24887D01*
X3388Y24816D01*
X3436Y24754D01*
X3497Y24707D01*
X3569Y24677D01*
X3646Y24667D01*
X4000D01*
X4078Y24677D01*
X4149Y24707D01*
X4211Y24754D01*
X4258Y24816D01*
X4288Y24887D01*
X4298Y24965D01*
Y25319D01*
X4288Y25396D01*
X4258Y25468D01*
X4211Y25529D01*
X4149Y25577D01*
X4078Y25607D01*
X4007Y25616D01*
X4015Y25691D01*
X4051Y25809D01*
X4109Y25918D01*
X4187Y26014D01*
X4283Y26092D01*
X4392Y26151D01*
X4511Y26187D01*
X4629Y26198D01*
X4634Y26197D01*
X5193D01*
Y26196D01*
X5330Y26214D01*
X5457Y26267D01*
X5566Y26351D01*
X5650Y26460D01*
X5703Y26588D01*
X5721Y26724D01*
X5720D01*
Y27187D01*
X5736D01*
X5817Y27203D01*
X5885Y27249D01*
X5931Y27317D01*
X5947Y27398D01*
X5931Y27478D01*
X5899Y27526D01*
X5931Y27573D01*
X5947Y27654D01*
X5938Y27699D01*
X5973Y27754D01*
X5974Y27754D01*
X6034Y27762D01*
X6132Y27803D01*
X6216Y27867D01*
X6280Y27951D01*
X6320Y28049D01*
X6334Y28154D01*
X6334D01*
Y29098D01*
X6333Y29103D01*
X6346Y29205D01*
X6387Y29304D01*
X6410Y29333D01*
X6453Y29390D01*
X6509Y29433D01*
X6538Y29455D01*
X6637Y29496D01*
X6739Y29510D01*
X6744Y29509D01*
X7030D01*
X7042Y29459D01*
X6974Y29422D01*
X6869Y29336D01*
X6783Y29231D01*
X6719Y29111D01*
X6679Y28982D01*
X6666Y28846D01*
X6666D01*
Y28376D01*
X6630D01*
X6549Y28360D01*
X6481Y28314D01*
X6435Y28246D01*
X6419Y28165D01*
X6435Y28085D01*
X6467Y28037D01*
X6435Y27990D01*
X6419Y27909D01*
X6435Y27829D01*
X6425Y27796D01*
X6351Y27765D01*
X6243Y27682D01*
X6160Y27574D01*
X6108Y27449D01*
X6090Y27314D01*
X6091D01*
Y26855D01*
X6090D01*
X6109Y26660D01*
X6166Y26472D01*
X6259Y26299D01*
X6383Y26147D01*
X6383Y26147D01*
X6415Y26110D01*
X6438Y26080D01*
X6471Y25999D01*
X6482Y25917D01*
X6481Y25913D01*
Y25616D01*
X6408Y25607D01*
X6336Y25577D01*
X6274Y25529D01*
X6227Y25468D01*
X6197Y25396D01*
X6187Y25319D01*
Y24965D01*
X6197Y24887D01*
X6227Y24816D01*
X6274Y24754D01*
X6336Y24707D01*
X6408Y24677D01*
X6485Y24667D01*
X6839D01*
X6916Y24677D01*
X6988Y24707D01*
X7050Y24754D01*
X7097Y24816D01*
X7127Y24887D01*
X7137Y24965D01*
Y25319D01*
X7127Y25396D01*
X7097Y25468D01*
X7050Y25529D01*
X6988Y25577D01*
X6916Y25607D01*
X6843Y25616D01*
Y25913D01*
X6842Y25915D01*
X6829Y26048D01*
X6790Y26178D01*
X6726Y26298D01*
X6640Y26402D01*
X6640Y26403D01*
X6635Y26406D01*
X6559Y26499D01*
X6500Y26610D01*
X6463Y26730D01*
X6451Y26850D01*
X6452Y26855D01*
Y27314D01*
X6452Y27318D01*
X6463Y27375D01*
X6498Y27427D01*
X6547Y27460D01*
X6549Y27459D01*
X6630Y27443D01*
X7024D01*
X7104Y27459D01*
X7173Y27505D01*
X7218Y27573D01*
X7234Y27654D01*
X7218Y27734D01*
X7187Y27782D01*
X7218Y27829D01*
X7234Y27909D01*
X7218Y27990D01*
X7187Y28037D01*
X7218Y28085D01*
X7234Y28165D01*
X7218Y28246D01*
X7173Y28314D01*
X7104Y28360D01*
X7024Y28376D01*
X6987D01*
Y28846D01*
X6987Y28850D01*
X6999Y28943D01*
X7036Y29033D01*
X7095Y29110D01*
X7172Y29169D01*
X7262Y29206D01*
X7354Y29218D01*
X7358Y29217D01*
X8234D01*
Y28606D01*
X8358D01*
Y28375D01*
X8282Y28360D01*
X8213Y28314D01*
X8168Y28246D01*
X8151Y28165D01*
X8168Y28085D01*
X8199Y28037D01*
X8168Y27990D01*
X8151Y27909D01*
X8168Y27829D01*
X8199Y27782D01*
X8168Y27734D01*
X8151Y27654D01*
X8168Y27573D01*
X8199Y27526D01*
X8168Y27478D01*
X8151Y27398D01*
X8168Y27317D01*
X8213Y27249D01*
X8282Y27203D01*
X8362Y27187D01*
X8378D01*
Y26661D01*
X8378D01*
X8392Y26519D01*
X8434Y26383D01*
X8501Y26257D01*
X8592Y26147D01*
X8702Y26056D01*
X8828Y25989D01*
X8964Y25947D01*
X9106Y25933D01*
Y25933D01*
X9153Y25927D01*
X9187Y25920D01*
X9256Y25874D01*
X9302Y25805D01*
X9317Y25730D01*
X9316Y25724D01*
Y25616D01*
X9242Y25607D01*
X9170Y25577D01*
X9109Y25529D01*
X9061Y25468D01*
X9032Y25396D01*
X9022Y25319D01*
Y24965D01*
X9032Y24887D01*
X9061Y24816D01*
X9109Y24754D01*
X9170Y24707D01*
X9242Y24677D01*
X9319Y24667D01*
X9674D01*
X9751Y24677D01*
X9823Y24707D01*
X9884Y24754D01*
X9932Y24816D01*
X9961Y24887D01*
X9972Y24965D01*
Y25319D01*
X9961Y25396D01*
X9932Y25468D01*
X9884Y25529D01*
X9823Y25577D01*
X9751Y25607D01*
X9677Y25616D01*
Y25724D01*
X9679D01*
X9659Y25872D01*
X9602Y26010D01*
X9511Y26129D01*
X9392Y26220D01*
X9254Y26277D01*
X9106Y26296D01*
Y26296D01*
X9058Y26300D01*
X9011Y26306D01*
X8922Y26343D01*
X8846Y26401D01*
X8787Y26477D01*
X8751Y26566D01*
X8739Y26657D01*
X8740Y26661D01*
Y27187D01*
X8756D01*
X8837Y27203D01*
X8905Y27249D01*
X8951Y27317D01*
X8967Y27398D01*
X8951Y27478D01*
X8919Y27526D01*
X8951Y27573D01*
X8967Y27654D01*
X8958Y27699D01*
X8996Y27749D01*
X10484D01*
X10490Y27750D01*
X10635Y27736D01*
X10779Y27692D01*
X10912Y27621D01*
X11029Y27525D01*
X11125Y27408D01*
X11196Y27275D01*
X11240Y27131D01*
X11254Y26986D01*
X11253Y26980D01*
Y24660D01*
X11251D01*
X11270Y24463D01*
X11328Y24273D01*
X11421Y24098D01*
X11547Y23945D01*
X11671Y23843D01*
X11653Y23793D01*
X171D01*
Y29362D01*
X1911D01*
Y28707D01*
X2118D01*
Y28618D01*
X1990D01*
Y27988D01*
X2118D01*
Y27929D01*
X1990D01*
Y27299D01*
X2480D01*
X2492Y27297D01*
X2492Y27297D01*
X2664D01*
X2677Y27291D01*
X2771D01*
X2785Y27297D01*
X3000D01*
X3046Y27306D01*
X3085Y27332D01*
X3085Y27332D01*
X3160Y27407D01*
X3186Y27446D01*
X3195Y27492D01*
X3195Y27492D01*
Y27744D01*
X3186Y27790D01*
X3160Y27829D01*
X3160Y27829D01*
X3014Y27975D01*
X2975Y28001D01*
X2929Y28010D01*
X2929Y28010D01*
X2640D01*
Y28618D01*
X2520D01*
Y28707D01*
X2726D01*
Y29380D01*
Y30083D01*
X4316D01*
X4325Y30034D01*
D02*
G37*
G36*
X17189Y27289D02*
X17165Y27313D01*
Y27384D01*
X17189Y27407D01*
Y27289D01*
D02*
G37*
G36*
X28776Y27816D02*
X28776Y27816D01*
X28828Y27781D01*
X28890Y27769D01*
X28890Y27769D01*
X29624D01*
X29878Y27515D01*
Y27122D01*
X29836Y27102D01*
X29177D01*
X28280Y27998D01*
X28299Y28045D01*
X28547D01*
X28776Y27816D01*
D02*
G37*
G36*
X17059Y25936D02*
X16656D01*
Y26091D01*
X16056D01*
X16045Y26091D01*
X16006D01*
X15995Y26091D01*
X15956D01*
X15928Y26132D01*
X15937Y26154D01*
Y26238D01*
X16006D01*
Y26868D01*
X15460D01*
Y27035D01*
X15995D01*
X16006Y27035D01*
X16045D01*
X16056Y27035D01*
X16656D01*
Y27190D01*
X17059D01*
Y25936D01*
D02*
G37*
G36*
X18551Y27702D02*
X18603Y27667D01*
X18664Y27655D01*
X18678Y27609D01*
Y26985D01*
X18087D01*
X17900Y27172D01*
Y27851D01*
X18402D01*
X18551Y27702D01*
D02*
G37*
G36*
X17835Y28984D02*
Y27137D01*
X18050Y26922D01*
X18591D01*
X18624Y26886D01*
Y26258D01*
X17864D01*
Y26031D01*
X17541D01*
Y27350D01*
Y28672D01*
X17721Y28853D01*
X17774Y28931D01*
X17785Y28989D01*
X17835Y28984D01*
D02*
G37*
G36*
X27185Y26138D02*
Y25575D01*
X27154Y25544D01*
X26682D01*
X26477Y25749D01*
X25721D01*
X25643Y25670D01*
X25477D01*
X25430Y25623D01*
Y25839D01*
X25447Y25823D01*
X25448D01*
X25464Y25806D01*
X25617D01*
X25748Y25936D01*
X26658D01*
X26708Y25987D01*
Y26127D01*
X26770Y26189D01*
X27134D01*
X27185Y26138D01*
D02*
G37*
G36*
X17197Y25715D02*
X17173Y25739D01*
Y25809D01*
X17197Y25833D01*
Y25715D01*
D02*
G37*
G36*
X17192Y25409D02*
X17168Y25432D01*
Y25503D01*
X17192Y25527D01*
Y25409D01*
D02*
G37*
G36*
X36379Y25374D02*
X36170Y25165D01*
X35528D01*
Y25220D01*
X35035D01*
X34897Y25358D01*
X35035Y25496D01*
X35528D01*
Y25552D01*
X36201D01*
X36379Y25374D01*
D02*
G37*
G36*
X12961Y25354D02*
X13484Y24831D01*
X19221D01*
X19240Y24823D01*
X19301D01*
Y24744D01*
X19258Y24727D01*
X13350D01*
X13344Y24726D01*
X13194Y24741D01*
X13043Y24787D01*
X12905Y24861D01*
X12783Y24960D01*
X12684Y25082D01*
X12609Y25221D01*
X12564Y25371D01*
X12549Y25521D01*
X12550Y25528D01*
Y28980D01*
X12551D01*
X12537Y29162D01*
X12494Y29339D01*
X12424Y29507D01*
X12329Y29663D01*
X12211Y29801D01*
X12072Y29920D01*
X11917Y30015D01*
X11871Y30034D01*
X11881Y30083D01*
X12961D01*
Y25354D01*
D02*
G37*
G36*
X29878Y24718D02*
Y24303D01*
X29840Y24275D01*
X29413D01*
X28709Y24978D01*
X28730Y25028D01*
X29567D01*
X29878Y24718D01*
D02*
G37*
G36*
X27252Y24506D02*
X27228Y24482D01*
X27171Y24384D01*
X27142Y24274D01*
Y24160D01*
X27171Y24049D01*
X27228Y23951D01*
X27309Y23870D01*
X27355Y23843D01*
X27341Y23793D01*
X25808D01*
X25795Y23843D01*
X25841Y23870D01*
X25921Y23951D01*
X25978Y24049D01*
X26008Y24160D01*
Y24274D01*
X25978Y24384D01*
X25921Y24482D01*
X25897Y24506D01*
X25917Y24553D01*
X27233D01*
X27252Y24506D01*
D02*
G37*
%LPC*%
G36*
X34602Y46948D02*
X34602Y46948D01*
X33260D01*
X33198Y46936D01*
X33146Y46901D01*
X33146Y46901D01*
X32406Y46161D01*
X32371Y46109D01*
X32359Y46047D01*
X32359Y46047D01*
Y45827D01*
X32359Y45825D01*
X32359Y45823D01*
X32363Y45635D01*
Y45516D01*
X32366Y45492D01*
X32371Y45280D01*
X32377Y45251D01*
X32383Y45222D01*
X32384Y45221D01*
X32385Y45219D01*
X32402Y45195D01*
X32418Y45170D01*
X33052Y44536D01*
X33104Y44501D01*
X33165Y44489D01*
X33165Y44489D01*
X33965D01*
Y44486D01*
X35035D01*
Y46947D01*
X34608D01*
X34602Y46948D01*
D02*
G37*
%LPD*%
G36*
X34689Y46701D02*
Y44673D01*
X34665Y44650D01*
X33165D01*
X32531Y45283D01*
X32520Y45827D01*
Y46047D01*
X33260Y46787D01*
X34602D01*
X34689Y46701D01*
D02*
G37*
%LPC*%
G36*
X29138Y36882D02*
X28311D01*
Y36094D01*
X28564D01*
Y35590D01*
X28549Y35575D01*
X28373D01*
X28102Y35846D01*
X28050Y35881D01*
X27988Y35893D01*
X27988Y35893D01*
X27177D01*
X27177Y35893D01*
X27116Y35881D01*
X27064Y35846D01*
X27064Y35846D01*
X26938Y35720D01*
X26903Y35668D01*
X26891Y35606D01*
X26853Y35579D01*
X26726D01*
Y34949D01*
X26819D01*
Y34886D01*
X26855Y34799D01*
X26921Y34733D01*
X27008Y34697D01*
X27102D01*
X27189Y34733D01*
X27255Y34799D01*
X27291Y34886D01*
Y34949D01*
X27376D01*
Y35572D01*
X27506D01*
Y34945D01*
X27575D01*
Y34906D01*
X27611Y34819D01*
X27677Y34752D01*
X27764Y34717D01*
X27858D01*
X27945Y34752D01*
X28011Y34819D01*
X28047Y34906D01*
Y34945D01*
X28116D01*
X28116Y34945D01*
X28156D01*
Y34945D01*
X28166Y34945D01*
X28766D01*
Y35338D01*
X28838Y35410D01*
X28838Y35410D01*
X28873Y35462D01*
X28885Y35524D01*
X28885Y35524D01*
Y36094D01*
X29138D01*
Y36882D01*
D02*
G37*
G36*
X27933Y46251D02*
X27579D01*
X27491Y46239D01*
X27410Y46206D01*
X27340Y46152D01*
X27286Y46082D01*
X27253Y46001D01*
X27241Y45913D01*
Y45559D01*
X27253Y45472D01*
X27286Y45390D01*
X27340Y45320D01*
X27410Y45267D01*
X27491Y45233D01*
X27498Y45232D01*
Y44492D01*
X27507Y44425D01*
X27532Y44363D01*
X27573Y44310D01*
X27850Y44033D01*
Y43913D01*
X27764D01*
Y43205D01*
X28487D01*
X28528Y43181D01*
Y42315D01*
X29433D01*
Y43181D01*
X29238D01*
Y43404D01*
X29230Y43470D01*
X29204Y43533D01*
X29163Y43586D01*
X29102Y43647D01*
Y43913D01*
X28366D01*
Y44140D01*
X28358Y44207D01*
X28332Y44269D01*
X28291Y44322D01*
X28014Y44599D01*
Y45232D01*
X28020Y45233D01*
X28102Y45267D01*
X28172Y45320D01*
X28225Y45390D01*
X28259Y45472D01*
X28271Y45559D01*
Y45913D01*
X28259Y46001D01*
X28225Y46082D01*
X28172Y46152D01*
X28102Y46206D01*
X28020Y46239D01*
X27933Y46251D01*
D02*
G37*
G36*
X26445Y46248D02*
X26311D01*
X26180Y46213D01*
X26064Y46146D01*
X25968Y46050D01*
X25901Y45934D01*
X25866Y45804D01*
Y45669D01*
X25901Y45539D01*
X25968Y45422D01*
X26064Y45327D01*
X26120Y45294D01*
Y45075D01*
X25762Y44717D01*
X25721Y44664D01*
X25695Y44602D01*
X25686Y44535D01*
Y43913D01*
X25600D01*
Y43205D01*
X26263D01*
X26303Y43181D01*
Y42315D01*
X27209D01*
Y43181D01*
X27014D01*
Y43387D01*
X27005Y43454D01*
X26979Y43516D01*
X26938Y43570D01*
X26938Y43570D01*
Y43913D01*
X26202D01*
Y44428D01*
X26560Y44786D01*
X26601Y44839D01*
X26627Y44902D01*
X26636Y44969D01*
Y45294D01*
X26692Y45327D01*
X26788Y45422D01*
X26855Y45539D01*
X26890Y45669D01*
Y45804D01*
X26855Y45934D01*
X26788Y46050D01*
X26692Y46146D01*
X26576Y46213D01*
X26445Y46248D01*
D02*
G37*
G36*
X25169Y46251D02*
X24815D01*
X24728Y46239D01*
X24646Y46206D01*
X24576Y46152D01*
X24523Y46082D01*
X24489Y46001D01*
X24477Y45913D01*
Y45559D01*
X24489Y45472D01*
X24523Y45390D01*
X24576Y45320D01*
X24585Y45314D01*
X24588Y45264D01*
X23521Y44197D01*
X23480Y44143D01*
X23454Y44081D01*
X23445Y44014D01*
Y43913D01*
X23359D01*
Y43205D01*
X24039D01*
X24079Y43181D01*
Y42315D01*
X24984D01*
Y43181D01*
X24790D01*
Y43371D01*
X24781Y43438D01*
X24755Y43500D01*
X24714Y43553D01*
X24698Y43570D01*
Y43913D01*
X24033D01*
X24014Y43960D01*
X25175Y45121D01*
X25216Y45174D01*
X25239Y45231D01*
X25257Y45233D01*
X25338Y45267D01*
X25408Y45320D01*
X25462Y45390D01*
X25495Y45472D01*
X25507Y45559D01*
Y45913D01*
X25495Y46001D01*
X25462Y46082D01*
X25408Y46152D01*
X25338Y46206D01*
X25257Y46239D01*
X25169Y46251D01*
D02*
G37*
G36*
X23682Y46248D02*
X23547D01*
X23417Y46213D01*
X23300Y46146D01*
X23205Y46050D01*
X23137Y45934D01*
X23102Y45804D01*
Y45669D01*
X23137Y45539D01*
X23143Y45528D01*
X22523Y44908D01*
X21941D01*
X21874Y44899D01*
X21812Y44873D01*
X21758Y44832D01*
X21280Y44354D01*
X21239Y44300D01*
X21213Y44238D01*
X21204Y44171D01*
Y43913D01*
X21118D01*
Y43205D01*
X21814D01*
X21854Y43181D01*
Y42315D01*
X22760D01*
Y43181D01*
X22565D01*
Y43354D01*
X22556Y43421D01*
X22531Y43483D01*
X22490Y43537D01*
X22457Y43570D01*
Y43913D01*
X21721D01*
Y44064D01*
X22048Y44391D01*
X22630D01*
X22697Y44400D01*
X22759Y44426D01*
X22812Y44467D01*
X23570Y45224D01*
X23682D01*
X23812Y45259D01*
X23928Y45327D01*
X24024Y45422D01*
X24091Y45539D01*
X24126Y45669D01*
Y45804D01*
X24091Y45934D01*
X24024Y46050D01*
X23928Y46146D01*
X23812Y46213D01*
X23682Y46248D01*
D02*
G37*
%LPD*%
D10*
X32480Y29339D02*
Y32925D01*
X17551Y29023D02*
Y29976D01*
X17300Y25850D02*
Y27350D01*
Y25776D02*
Y25850D01*
Y27350D02*
Y28772D01*
Y25468D02*
Y25776D01*
Y25322D02*
Y25468D01*
Y28772D02*
X17551Y29023D01*
X32480Y26768D02*
Y29339D01*
X21340Y31264D02*
X21347Y31256D01*
X21965D01*
X32480Y26768D02*
X32673D01*
D12*
X22956Y23811D02*
G03*
X23619Y24474I0J663D01*
G01*
X22276Y24567D02*
G03*
X23028Y25320I0J753D01*
G01*
X12390Y25528D02*
G03*
X13350Y24567I961J0D01*
G01*
X11413Y24660D02*
G03*
X12262Y23811I849J0D01*
G01*
X22462Y24339D02*
G03*
X23225Y25102I0J763D01*
G01*
X22666Y24063D02*
G03*
X23422Y24819I0J756D01*
G01*
X12098Y25283D02*
G03*
X13043Y24339I945J0D01*
G01*
X11413Y26980D02*
G03*
X10484Y27909I-929J0D01*
G01*
X7358Y29378D02*
G03*
X6827Y28846I0J-531D01*
G01*
X11783Y24996D02*
G03*
X12717Y24063I933J0D01*
G01*
X11783Y28378D02*
G03*
X10783Y29378I-1000J0D01*
G01*
X6277Y29427D02*
G03*
X6173Y29098I467J-328D01*
G01*
X6416Y29566D02*
G03*
X6277Y29427I328J-467D01*
G01*
X6455Y29591D02*
G03*
X6416Y29566I289J-492D01*
G01*
X6744Y29669D02*
G03*
X6455Y29591I0J-571D01*
G01*
X12098Y28669D02*
G03*
X11098Y29669I-1000J0D01*
G01*
X4023Y29601D02*
G03*
X3807Y28980I784J-621D01*
G01*
X4807Y29980D02*
G03*
X4023Y29601I0J-1000D01*
G01*
X12390Y28980D02*
G03*
X11390Y29980I-1000J0D01*
G01*
X5929Y27909D02*
G03*
X6173Y28154I0J244D01*
G01*
X23619Y24474D02*
Y25725D01*
X12262Y23811D02*
X22956D01*
X24367Y35599D02*
X26485Y37718D01*
X24603Y30095D02*
Y30672D01*
X24367Y30908D02*
Y35599D01*
Y30908D02*
X24603Y30672D01*
X20147Y27910D02*
X20548D01*
X21237Y28599D02*
X21729D01*
X20548Y27910D02*
X21237Y28599D01*
X20103Y27690D02*
X20573D01*
X21278Y28395D02*
X21722D01*
X20573Y27690D02*
X21278Y28395D01*
X16350Y25776D02*
X17300D01*
X16957Y25468D02*
X17300D01*
X16350Y27350D02*
X17300D01*
X23028Y29452D02*
Y30095D01*
X14933Y26824D02*
Y27787D01*
X27811Y34953D02*
Y35260D01*
X27787Y38311D02*
X28108D01*
X25642D02*
X25944D01*
X23394D02*
X23703D01*
X21882Y37815D02*
X22232D01*
X21463Y38234D02*
X21882Y37815D01*
X21463Y38234D02*
Y38311D01*
X22112D02*
X22317Y38106D01*
X22709D01*
X23816Y36999D01*
Y30095D02*
Y36999D01*
X13350Y24567D02*
X22276D01*
X13043Y24339D02*
X22462D01*
X23225Y25102D02*
Y25725D01*
X23422Y24819D02*
Y25725D01*
X12717Y24063D02*
X22666D01*
X11413Y24660D02*
Y26980D01*
X24353Y37597D02*
Y38311D01*
X24013Y37257D02*
X24353Y37597D01*
X24013Y30095D02*
Y37257D01*
X24210Y30095D02*
Y35927D01*
X26485Y37718D02*
X28164D01*
X16724Y25236D02*
X16957Y25468D01*
X14455Y25236D02*
X16724D01*
X30150Y26111D02*
X30951D01*
X29480Y25374D02*
X30189Y26083D01*
X30322Y25950D01*
X27961Y25374D02*
X29480D01*
X24997Y25308D02*
Y25725D01*
Y25308D02*
X25198Y25107D01*
X27693D01*
X27961Y25374D01*
X29533Y26089D02*
Y26565D01*
X32335Y26622D02*
X32480Y26768D01*
X29591Y26622D02*
X32335D01*
X29533Y26565D02*
X29591Y26622D01*
X28724Y35524D02*
Y36488D01*
X28461Y35260D02*
X28724Y35524D01*
X27988Y35732D02*
X28461Y35260D01*
X27177Y35732D02*
X27988D01*
X27051Y35606D02*
X27177Y35732D01*
X27051Y35264D02*
Y35606D01*
X29533Y32967D02*
X29665Y33098D01*
X29533Y31650D02*
Y32967D01*
X29606Y29339D02*
X32480D01*
X29533Y29266D02*
X29606Y29339D01*
X29533Y28925D02*
Y29266D01*
X25428Y30132D02*
X25673D01*
X25391Y30095D02*
X25428Y30132D01*
X22576Y32257D02*
X22579Y32254D01*
Y32283D01*
X22576Y31851D02*
Y32257D01*
X14677Y25776D02*
X15701D01*
X14598Y25854D02*
Y25980D01*
Y25854D02*
X14677Y25776D01*
X27051Y35264D02*
X27055Y35260D01*
Y34933D02*
Y35260D01*
X26233Y29827D02*
X26823D01*
X26005Y29598D02*
X26233Y29827D01*
X24925Y29598D02*
X26005D01*
X23532Y28205D02*
X24925Y29598D01*
X21729Y28205D02*
X23532D01*
X6827Y28165D02*
Y28846D01*
X7358Y29378D02*
X10783D01*
X38835Y40600D02*
X38839Y40596D01*
X38835Y40600D02*
Y41187D01*
X38161Y40591D02*
X38165Y40594D01*
Y41187D01*
X36260Y41047D02*
X37049Y41837D01*
X38165D01*
X38421Y42650D02*
X38823Y42248D01*
Y41843D02*
Y42248D01*
X31295Y35093D02*
X31320Y35118D01*
X32079D01*
Y34756D02*
Y35118D01*
Y34756D02*
X32244Y34591D01*
X38409D01*
X31252Y38445D02*
X31591D01*
X31717Y38319D01*
Y38209D02*
Y38319D01*
X32553Y36242D02*
Y36704D01*
X31644Y39846D02*
X32053Y39437D01*
Y38839D02*
Y39437D01*
X31252Y39846D02*
X31644D01*
X28835Y38321D02*
X28980Y38467D01*
Y39126D01*
X28835Y38311D02*
Y38321D01*
X36260Y40394D02*
Y41047D01*
X37709Y42650D02*
X38421D01*
X13291Y26374D02*
X13654D01*
X13169Y26252D02*
X13291Y26374D01*
X13169Y25378D02*
Y26252D01*
Y25378D02*
X13311Y25236D01*
X13805D01*
X25354Y28993D02*
X26099D01*
Y27418D02*
X26691D01*
X26099Y27615D02*
X26834D01*
X26535Y27221D02*
X26971Y26785D01*
X26099Y27221D02*
X26535D01*
X27189Y27590D02*
X27994D01*
X27674Y27317D02*
X27693Y27336D01*
X26968Y27812D02*
X27189Y27590D01*
X27057Y27051D02*
X27395D01*
X27131Y27317D02*
X27674D01*
X23619Y29519D02*
Y30095D01*
X26691Y27418D02*
X27057Y27051D01*
X26099Y27812D02*
X26968D01*
X26834Y27615D02*
X27131Y27317D01*
X26971Y26785D02*
X27091D01*
X23724Y28973D02*
X23748Y28998D01*
Y29390D01*
X23619Y29519D02*
X23748Y29390D01*
X23422Y29219D02*
X23426Y29215D01*
X23422Y29219D02*
Y30095D01*
X23028Y29452D02*
X23036D01*
X28164Y37718D02*
X28758Y38311D01*
Y38311D01*
X26756Y38808D02*
Y39126D01*
X26594Y38646D02*
X26756Y38808D01*
X26594Y38311D02*
Y38646D01*
X24210Y35927D02*
X26594Y38311D01*
X15447Y29175D02*
X15453Y29169D01*
Y28417D02*
Y29169D01*
X15115Y29497D02*
X15122Y29489D01*
Y26665D02*
Y29489D01*
X14831Y26374D02*
X15122Y26665D01*
X14820Y28798D02*
X14933Y28685D01*
Y27787D02*
Y28685D01*
X15299Y28264D02*
X15453Y28417D01*
X15299Y26127D02*
Y28264D01*
X648Y31340D02*
Y31657D01*
Y31340D02*
X650Y31338D01*
X10847Y31338D02*
Y31657D01*
Y31338D02*
X10847Y31338D01*
X15947Y31335D02*
X15947Y31336D01*
Y31657D01*
X8559Y27909D02*
X10484D01*
X8559Y27654D02*
Y27909D01*
X11783Y24996D02*
Y28378D01*
X6744Y29669D02*
X11098D01*
X6173Y28154D02*
Y29098D01*
X12098Y25283D02*
Y28669D01*
X3807Y28165D02*
Y28980D01*
X4807Y29980D02*
X11390D01*
X12390Y25528D02*
Y28980D01*
X23028Y25320D02*
Y25725D01*
X29364Y29693D02*
X31307D01*
X25410Y30678D02*
X28379D01*
X29364Y29693D01*
X25340Y30871D02*
X29497D01*
X29624Y30744D02*
X29624D01*
X29497Y30871D02*
X29624Y30744D01*
X29589Y31060D02*
X30179Y31650D01*
X25245Y31060D02*
X29589D01*
X29589Y31060D01*
X28937Y28402D02*
X29659D01*
X26099Y28402D02*
X28936D01*
X28937Y28402D01*
X28614Y28205D02*
X28890Y27929D01*
X26099Y28205D02*
X28614D01*
X28043Y28008D02*
X29110Y26941D01*
X26099Y28008D02*
X28043D01*
X28218Y24891D02*
X28569D01*
X29346Y24114D02*
X31374D01*
X28569Y24891D02*
X29346Y24114D01*
X28040Y24713D02*
X28218Y24891D01*
X24907Y24713D02*
X28040D01*
X28079Y25189D02*
X29634D01*
X27812Y24922D02*
X28079Y25189D01*
X25012Y24922D02*
X27812D01*
X24800Y25134D02*
X25012Y24922D01*
X24603Y25017D02*
X24907Y24713D01*
X6827Y27909D02*
Y28165D01*
X24800Y25134D02*
Y25725D01*
X24603Y25017D02*
Y25725D01*
X24800Y30615D02*
X25245Y31060D01*
X24997Y30095D02*
Y30528D01*
X24800Y30095D02*
Y30615D01*
X25194Y30461D02*
X25410Y30678D01*
X25194Y30095D02*
Y30461D01*
X24997Y30528D02*
X25340Y30871D01*
X23217Y31073D02*
X23267Y31123D01*
X21722Y28395D02*
X21729Y28402D01*
X21190Y28993D02*
X21729D01*
X21099Y28796D02*
X21729D01*
X23217Y30103D02*
Y31073D01*
Y30103D02*
X23225Y30095D01*
X22568Y31123D02*
X23267D01*
X18849Y29193D02*
X19712D01*
X19423Y27978D02*
X19741Y28296D01*
X19054Y27347D02*
X19751D01*
X19023Y27378D02*
X19054Y27347D01*
X19423Y27976D02*
Y27978D01*
X19262Y27815D02*
X19423Y27976D01*
X19741Y28296D02*
X19751D01*
X19761D01*
X20147Y27910D01*
X20143Y29756D02*
X20891D01*
X21040Y29142D02*
Y29607D01*
Y29142D02*
X21190Y28993D01*
X20891Y29756D02*
X21040Y29607D01*
X20851Y29044D02*
Y29497D01*
X20769Y29579D02*
X20851Y29497D01*
Y29044D02*
X21099Y28796D01*
X20107Y29579D02*
X20769D01*
X19751Y27347D02*
X19761D01*
X20103Y27690D01*
X19712Y29193D02*
X19751Y29233D01*
X19761D01*
X20107Y29579D01*
X18849Y30178D02*
X19712D01*
X19751Y30138D01*
X19761D02*
X20143Y29756D01*
X19751Y30138D02*
X19761D01*
X18235Y28195D02*
X18422Y28008D01*
X18471D02*
X18664Y27815D01*
X18422Y28008D02*
X18471D01*
X18664Y27815D02*
X19262D01*
X30947Y30146D02*
X30947Y30146D01*
X30183Y30146D02*
X30947D01*
X31307Y29693D02*
X31484Y29870D01*
Y30543D01*
X30179Y31650D02*
X30183Y31646D01*
X30947D01*
X29624Y30744D02*
X30179Y30189D01*
X30967Y30626D02*
X31402D01*
X30947Y30646D02*
Y31146D01*
Y30646D02*
X30967Y30626D01*
X31402D02*
X31484Y30543D01*
X30183Y28925D02*
X30950D01*
X29659Y28402D02*
X30183Y28925D01*
X30950D02*
X30951Y28926D01*
X30951Y25111D02*
Y25611D01*
X31374Y24114D02*
X31524Y24264D01*
X29634Y25189D02*
X30183Y24640D01*
Y24618D02*
Y24640D01*
Y24618D02*
X30943D01*
X31259Y25111D02*
X31524Y24846D01*
X30943Y24618D02*
X30951Y24611D01*
X31524Y24264D02*
Y24846D01*
X30951Y25111D02*
X31259D01*
X29691Y27929D02*
X30183Y27437D01*
X28890Y27929D02*
X29691D01*
X30951Y27426D02*
X30961Y27416D01*
X30940Y27437D02*
X30951Y27426D01*
X30183Y27437D02*
X30940D01*
X30951Y27926D02*
Y28426D01*
X29110Y26941D02*
X31256D01*
X31532Y27217D01*
Y27728D01*
X31334Y27926D02*
X31532Y27728D01*
X30951Y27926D02*
X31334D01*
X18235Y28195D02*
Y28245D01*
X15153Y25980D02*
X15299Y26127D01*
X14598Y26374D02*
X14831D01*
X14598Y26571D02*
X14680D01*
X14738Y27780D02*
X14762Y27756D01*
X14902D01*
X14680Y26571D02*
X14933Y26824D01*
X14598Y25980D02*
X15153D01*
X14831Y26374D02*
X14870D01*
X14902Y27756D02*
X14933Y27787D01*
X14870Y26374D02*
X15022Y26222D01*
X15701Y27350D02*
Y27756D01*
X15701Y26201D02*
Y26553D01*
X3807Y27909D02*
Y28165D01*
X5539Y27909D02*
X5929D01*
X5539Y27654D02*
Y27909D01*
X16984Y32045D02*
Y33346D01*
X15980Y33598D02*
X16732D01*
X16984Y33346D01*
X11497Y31657D02*
X11866Y32027D01*
X16596Y31657D02*
X16984Y32045D01*
X10888Y33598D02*
X10892Y33594D01*
X11614D02*
X11866Y33343D01*
X10892Y33594D02*
X11614D01*
X11866Y32027D02*
Y33343D01*
X6397Y31657D02*
X6783Y32044D01*
X6398Y33598D02*
X6783Y33213D01*
Y32044D02*
Y33213D01*
X5797Y33598D02*
X6398D01*
X5747Y31339D02*
Y31657D01*
X1236Y33598D02*
X1626Y33209D01*
X705Y33598D02*
X1236D01*
X1626Y31986D02*
Y33209D01*
X1297Y31657D02*
X1626Y31986D01*
X24532Y38499D02*
Y39126D01*
X24353Y38321D02*
X24532Y38499D01*
X22307Y38516D02*
Y39126D01*
X24353Y38311D02*
Y38321D01*
X22112Y38311D02*
Y38321D01*
X22307Y38516D01*
X5747Y31339D02*
X5748Y31339D01*
X32037Y36720D02*
X32053Y36704D01*
X31315Y36427D02*
X31325D01*
X31618Y36720D01*
X32037D01*
X31295Y35742D02*
X31329Y35708D01*
X32079D01*
X31295Y35742D02*
Y36407D01*
X31315Y36427D01*
X32553Y36704D02*
Y36876D01*
X31252Y38445D02*
Y39197D01*
D22*
X38406Y44591D02*
D03*
Y46244D02*
D03*
D23*
X34500Y45717D02*
D03*
X37165D02*
D03*
D24*
X22112Y43559D02*
D03*
X21463D02*
D03*
X24353D02*
D03*
X23703D02*
D03*
X28108Y38311D02*
D03*
X28758D02*
D03*
X25944D02*
D03*
X26594D02*
D03*
X23703D02*
D03*
X24353D02*
D03*
X21463D02*
D03*
X22112D02*
D03*
X26594Y43559D02*
D03*
X25944D02*
D03*
X18280Y26571D02*
D03*
X18929D02*
D03*
X29533Y30146D02*
D03*
X30183D02*
D03*
X30183Y31650D02*
D03*
X29533D02*
D03*
X30183Y28925D02*
D03*
X29533D02*
D03*
X30183Y26083D02*
D03*
X29533D02*
D03*
X29533Y24618D02*
D03*
X30183D02*
D03*
X29533Y27437D02*
D03*
X30183D02*
D03*
X16350Y27350D02*
D03*
X15701D02*
D03*
X15701Y26553D02*
D03*
X16350D02*
D03*
X14455Y25236D02*
D03*
X13805D02*
D03*
X16350Y25776D02*
D03*
X15701D02*
D03*
X15947Y31657D02*
D03*
X16596D02*
D03*
X10847D02*
D03*
X11497D02*
D03*
X5747D02*
D03*
X6397D02*
D03*
X648D02*
D03*
X1297D02*
D03*
X28108Y43559D02*
D03*
X28758D02*
D03*
X27811Y35260D02*
D03*
X28461D02*
D03*
D25*
X23531Y39126D02*
D03*
X24532D02*
D03*
X23531Y42748D02*
D03*
X24532D02*
D03*
X21307Y39126D02*
D03*
X22307D02*
D03*
X21307Y42748D02*
D03*
X22307D02*
D03*
X25756Y39126D02*
D03*
X26756D02*
D03*
X25756Y42748D02*
D03*
X26756D02*
D03*
X28724Y36488D02*
D03*
X26165D02*
D03*
X28980Y42748D02*
D03*
X27980D02*
D03*
X28980Y39126D02*
D03*
X27980D02*
D03*
D26*
X33094Y42902D02*
D03*
Y42035D02*
D03*
D27*
X32142Y40945D02*
D03*
X33362D02*
D03*
D28*
X35673Y43764D02*
D03*
Y42031D02*
D03*
D29*
X37709Y43398D02*
D03*
Y42650D02*
D03*
X38654Y43024D02*
D03*
D30*
X38165Y41837D02*
D03*
Y41187D02*
D03*
X38835Y41187D02*
D03*
Y41837D02*
D03*
X31295Y35742D02*
D03*
Y35093D02*
D03*
X1622Y29689D02*
D03*
Y29039D02*
D03*
X23288Y31837D02*
D03*
Y31188D02*
D03*
X22576Y31851D02*
D03*
Y31201D02*
D03*
X30575Y35762D02*
D03*
Y35112D02*
D03*
X31252Y39846D02*
D03*
Y39197D02*
D03*
X31315Y36427D02*
D03*
Y37077D02*
D03*
D31*
X35039Y40394D02*
D03*
X36260D02*
D03*
Y39378D02*
D03*
X35039D02*
D03*
D32*
X35795Y37858D02*
D03*
Y35654D02*
D03*
D33*
X32079Y35708D02*
D03*
Y35118D02*
D03*
X21965Y31847D02*
D03*
Y31256D02*
D03*
X21340Y31855D02*
D03*
Y31264D02*
D03*
X20245Y25918D02*
D03*
Y26508D02*
D03*
X19603Y25918D02*
D03*
Y26508D02*
D03*
X31268Y38429D02*
D03*
Y37839D02*
D03*
D34*
X22438Y30095D02*
D03*
X22635D02*
D03*
X22832D02*
D03*
X23028D02*
D03*
X23225D02*
D03*
X23422D02*
D03*
X23619D02*
D03*
X23816D02*
D03*
X24013D02*
D03*
X24210D02*
D03*
X24406D02*
D03*
X24603D02*
D03*
X24800D02*
D03*
X24997D02*
D03*
X25194D02*
D03*
X25391D02*
D03*
Y25725D02*
D03*
X25194D02*
D03*
X24997D02*
D03*
X24800D02*
D03*
X24603D02*
D03*
X24406D02*
D03*
X24210D02*
D03*
X24013D02*
D03*
X23816D02*
D03*
X23619D02*
D03*
X23422D02*
D03*
X23225D02*
D03*
X23028D02*
D03*
X22832D02*
D03*
X22635D02*
D03*
X22438D02*
D03*
D35*
X26099Y29386D02*
D03*
Y29190D02*
D03*
Y28993D02*
D03*
Y28796D02*
D03*
Y28599D02*
D03*
Y28402D02*
D03*
Y28205D02*
D03*
Y28008D02*
D03*
Y27812D02*
D03*
Y27615D02*
D03*
Y27418D02*
D03*
Y27221D02*
D03*
Y27024D02*
D03*
Y26827D02*
D03*
Y26630D02*
D03*
Y26434D02*
D03*
X21729D02*
D03*
Y26630D02*
D03*
Y26827D02*
D03*
Y27024D02*
D03*
Y27221D02*
D03*
Y27418D02*
D03*
Y27615D02*
D03*
Y27812D02*
D03*
Y28008D02*
D03*
Y28205D02*
D03*
Y28402D02*
D03*
Y28599D02*
D03*
Y28796D02*
D03*
Y28993D02*
D03*
Y29190D02*
D03*
Y29386D02*
D03*
D36*
X2315Y28303D02*
D03*
X1724D02*
D03*
X2315Y27614D02*
D03*
X1724D02*
D03*
X26977Y25741D02*
D03*
X27568D02*
D03*
X26981Y29394D02*
D03*
X27572D02*
D03*
X20217Y25059D02*
D03*
X19626D02*
D03*
X19751Y28296D02*
D03*
X20341D02*
D03*
X20341Y29233D02*
D03*
X19751D02*
D03*
X19751Y27347D02*
D03*
X20341D02*
D03*
X20341Y30138D02*
D03*
X19751D02*
D03*
X33709Y29532D02*
D03*
X33118D02*
D03*
X33709Y32280D02*
D03*
X33118D02*
D03*
X33709Y26768D02*
D03*
X33118D02*
D03*
X13830Y27325D02*
D03*
X14421D02*
D03*
X4945Y28921D02*
D03*
X5535D02*
D03*
X7969D02*
D03*
X8559D02*
D03*
X33516Y35154D02*
D03*
X32925D02*
D03*
X26461Y35264D02*
D03*
X27051D02*
D03*
D37*
X2319Y29732D02*
D03*
Y29059D02*
D03*
D38*
X6827Y28165D02*
D03*
Y27909D02*
D03*
Y27654D02*
D03*
Y27398D02*
D03*
X8559Y28165D02*
D03*
Y27909D02*
D03*
Y27654D02*
D03*
Y27398D02*
D03*
X3807Y28165D02*
D03*
Y27909D02*
D03*
Y27654D02*
D03*
Y27398D02*
D03*
X5539Y28165D02*
D03*
Y27909D02*
D03*
Y27654D02*
D03*
Y27398D02*
D03*
D39*
X19023Y27378D02*
D03*
Y28245D02*
D03*
X18235Y27378D02*
D03*
Y28245D02*
D03*
D40*
X18217Y25850D02*
D03*
X18890D02*
D03*
D41*
X18849Y29193D02*
D03*
Y30178D02*
D03*
D42*
X35980Y25358D02*
D03*
X35154Y24984D02*
D03*
Y25732D02*
D03*
X35980Y28189D02*
D03*
X35154Y27815D02*
D03*
Y28563D02*
D03*
X35976Y30878D02*
D03*
X35150Y30504D02*
D03*
Y31252D02*
D03*
D43*
X30947Y31646D02*
D03*
Y31146D02*
D03*
Y30646D02*
D03*
Y30146D02*
D03*
X33093Y31646D02*
D03*
Y31146D02*
D03*
Y30646D02*
D03*
Y30146D02*
D03*
X30951Y28926D02*
D03*
Y28426D02*
D03*
Y27926D02*
D03*
Y27426D02*
D03*
X33096Y28926D02*
D03*
Y28426D02*
D03*
Y27926D02*
D03*
Y27426D02*
D03*
X30951Y26111D02*
D03*
Y25611D02*
D03*
Y25111D02*
D03*
Y24611D02*
D03*
X33096Y26111D02*
D03*
Y25611D02*
D03*
Y25111D02*
D03*
Y24611D02*
D03*
D44*
X34205Y31291D02*
D03*
Y30504D02*
D03*
Y25760D02*
D03*
Y24972D02*
D03*
X34205Y28579D02*
D03*
Y27791D02*
D03*
D45*
X14126Y26276D02*
D03*
D46*
X13654Y25980D02*
D03*
Y26177D02*
D03*
Y26374D02*
D03*
Y26571D02*
D03*
X14598D02*
D03*
Y26374D02*
D03*
Y26177D02*
D03*
Y25980D02*
D03*
D47*
X18583Y35035D02*
D03*
X17126D02*
D03*
X13470D02*
D03*
X12013D02*
D03*
X8357D02*
D03*
X6900D02*
D03*
X3244D02*
D03*
X1787D02*
D03*
D48*
X15980Y33598D02*
D03*
Y32598D02*
D03*
X19602Y33598D02*
D03*
Y32598D02*
D03*
X5797Y33598D02*
D03*
Y32598D02*
D03*
X9419Y33598D02*
D03*
Y32598D02*
D03*
X10888Y33598D02*
D03*
Y32598D02*
D03*
X14511Y33598D02*
D03*
Y32598D02*
D03*
X705Y33598D02*
D03*
Y32598D02*
D03*
X4327Y33598D02*
D03*
Y32598D02*
D03*
D49*
X38839Y40596D02*
D03*
Y39986D02*
D03*
X38161Y39980D02*
D03*
Y40591D02*
D03*
D50*
X33553Y38839D02*
D03*
X33053D02*
D03*
X32553D02*
D03*
X32053D02*
D03*
Y36704D02*
D03*
X32553D02*
D03*
X33053D02*
D03*
X33553D02*
D03*
D51*
X32803Y37772D02*
D03*
D52*
X33256Y39878D02*
D03*
X32469D02*
D03*
D90*
X4417Y27323D02*
G03*
X4087Y27654I-331J0D01*
G01*
X4055Y26819D02*
G03*
X4417Y27181I0J362D01*
G01*
X999Y26030D02*
G03*
X977Y25819I978J-211D01*
G01*
X1977Y26819D02*
G03*
X999Y26030I0J-1000D01*
G01*
X6612Y27654D02*
G03*
X6272Y27314I0J-340D01*
G01*
Y26855D02*
G03*
X6512Y26276I820J0D01*
G01*
X6662Y25913D02*
G03*
X6512Y26276I-512J0D01*
G01*
X4634Y26378D02*
G03*
X3823Y25567I0J-811D01*
G01*
X8559Y26661D02*
G03*
X9106Y26114I547J0D01*
G01*
X9497Y25724D02*
G03*
X9106Y26114I-390J0D01*
G01*
X5193Y26378D02*
G03*
X5539Y26724I0J346D01*
G01*
X14126Y26276D02*
X14224Y26177D01*
X14598D01*
X20341Y30138D02*
Y30714D01*
X17750Y27372D02*
X17756Y27378D01*
X18235D01*
X17335Y25287D02*
X19004D01*
X17300Y25322D02*
X17335Y25287D01*
X17300Y25850D02*
X18217D01*
X19287Y25059D02*
X19626D01*
X3807Y27654D02*
X4087D01*
X4417Y27181D02*
Y27323D01*
X1977Y26819D02*
X4055D01*
X977Y25142D02*
Y25819D01*
X14319Y29417D02*
Y29994D01*
X13830Y28929D02*
X14319Y29417D01*
X13830Y27325D02*
Y28929D01*
X20217Y25059D02*
Y25323D01*
X19004Y25287D02*
X19140Y25423D01*
X19181D02*
X19183Y25425D01*
X20114D01*
X19140Y25423D02*
X19181D01*
X20114Y25425D02*
X20217Y25323D01*
X20603Y25918D02*
X20803Y26118D01*
Y26568D01*
X20245Y25918D02*
X20603D01*
X18929Y26571D02*
X19181D01*
X19244Y26508D01*
X19603D01*
X19536Y25850D02*
X19603Y25918D01*
X18890Y25850D02*
X19536D01*
X19549Y25854D02*
X19603Y25908D01*
Y25918D02*
X20245D01*
X19603Y25908D02*
Y25910D01*
X20245Y26508D02*
X20958Y27221D01*
X21729D01*
X19603Y26508D02*
X20245D01*
X19603Y25910D02*
X19741Y25772D01*
X19466Y25770D02*
X19549Y25854D01*
X21259Y27024D02*
X21595D01*
X20803Y26568D02*
X21259Y27024D01*
X21965Y30968D02*
Y31256D01*
Y30968D02*
X22438Y30495D01*
Y30095D02*
Y30495D01*
X13380Y27325D02*
X13830D01*
X13295Y27240D02*
X13380Y27325D01*
X13295Y26681D02*
Y27240D01*
Y26681D02*
X13406Y26571D01*
X13654D01*
X20217Y25059D02*
X20240Y25083D01*
X22575D01*
X22832Y25340D01*
Y25725D01*
X6272Y26855D02*
Y27314D01*
X6612Y27654D02*
X6827D01*
X6662Y25142D02*
Y25913D01*
X4634Y26378D02*
X5193D01*
X3823Y25142D02*
Y25567D01*
X8559Y26661D02*
Y27398D01*
X9497Y25142D02*
Y25724D01*
X21332Y30611D02*
X21729Y30213D01*
Y29386D02*
Y30213D01*
X37189Y28080D02*
X37787Y27482D01*
X36276Y25732D02*
X36533Y25475D01*
X37217D01*
X36533Y28080D02*
X37189D01*
X37217Y25475D02*
X37787Y26046D01*
X37787Y27453D02*
Y27482D01*
X37217Y25257D02*
X37787Y24686D01*
X36517Y25257D02*
X37217D01*
X37787Y24677D02*
Y24686D01*
X37255Y28298D02*
X37787Y28831D01*
X34421Y27969D02*
Y28007D01*
X34784Y28076D02*
X34957Y27904D01*
X33988Y27969D02*
Y28000D01*
X34165Y27791D02*
X34205D01*
X34244D02*
X34421Y27969D01*
X33988D02*
X34165Y27791D01*
X34421Y28007D02*
X34490Y28076D01*
X34205Y27791D02*
X34244D01*
X34490Y28076D02*
X34784D01*
X34957Y27874D02*
Y27904D01*
X34421Y25188D02*
X34490Y25257D01*
X34743D01*
X34421Y25150D02*
Y25188D01*
X34743Y25257D02*
X35016Y24984D01*
X34490Y25475D02*
X34759D01*
X35016Y25732D02*
X35154D01*
X34421Y25544D02*
X34490Y25475D01*
X34759D02*
X35016Y25732D01*
Y24984D02*
X35154D01*
X34421Y25544D02*
Y25583D01*
Y30719D02*
X34490Y30789D01*
X36245Y24984D02*
X36517Y25257D01*
X35154Y24984D02*
X36245D01*
X35154Y25732D02*
X36276D01*
X34957Y27874D02*
X35016Y27815D01*
X35154D01*
X36268D01*
X36533Y28080D01*
X36267Y28563D02*
X36532Y28298D01*
X37255D01*
X37194Y30987D02*
X37783Y31577D01*
Y31630D01*
X36598Y30769D02*
X37199D01*
X37440Y30528D01*
X36598Y30987D02*
X37194D01*
X37440Y30528D02*
X37444D01*
X37720Y30252D02*
X37783D01*
X37444Y30528D02*
X37720Y30252D01*
X34957Y28449D02*
Y28504D01*
X35012Y31252D02*
X35150D01*
X35154Y28563D02*
X36267D01*
X35016D02*
X35154D01*
X34957Y28504D02*
X35016Y28563D01*
X34165Y28579D02*
X34205D01*
X33096Y28426D02*
X33251D01*
X34205Y28579D02*
X34244D01*
X34490Y31007D02*
X34772D01*
X34490Y30789D02*
X34772D01*
X34165Y31291D02*
X34205D01*
X34772Y31012D02*
X35012Y31252D01*
X33879Y31005D02*
X34165Y31291D01*
X34421Y31076D02*
Y31114D01*
X34244Y31291D02*
X34421Y31114D01*
X34772Y31007D02*
Y31012D01*
X34421Y31076D02*
X34490Y31007D01*
X34205Y31291D02*
X34244D01*
X33247Y31146D02*
X33388Y31005D01*
X33093Y31146D02*
X33247D01*
X36333Y31252D02*
X36598Y30987D01*
X35150Y31252D02*
X36333D01*
X33388Y31005D02*
X33879D01*
X34421Y30681D02*
Y30719D01*
X33093Y30646D02*
X33247D01*
X33388Y30787D01*
X33883D01*
X34165Y30504D01*
X34205D02*
X34244D01*
X34165D02*
X34205D01*
X34244D02*
X34421Y30681D01*
X35150Y30504D02*
X36333D01*
X36598Y30769D01*
X34772Y30744D02*
X35012Y30504D01*
X35150D01*
X34772Y30744D02*
Y30789D01*
X34421Y28363D02*
X34490Y28294D01*
X34802D02*
X34957Y28449D01*
X34490Y28294D02*
X34802D01*
X34244Y25760D02*
X34421Y25583D01*
X33875Y25470D02*
X34165Y25760D01*
X33251Y25111D02*
X33392Y25252D01*
X33251Y25611D02*
X33392Y25470D01*
Y25252D02*
X33886D01*
X34165Y24972D02*
X34205D01*
X34244D02*
X34421Y25150D01*
X34205Y24972D02*
X34244D01*
X33392Y25470D02*
X33875D01*
X34205Y25760D02*
X34244D01*
X34165D02*
X34205D01*
X33886Y25252D02*
X34165Y24972D01*
X33919Y28069D02*
X33988Y28000D01*
X33096Y27926D02*
X33251D01*
X33392Y28067D01*
X33251Y28426D02*
X33392Y28285D01*
X33096Y25111D02*
X33251D01*
X33096Y25611D02*
X33251D01*
X34244Y28579D02*
X34421Y28402D01*
X33988D02*
X34165Y28579D01*
X33731Y28287D02*
X33912D01*
X33728Y28285D02*
X33731Y28287D01*
X33819Y28067D02*
X33821Y28069D01*
X33919D01*
X33392Y28067D02*
X33819D01*
X33392Y28285D02*
X33728D01*
X33912Y28287D02*
X33988Y28363D01*
Y28402D01*
X34421Y28363D02*
Y28402D01*
X21332Y30611D02*
Y31186D01*
X5539Y26724D02*
Y27398D01*
X32553Y38839D02*
X33053D01*
D91*
X27519Y31889D02*
X28728Y33098D01*
X25714Y31889D02*
X27519D01*
X29665Y33098D02*
X37945D01*
X30071Y42035D02*
X33094D01*
X29815D02*
X30071D01*
X28728Y33098D02*
X29134D01*
X29665D01*
X38551Y33705D02*
Y34059D01*
X37945Y33098D02*
X38551Y33705D01*
D92*
X33130Y31682D02*
Y32307D01*
X33115Y28945D02*
Y29532D01*
X33115Y26759D02*
X33134Y26778D01*
X2319Y27618D02*
Y29059D01*
X2315Y27614D02*
X2319Y27618D01*
X32524Y32280D02*
X33118D01*
X33115Y29532D02*
X33118D01*
X32512D02*
X33115D01*
X32673Y26768D02*
X33118D01*
X33134Y26774D02*
Y26778D01*
X33096Y28926D02*
X33115Y28945D01*
X33093Y31646D02*
X33094D01*
X33130Y31682D01*
X33115Y26129D02*
Y26755D01*
X33096Y26111D02*
X33115Y26129D01*
X8559Y28165D02*
Y28921D01*
X5537Y28167D02*
X5539Y28165D01*
X5537Y28167D02*
Y28919D01*
X5535Y28921D02*
X5537Y28919D01*
D93*
X16508Y35035D02*
X17126D01*
X11445D02*
X12013D01*
X6295D02*
X6900D01*
X1146D02*
X1787D01*
X2319Y29732D02*
Y30449D01*
X2496Y30626D01*
X13476D01*
X14319Y29994D02*
X17429D01*
X14108D02*
X14319D01*
X29133Y32781D02*
X29134Y32781D01*
Y33098D01*
X13476Y30626D02*
X14108Y29994D01*
X27756Y44492D02*
X28108Y44140D01*
Y43559D02*
Y44140D01*
X27756Y44492D02*
Y45736D01*
X25944Y43559D02*
Y44535D01*
X26378Y44969D01*
Y45736D01*
X23703Y44014D02*
X24992Y45303D01*
Y45736D01*
X21941Y44650D02*
X22630D01*
X23614Y45634D01*
Y45736D01*
X23703Y43559D02*
Y44014D01*
X21463Y44171D02*
X21941Y44650D01*
X21463Y43559D02*
Y44171D01*
X18583Y33866D02*
Y35035D01*
Y33866D02*
X18823Y33626D01*
X19575D01*
X19602Y33598D01*
X13470Y33865D02*
X13693Y33642D01*
X13470Y33865D02*
Y35035D01*
X13693Y33642D02*
X14467D01*
X14511Y33598D01*
X11220Y36492D02*
X11764D01*
X12013Y35035D02*
Y36243D01*
X11764Y36492D02*
X12013Y36243D01*
X13470Y36344D02*
X13618Y36492D01*
X13470Y35035D02*
Y36344D01*
X13618Y36492D02*
X14220D01*
X6098Y36484D02*
X6748D01*
X8563Y36492D02*
X9091D01*
X8357Y35035D02*
Y36286D01*
X6091Y36492D02*
X6098Y36484D01*
X6900Y35035D02*
Y36332D01*
X6748Y36484D02*
X6900Y36332D01*
X8357Y36286D02*
X8563Y36492D01*
X16350D02*
X16937D01*
X17126Y36303D01*
Y35035D02*
Y36303D01*
X18583Y36350D02*
X18724Y36492D01*
X19350D01*
X18583Y35035D02*
Y36350D01*
X9367Y33650D02*
X9419Y33598D01*
X8357Y33875D02*
Y35035D01*
Y33875D02*
X8583Y33650D01*
X9367D01*
X961Y36492D02*
X1512D01*
X3232Y35047D02*
X3244Y35035D01*
X1787D02*
Y36217D01*
X1512Y36492D02*
X1787Y36217D01*
X3232Y36311D02*
X3413Y36492D01*
X3232Y35047D02*
Y36311D01*
X3413Y36492D02*
X3961D01*
X3244Y33772D02*
Y35035D01*
X3417Y33598D02*
X4327D01*
X3244Y33772D02*
X3417Y33598D01*
X28980Y42748D02*
Y43404D01*
X24532Y42748D02*
Y43371D01*
X22112Y43549D02*
Y43559D01*
X24353Y43549D02*
X24532Y43371D01*
X22112Y43549D02*
X22307Y43354D01*
Y42748D02*
Y43354D01*
X24353Y43549D02*
Y43559D01*
X26756Y42748D02*
Y43387D01*
X28835Y43549D02*
X28980Y43404D01*
X28835Y43549D02*
Y43559D01*
X26594Y43549D02*
X26756Y43387D01*
X26594Y43549D02*
Y43559D01*
D94*
X31500Y45693D02*
D03*
X7592Y45720D02*
D03*
X6214D02*
D03*
X2465D02*
D03*
X1087D02*
D03*
X12719D02*
D03*
X11341D02*
D03*
X17846D02*
D03*
X16468D02*
D03*
X26378Y45736D02*
D03*
X23614D02*
D03*
X22236D02*
D03*
X37787Y26055D02*
D03*
X37787Y28831D02*
D03*
X37783Y31630D02*
D03*
X10874Y25142D02*
D03*
X8040D02*
D03*
X5201D02*
D03*
X2355D02*
D03*
D95*
X32878Y45693D02*
D03*
X8970Y45720D02*
D03*
X3843D02*
D03*
X14097D02*
D03*
X19224D02*
D03*
X27756Y45736D02*
D03*
X24992D02*
D03*
X9497Y25142D02*
D03*
X6662D02*
D03*
X3823D02*
D03*
X977D02*
D03*
D96*
X961Y36492D02*
D03*
Y42492D02*
D03*
X3961Y43492D02*
D03*
Y40492D02*
D03*
Y36492D02*
D03*
X9091D02*
D03*
Y40492D02*
D03*
Y43492D02*
D03*
X6091Y42492D02*
D03*
Y36492D02*
D03*
X11220D02*
D03*
Y42492D02*
D03*
X14220Y43492D02*
D03*
Y40492D02*
D03*
Y36492D02*
D03*
X16350D02*
D03*
Y42492D02*
D03*
X19350Y43492D02*
D03*
Y40492D02*
D03*
Y36492D02*
D03*
D97*
X37787Y24677D02*
D03*
X37787Y27453D02*
D03*
X37783Y30252D02*
D03*
D98*
X25575Y24217D02*
D03*
X26575D02*
D03*
X27575D02*
D03*
D99*
X24575D02*
D03*
D100*
X35559Y39406D02*
D03*
Y39760D02*
D03*
Y40114D02*
D03*
Y40469D02*
D03*
X34051Y39941D02*
D03*
Y40290D02*
D03*
Y40639D02*
D03*
Y40988D02*
D03*
X39016Y46532D02*
D03*
X38980Y46213D02*
D03*
X38984Y45854D02*
D03*
X38776Y45484D02*
D03*
X38461Y45500D02*
D03*
X38134Y45508D02*
D03*
X31913Y43862D02*
D03*
X31417D02*
D03*
X30941D02*
D03*
X31913Y44409D02*
D03*
X31417Y44449D02*
D03*
X30941Y44392D02*
D03*
X31913Y44933D02*
D03*
X31417D02*
D03*
X30941D02*
D03*
X30606Y38941D02*
D03*
X30594Y38433D02*
D03*
X30618Y37988D02*
D03*
Y37531D02*
D03*
X30587Y37146D02*
D03*
X30606Y36780D02*
D03*
X30594Y36394D02*
D03*
X37835Y35724D02*
D03*
X37839Y36126D02*
D03*
X37827Y36480D02*
D03*
X37819Y36866D02*
D03*
X37795Y37268D02*
D03*
X16850Y30422D02*
D03*
Y30722D02*
D03*
Y31072D02*
D03*
X24750Y31022D02*
D03*
X25600Y31372D02*
D03*
X25300D02*
D03*
X25000D02*
D03*
X24700D02*
D03*
X25064Y31766D02*
D03*
X25591Y32010D02*
D03*
X25328D02*
D03*
X25591Y31766D02*
D03*
X25064Y32010D02*
D03*
X25328Y31766D02*
D03*
X34850Y33672D02*
D03*
X35274D02*
D03*
X35698D02*
D03*
X36122D02*
D03*
X28450Y23922D02*
D03*
X29050D02*
D03*
X28750D02*
D03*
X4800Y27372D02*
D03*
Y27772D02*
D03*
Y28122D02*
D03*
X7600Y27372D02*
D03*
Y27772D02*
D03*
Y28122D02*
D03*
X14200Y27922D02*
D03*
Y28272D02*
D03*
Y28622D02*
D03*
X21900Y25472D02*
D03*
X21500D02*
D03*
X21100D02*
D03*
X20800D02*
D03*
X24950Y26772D02*
D03*
Y27172D02*
D03*
Y27522D02*
D03*
X27700Y26572D02*
D03*
X28050D02*
D03*
Y26872D02*
D03*
Y27172D02*
D03*
X14950Y25522D02*
D03*
X15250D02*
D03*
X16850Y26172D02*
D03*
Y26472D02*
D03*
Y26822D02*
D03*
X17650Y26172D02*
D03*
X17700Y27822D02*
D03*
Y28072D02*
D03*
Y28372D02*
D03*
X20859Y27583D02*
D03*
X21062Y27787D02*
D03*
X20719Y30049D02*
D03*
X20707Y30316D02*
D03*
X20380Y28651D02*
D03*
X20361Y28893D02*
D03*
X18588Y27220D02*
D03*
X18590Y27500D02*
D03*
X19287Y25059D02*
D03*
X28900Y25822D02*
D03*
Y26122D02*
D03*
Y26422D02*
D03*
Y26722D02*
D03*
X22850Y33972D02*
D03*
Y34222D02*
D03*
Y34472D02*
D03*
Y34722D02*
D03*
X22550Y33972D02*
D03*
Y34222D02*
D03*
Y34472D02*
D03*
Y34722D02*
D03*
X20200Y31172D02*
D03*
X19800D02*
D03*
X19400D02*
D03*
X19050D02*
D03*
X18700D02*
D03*
X2350Y32222D02*
D03*
Y32572D02*
D03*
X6350Y32522D02*
D03*
Y32822D02*
D03*
X11400Y32372D02*
D03*
Y32672D02*
D03*
X16500Y32272D02*
D03*
Y32522D02*
D03*
X29181Y27575D02*
D03*
X29184Y27285D02*
D03*
X26150Y25422D02*
D03*
X26400D02*
D03*
X27511Y25401D02*
D03*
X28100Y25722D02*
D03*
X29453Y24949D02*
D03*
X28950Y24922D02*
D03*
X29200Y24722D02*
D03*
X35900Y24372D02*
D03*
X35450D02*
D03*
X35050D02*
D03*
X35600Y26972D02*
D03*
X35250D02*
D03*
X34900D02*
D03*
X35500Y29922D02*
D03*
X35150D02*
D03*
X35250Y25372D02*
D03*
X35500D02*
D03*
X35250Y28172D02*
D03*
X35500D02*
D03*
X35150Y30872D02*
D03*
X35450D02*
D03*
X34800Y29922D02*
D03*
X29250Y30572D02*
D03*
X28950D02*
D03*
X28900Y28872D02*
D03*
Y29122D02*
D03*
Y29422D02*
D03*
Y29722D02*
D03*
X28050Y30372D02*
D03*
X27750D02*
D03*
X27450D02*
D03*
X27150D02*
D03*
X28350Y34022D02*
D03*
Y34322D02*
D03*
Y34622D02*
D03*
X28700Y34022D02*
D03*
Y34322D02*
D03*
Y34622D02*
D03*
X29550Y34572D02*
D03*
X29850D02*
D03*
Y34872D02*
D03*
X29550D02*
D03*
X28050Y37472D02*
D03*
Y37172D02*
D03*
X28400D02*
D03*
Y37472D02*
D03*
X28700Y37172D02*
D03*
Y37472D02*
D03*
X29850Y35372D02*
D03*
X29550D02*
D03*
X29800Y35672D02*
D03*
X29550D02*
D03*
X29800Y35972D02*
D03*
X29550D02*
D03*
X8000Y31122D02*
D03*
X7650D02*
D03*
X7350D02*
D03*
X3941Y31118D02*
D03*
X3616D02*
D03*
X3290D02*
D03*
X36546Y33672D02*
D03*
X36970D02*
D03*
X37394D02*
D03*
X27811Y34953D02*
D03*
X27787Y38311D02*
D03*
X25642D02*
D03*
X23394D02*
D03*
X22232Y37815D02*
D03*
X29131Y32543D02*
D03*
X12685Y27335D02*
D03*
X12693Y27693D02*
D03*
Y28039D02*
D03*
X9859Y28355D02*
D03*
X9520Y28343D02*
D03*
X27468Y42102D02*
D03*
X27767D02*
D03*
X28067D02*
D03*
X23863Y42120D02*
D03*
X24163D02*
D03*
X24463D02*
D03*
X25487Y42157D02*
D03*
X25787D02*
D03*
X26087D02*
D03*
X20126Y35497D02*
D03*
Y35197D02*
D03*
Y34898D02*
D03*
X15476Y35465D02*
D03*
Y35166D02*
D03*
Y34866D02*
D03*
X14331Y35477D02*
D03*
Y35178D02*
D03*
Y34878D02*
D03*
X12744Y35481D02*
D03*
Y35181D02*
D03*
Y34882D02*
D03*
X10382Y35442D02*
D03*
Y35142D02*
D03*
Y34843D02*
D03*
X9299Y35434D02*
D03*
Y35134D02*
D03*
Y34835D02*
D03*
X7630Y35434D02*
D03*
Y35134D02*
D03*
Y34835D02*
D03*
X5736Y35446D02*
D03*
Y35146D02*
D03*
Y34846D02*
D03*
X20980Y37130D02*
D03*
Y37546D02*
D03*
Y37962D02*
D03*
Y38378D02*
D03*
X21000Y40520D02*
D03*
X20972Y40913D02*
D03*
X20968Y41303D02*
D03*
X3992Y34858D02*
D03*
Y35157D02*
D03*
Y35457D02*
D03*
X30323Y42031D02*
D03*
X30071Y42035D02*
D03*
X29815D02*
D03*
X2954Y27638D02*
D03*
X2729Y27771D02*
D03*
X2724Y27528D02*
D03*
X8906Y28916D02*
D03*
X5459Y29256D02*
D03*
X5706Y29252D02*
D03*
X9151Y28920D02*
D03*
X29131Y32295D02*
D03*
Y32781D02*
D03*
X27186Y29019D02*
D03*
X17544Y29761D02*
D03*
X17675Y29994D02*
D03*
X17429D02*
D03*
X17673Y30236D02*
D03*
X17433D02*
D03*
X22579Y32283D02*
D03*
X26925Y29021D02*
D03*
X26829Y26067D02*
D03*
X27068Y26062D02*
D03*
X20991Y31380D02*
D03*
X20993Y31131D02*
D03*
X27055Y34933D02*
D03*
X26823Y29827D02*
D03*
X39020Y39600D02*
D03*
X39028Y39306D02*
D03*
X39025Y39015D02*
D03*
X31717Y38209D02*
D03*
X32553Y36242D02*
D03*
X25354Y28993D02*
D03*
X27994Y27590D02*
D03*
X27091Y26785D02*
D03*
X23426Y29215D02*
D03*
X27395Y27051D02*
D03*
X23724Y28973D02*
D03*
X27693Y27336D02*
D03*
X23036Y29452D02*
D03*
X25673Y30132D02*
D03*
X15447Y29175D02*
D03*
X14820Y28798D02*
D03*
X15115Y29497D02*
D03*
X650Y31338D02*
D03*
X10847Y31338D02*
D03*
X15947Y31335D02*
D03*
X15022Y26222D02*
D03*
X14738Y27780D02*
D03*
X15701Y27756D02*
D03*
X15701Y26201D02*
D03*
X5748Y31339D02*
D03*
D101*
X16508Y35035D02*
D03*
X11445D02*
D03*
X6295D02*
D03*
X1146D02*
D03*
M02*
