G04*
G04 #@! TF.GenerationSoftware,Altium Limited,Altium Designer,21.2.1 (34)*
G04*
G04 Layer_Color=65535*
%FSLAX24Y24*%
%MOIN*%
G70*
G04*
G04 #@! TF.SameCoordinates,093661B1-31BE-42CD-8BD9-57EC7F8E6B73*
G04*
G04*
G04 #@! TF.FilePolarity,Positive*
G04*
G01*
G75*
%ADD10C,0.0236*%
%ADD11C,0.0098*%
%ADD12C,0.0079*%
%ADD13C,0.0039*%
%ADD14C,0.0040*%
%ADD15C,0.0050*%
%ADD16C,0.0060*%
%ADD17C,0.0060*%
%ADD18C,0.0059*%
%ADD19R,0.1102X0.0091*%
%ADD20R,0.0778X0.0157*%
%ADD21R,0.0157X0.1024*%
G36*
X22554Y24174D02*
X22557D01*
X22564Y24173D01*
X22572Y24172D01*
X22580Y24170D01*
X22588Y24168D01*
X22597Y24165D01*
X22597D01*
X22598Y24165D01*
X22599Y24164D01*
X22600Y24163D01*
X22604Y24161D01*
X22609Y24159D01*
X22615Y24155D01*
X22621Y24151D01*
X22626Y24146D01*
X22631Y24140D01*
X22632Y24139D01*
X22633Y24137D01*
X22636Y24134D01*
X22639Y24129D01*
X22641Y24123D01*
X22645Y24116D01*
X22648Y24108D01*
X22651Y24099D01*
X22620Y24091D01*
Y24091D01*
X22620Y24092D01*
X22620Y24093D01*
X22619Y24094D01*
X22618Y24098D01*
X22617Y24102D01*
X22615Y24107D01*
X22612Y24112D01*
X22609Y24117D01*
X22606Y24121D01*
X22606Y24122D01*
X22605Y24123D01*
X22603Y24125D01*
X22600Y24127D01*
X22597Y24130D01*
X22592Y24133D01*
X22588Y24136D01*
X22582Y24139D01*
X22581Y24139D01*
X22580Y24140D01*
X22576Y24141D01*
X22572Y24142D01*
X22567Y24143D01*
X22561Y24145D01*
X22554Y24145D01*
X22548Y24146D01*
X22544D01*
X22542Y24145D01*
X22540D01*
X22534Y24145D01*
X22528Y24144D01*
X22521Y24143D01*
X22514Y24141D01*
X22508Y24138D01*
X22507Y24138D01*
X22505Y24137D01*
X22502Y24135D01*
X22498Y24134D01*
X22494Y24131D01*
X22489Y24128D01*
X22485Y24124D01*
X22481Y24120D01*
X22481Y24120D01*
X22479Y24118D01*
X22477Y24116D01*
X22475Y24113D01*
X22473Y24109D01*
X22470Y24105D01*
X22467Y24100D01*
X22465Y24095D01*
Y24095D01*
X22465Y24094D01*
X22464Y24093D01*
X22463Y24091D01*
X22463Y24089D01*
X22462Y24086D01*
X22461Y24083D01*
X22460Y24080D01*
X22458Y24072D01*
X22457Y24064D01*
X22456Y24055D01*
X22455Y24044D01*
Y24044D01*
Y24043D01*
Y24041D01*
X22456Y24039D01*
Y24036D01*
X22456Y24032D01*
X22457Y24029D01*
X22457Y24025D01*
X22458Y24016D01*
X22460Y24006D01*
X22463Y23997D01*
X22467Y23988D01*
Y23987D01*
X22467Y23987D01*
X22468Y23985D01*
X22469Y23984D01*
X22471Y23980D01*
X22476Y23975D01*
X22480Y23969D01*
X22486Y23964D01*
X22493Y23959D01*
X22501Y23954D01*
X22501D01*
X22502Y23954D01*
X22503Y23953D01*
X22505Y23952D01*
X22506Y23952D01*
X22509Y23951D01*
X22515Y23949D01*
X22522Y23947D01*
X22530Y23945D01*
X22539Y23944D01*
X22548Y23943D01*
X22552D01*
X22554Y23944D01*
X22556D01*
X22561Y23944D01*
X22568Y23945D01*
X22575Y23947D01*
X22583Y23949D01*
X22590Y23951D01*
X22591D01*
X22591Y23952D01*
X22592Y23952D01*
X22593Y23953D01*
X22597Y23955D01*
X22602Y23957D01*
X22607Y23959D01*
X22612Y23962D01*
X22617Y23965D01*
X22622Y23969D01*
Y24016D01*
X22548D01*
Y24046D01*
X22655D01*
Y23953D01*
X22654Y23952D01*
X22653Y23952D01*
X22652Y23951D01*
X22650Y23949D01*
X22648Y23948D01*
X22645Y23946D01*
X22642Y23944D01*
X22639Y23942D01*
X22631Y23937D01*
X22623Y23932D01*
X22613Y23927D01*
X22604Y23923D01*
X22603D01*
X22603Y23923D01*
X22601Y23922D01*
X22599Y23922D01*
X22597Y23921D01*
X22594Y23920D01*
X22591Y23919D01*
X22587Y23918D01*
X22579Y23917D01*
X22570Y23915D01*
X22560Y23914D01*
X22550Y23913D01*
X22546D01*
X22544Y23914D01*
X22541D01*
X22537Y23914D01*
X22532Y23915D01*
X22528Y23915D01*
X22517Y23917D01*
X22506Y23920D01*
X22494Y23924D01*
X22488Y23926D01*
X22482Y23929D01*
X22482Y23929D01*
X22481Y23930D01*
X22480Y23931D01*
X22477Y23932D01*
X22475Y23934D01*
X22472Y23936D01*
X22465Y23941D01*
X22458Y23947D01*
X22450Y23955D01*
X22443Y23964D01*
X22437Y23975D01*
Y23975D01*
X22436Y23976D01*
X22435Y23978D01*
X22434Y23980D01*
X22433Y23983D01*
X22432Y23987D01*
X22430Y23990D01*
X22429Y23995D01*
X22427Y23999D01*
X22426Y24005D01*
X22425Y24010D01*
X22424Y24016D01*
X22422Y24029D01*
X22421Y24042D01*
Y24043D01*
Y24044D01*
Y24046D01*
X22422Y24048D01*
Y24052D01*
X22422Y24056D01*
X22423Y24060D01*
X22423Y24064D01*
X22424Y24070D01*
X22425Y24075D01*
X22428Y24087D01*
X22431Y24099D01*
X22437Y24111D01*
X22437Y24111D01*
X22437Y24112D01*
X22438Y24114D01*
X22439Y24116D01*
X22441Y24119D01*
X22443Y24122D01*
X22448Y24129D01*
X22454Y24137D01*
X22462Y24144D01*
X22470Y24152D01*
X22476Y24155D01*
X22481Y24158D01*
X22481Y24159D01*
X22482Y24159D01*
X22483Y24160D01*
X22486Y24161D01*
X22489Y24162D01*
X22492Y24163D01*
X22496Y24165D01*
X22500Y24166D01*
X22505Y24168D01*
X22510Y24169D01*
X22515Y24170D01*
X22521Y24171D01*
X22534Y24173D01*
X22540Y24174D01*
X22552D01*
X22554Y24174D01*
D02*
G37*
G36*
X22902Y23918D02*
X22867D01*
X22735Y24115D01*
Y23918D01*
X22703D01*
Y24170D01*
X22738D01*
X22870Y23972D01*
Y24170D01*
X22902D01*
Y23918D01*
D02*
G37*
G36*
X23061Y24169D02*
X23068Y24169D01*
X23076Y24168D01*
X23083Y24167D01*
X23089Y24166D01*
X23090D01*
X23090Y24166D01*
X23091D01*
X23093Y24165D01*
X23097Y24164D01*
X23102Y24162D01*
X23108Y24159D01*
X23114Y24156D01*
X23120Y24153D01*
X23126Y24148D01*
X23126Y24147D01*
X23127Y24147D01*
X23128Y24146D01*
X23129Y24145D01*
X23133Y24141D01*
X23137Y24136D01*
X23142Y24130D01*
X23147Y24123D01*
X23152Y24114D01*
X23156Y24105D01*
Y24104D01*
X23156Y24104D01*
X23157Y24102D01*
X23157Y24100D01*
X23158Y24098D01*
X23159Y24095D01*
X23160Y24091D01*
X23161Y24087D01*
X23162Y24083D01*
X23163Y24079D01*
X23165Y24068D01*
X23166Y24057D01*
X23166Y24045D01*
Y24044D01*
Y24044D01*
Y24042D01*
Y24040D01*
X23166Y24038D01*
Y24035D01*
X23165Y24028D01*
X23164Y24020D01*
X23163Y24011D01*
X23161Y24003D01*
X23159Y23994D01*
Y23993D01*
X23159Y23993D01*
X23158Y23992D01*
X23158Y23990D01*
X23157Y23986D01*
X23154Y23981D01*
X23152Y23975D01*
X23149Y23969D01*
X23146Y23963D01*
X23142Y23957D01*
X23142Y23957D01*
X23140Y23955D01*
X23138Y23952D01*
X23135Y23949D01*
X23132Y23945D01*
X23128Y23942D01*
X23124Y23938D01*
X23119Y23935D01*
X23118Y23934D01*
X23117Y23933D01*
X23114Y23932D01*
X23111Y23930D01*
X23106Y23928D01*
X23101Y23926D01*
X23095Y23924D01*
X23089Y23922D01*
X23088D01*
X23087Y23921D01*
X23086Y23921D01*
X23082Y23921D01*
X23077Y23920D01*
X23071Y23919D01*
X23064Y23918D01*
X23057Y23918D01*
X23048Y23918D01*
X22958D01*
Y24170D01*
X23055D01*
X23061Y24169D01*
D02*
G37*
G36*
X21912Y24170D02*
X21916Y24170D01*
X21922Y24169D01*
X21929Y24167D01*
X21935Y24165D01*
X21942Y24162D01*
X21942D01*
X21942Y24161D01*
X21945Y24160D01*
X21948Y24158D01*
X21952Y24155D01*
X21956Y24152D01*
X21960Y24148D01*
X21965Y24143D01*
X21968Y24138D01*
X21969Y24137D01*
X21970Y24135D01*
X21971Y24132D01*
X21973Y24128D01*
X21975Y24123D01*
X21976Y24118D01*
X21977Y24111D01*
X21978Y24105D01*
Y24104D01*
Y24102D01*
X21977Y24099D01*
X21977Y24095D01*
X21976Y24091D01*
X21974Y24086D01*
X21972Y24080D01*
X21969Y24075D01*
X21968Y24075D01*
X21967Y24073D01*
X21965Y24071D01*
X21962Y24068D01*
X21958Y24064D01*
X21954Y24061D01*
X21949Y24058D01*
X21943Y24054D01*
X21943D01*
X21944Y24054D01*
X21945Y24054D01*
X21946Y24053D01*
X21950Y24052D01*
X21956Y24050D01*
X21961Y24047D01*
X21967Y24043D01*
X21973Y24038D01*
X21978Y24033D01*
X21978Y24032D01*
X21980Y24030D01*
X21982Y24026D01*
X21984Y24021D01*
X21986Y24016D01*
X21988Y24009D01*
X21990Y24001D01*
X21990Y23992D01*
Y23992D01*
Y23991D01*
Y23989D01*
X21990Y23987D01*
X21989Y23984D01*
X21989Y23980D01*
X21988Y23977D01*
X21987Y23973D01*
X21984Y23964D01*
X21982Y23959D01*
X21980Y23955D01*
X21977Y23950D01*
X21974Y23945D01*
X21970Y23941D01*
X21966Y23936D01*
X21965Y23936D01*
X21965Y23935D01*
X21963Y23934D01*
X21961Y23933D01*
X21959Y23931D01*
X21956Y23929D01*
X21953Y23927D01*
X21949Y23925D01*
X21945Y23923D01*
X21940Y23921D01*
X21936Y23919D01*
X21930Y23917D01*
X21924Y23916D01*
X21918Y23914D01*
X21912Y23914D01*
X21905Y23913D01*
X21902D01*
X21899Y23914D01*
X21897Y23914D01*
X21893Y23914D01*
X21890Y23915D01*
X21886Y23916D01*
X21877Y23918D01*
X21868Y23922D01*
X21863Y23924D01*
X21859Y23926D01*
X21854Y23930D01*
X21850Y23933D01*
X21850Y23933D01*
X21849Y23934D01*
X21848Y23935D01*
X21847Y23937D01*
X21845Y23939D01*
X21843Y23941D01*
X21841Y23944D01*
X21839Y23947D01*
X21837Y23951D01*
X21834Y23954D01*
X21830Y23963D01*
X21827Y23973D01*
X21826Y23979D01*
X21825Y23984D01*
X21856Y23988D01*
Y23988D01*
X21857Y23987D01*
X21857Y23986D01*
X21857Y23984D01*
X21858Y23982D01*
X21858Y23979D01*
X21860Y23974D01*
X21863Y23967D01*
X21866Y23961D01*
X21870Y23955D01*
X21874Y23950D01*
X21875Y23950D01*
X21876Y23948D01*
X21879Y23947D01*
X21883Y23945D01*
X21887Y23943D01*
X21893Y23941D01*
X21899Y23939D01*
X21905Y23939D01*
X21908D01*
X21909Y23939D01*
X21913Y23940D01*
X21918Y23941D01*
X21924Y23943D01*
X21930Y23945D01*
X21936Y23949D01*
X21942Y23954D01*
X21943Y23955D01*
X21945Y23957D01*
X21947Y23960D01*
X21950Y23964D01*
X21953Y23970D01*
X21955Y23976D01*
X21957Y23983D01*
X21957Y23991D01*
Y23992D01*
Y23992D01*
Y23993D01*
X21957Y23995D01*
X21957Y23999D01*
X21956Y24004D01*
X21954Y24009D01*
X21952Y24015D01*
X21948Y24021D01*
X21943Y24027D01*
X21942Y24027D01*
X21941Y24029D01*
X21938Y24031D01*
X21934Y24034D01*
X21929Y24036D01*
X21922Y24038D01*
X21916Y24040D01*
X21908Y24040D01*
X21905D01*
X21902Y24040D01*
X21899Y24040D01*
X21895Y24039D01*
X21891Y24038D01*
X21886Y24037D01*
X21890Y24064D01*
X21891D01*
X21893Y24064D01*
X21898D01*
X21902Y24065D01*
X21906Y24066D01*
X21912Y24067D01*
X21918Y24068D01*
X21924Y24071D01*
X21930Y24074D01*
X21930D01*
X21931Y24075D01*
X21933Y24076D01*
X21935Y24079D01*
X21938Y24082D01*
X21941Y24087D01*
X21944Y24092D01*
X21945Y24098D01*
X21946Y24102D01*
Y24106D01*
Y24106D01*
Y24107D01*
Y24109D01*
X21945Y24112D01*
X21945Y24116D01*
X21943Y24120D01*
X21941Y24125D01*
X21938Y24130D01*
X21934Y24134D01*
X21934Y24134D01*
X21932Y24136D01*
X21930Y24138D01*
X21926Y24140D01*
X21922Y24142D01*
X21917Y24143D01*
X21911Y24145D01*
X21905Y24145D01*
X21902D01*
X21898Y24145D01*
X21894Y24144D01*
X21889Y24142D01*
X21885Y24141D01*
X21879Y24138D01*
X21875Y24134D01*
X21874Y24134D01*
X21873Y24132D01*
X21871Y24129D01*
X21868Y24126D01*
X21866Y24121D01*
X21863Y24115D01*
X21861Y24108D01*
X21859Y24100D01*
X21829Y24106D01*
Y24106D01*
X21829Y24107D01*
X21829Y24108D01*
X21830Y24111D01*
X21830Y24113D01*
X21831Y24116D01*
X21834Y24123D01*
X21837Y24131D01*
X21842Y24139D01*
X21847Y24147D01*
X21854Y24154D01*
X21854Y24154D01*
X21855Y24154D01*
X21856Y24155D01*
X21858Y24156D01*
X21859Y24158D01*
X21862Y24159D01*
X21865Y24161D01*
X21868Y24162D01*
X21875Y24165D01*
X21883Y24168D01*
X21893Y24170D01*
X21898Y24171D01*
X21908D01*
X21912Y24170D01*
D02*
G37*
G36*
X21618D02*
X21623Y24170D01*
X21628Y24169D01*
X21635Y24167D01*
X21641Y24165D01*
X21648Y24162D01*
X21648D01*
X21649Y24161D01*
X21651Y24160D01*
X21654Y24158D01*
X21658Y24155D01*
X21662Y24152D01*
X21667Y24148D01*
X21671Y24143D01*
X21675Y24138D01*
X21675Y24137D01*
X21676Y24135D01*
X21677Y24132D01*
X21679Y24128D01*
X21681Y24123D01*
X21683Y24118D01*
X21684Y24111D01*
X21684Y24105D01*
Y24104D01*
Y24102D01*
X21684Y24099D01*
X21683Y24095D01*
X21682Y24091D01*
X21680Y24086D01*
X21678Y24080D01*
X21675Y24075D01*
X21675Y24075D01*
X21673Y24073D01*
X21671Y24071D01*
X21668Y24068D01*
X21665Y24064D01*
X21660Y24061D01*
X21655Y24058D01*
X21649Y24054D01*
X21649D01*
X21650Y24054D01*
X21651Y24054D01*
X21653Y24053D01*
X21657Y24052D01*
X21662Y24050D01*
X21668Y24047D01*
X21673Y24043D01*
X21679Y24038D01*
X21684Y24033D01*
X21684Y24032D01*
X21686Y24030D01*
X21688Y24026D01*
X21690Y24021D01*
X21692Y24016D01*
X21695Y24009D01*
X21696Y24001D01*
X21696Y23992D01*
Y23992D01*
Y23991D01*
Y23989D01*
X21696Y23987D01*
X21696Y23984D01*
X21695Y23980D01*
X21694Y23977D01*
X21693Y23973D01*
X21691Y23964D01*
X21688Y23959D01*
X21686Y23955D01*
X21683Y23950D01*
X21680Y23945D01*
X21676Y23941D01*
X21672Y23936D01*
X21672Y23936D01*
X21671Y23935D01*
X21669Y23934D01*
X21668Y23933D01*
X21665Y23931D01*
X21663Y23929D01*
X21659Y23927D01*
X21655Y23925D01*
X21651Y23923D01*
X21647Y23921D01*
X21642Y23919D01*
X21636Y23917D01*
X21630Y23916D01*
X21624Y23914D01*
X21618Y23914D01*
X21611Y23913D01*
X21608D01*
X21606Y23914D01*
X21603Y23914D01*
X21600Y23914D01*
X21596Y23915D01*
X21592Y23916D01*
X21583Y23918D01*
X21574Y23922D01*
X21569Y23924D01*
X21565Y23926D01*
X21561Y23930D01*
X21556Y23933D01*
X21556Y23933D01*
X21555Y23934D01*
X21554Y23935D01*
X21553Y23937D01*
X21551Y23939D01*
X21549Y23941D01*
X21547Y23944D01*
X21545Y23947D01*
X21543Y23951D01*
X21541Y23954D01*
X21537Y23963D01*
X21533Y23973D01*
X21532Y23979D01*
X21532Y23984D01*
X21562Y23988D01*
Y23988D01*
X21563Y23987D01*
X21563Y23986D01*
X21564Y23984D01*
X21564Y23982D01*
X21565Y23979D01*
X21566Y23974D01*
X21569Y23967D01*
X21572Y23961D01*
X21576Y23955D01*
X21580Y23950D01*
X21581Y23950D01*
X21582Y23948D01*
X21585Y23947D01*
X21589Y23945D01*
X21593Y23943D01*
X21599Y23941D01*
X21605Y23939D01*
X21612Y23939D01*
X21614D01*
X21615Y23939D01*
X21619Y23940D01*
X21624Y23941D01*
X21630Y23943D01*
X21636Y23945D01*
X21643Y23949D01*
X21648Y23954D01*
X21649Y23955D01*
X21651Y23957D01*
X21653Y23960D01*
X21656Y23964D01*
X21659Y23970D01*
X21661Y23976D01*
X21663Y23983D01*
X21664Y23991D01*
Y23992D01*
Y23992D01*
Y23993D01*
X21663Y23995D01*
X21663Y23999D01*
X21662Y24004D01*
X21660Y24009D01*
X21658Y24015D01*
X21654Y24021D01*
X21649Y24027D01*
X21649Y24027D01*
X21647Y24029D01*
X21644Y24031D01*
X21640Y24034D01*
X21635Y24036D01*
X21629Y24038D01*
X21622Y24040D01*
X21614Y24040D01*
X21611D01*
X21608Y24040D01*
X21605Y24040D01*
X21601Y24039D01*
X21597Y24038D01*
X21592Y24037D01*
X21596Y24064D01*
X21598D01*
X21599Y24064D01*
X21604D01*
X21608Y24065D01*
X21613Y24066D01*
X21618Y24067D01*
X21624Y24068D01*
X21630Y24071D01*
X21636Y24074D01*
X21637D01*
X21637Y24075D01*
X21639Y24076D01*
X21641Y24079D01*
X21644Y24082D01*
X21647Y24087D01*
X21650Y24092D01*
X21652Y24098D01*
X21652Y24102D01*
Y24106D01*
Y24106D01*
Y24107D01*
Y24109D01*
X21652Y24112D01*
X21651Y24116D01*
X21649Y24120D01*
X21648Y24125D01*
X21645Y24130D01*
X21641Y24134D01*
X21640Y24134D01*
X21639Y24136D01*
X21636Y24138D01*
X21633Y24140D01*
X21628Y24142D01*
X21623Y24143D01*
X21617Y24145D01*
X21611Y24145D01*
X21608D01*
X21605Y24145D01*
X21600Y24144D01*
X21596Y24142D01*
X21591Y24141D01*
X21586Y24138D01*
X21581Y24134D01*
X21581Y24134D01*
X21579Y24132D01*
X21577Y24129D01*
X21574Y24126D01*
X21572Y24121D01*
X21569Y24115D01*
X21567Y24108D01*
X21566Y24100D01*
X21535Y24106D01*
Y24106D01*
X21535Y24107D01*
X21535Y24108D01*
X21536Y24111D01*
X21537Y24113D01*
X21538Y24116D01*
X21540Y24123D01*
X21544Y24131D01*
X21548Y24139D01*
X21553Y24147D01*
X21560Y24154D01*
X21561Y24154D01*
X21561Y24154D01*
X21562Y24155D01*
X21564Y24156D01*
X21566Y24158D01*
X21568Y24159D01*
X21571Y24161D01*
X21574Y24162D01*
X21581Y24165D01*
X21590Y24168D01*
X21600Y24170D01*
X21605Y24171D01*
X21614D01*
X21618Y24170D01*
D02*
G37*
G36*
X22140Y23918D02*
X22105D01*
X22007Y24170D01*
X22044D01*
X22109Y23987D01*
Y23986D01*
X22110Y23985D01*
X22110Y23984D01*
X22111Y23983D01*
X22111Y23981D01*
X22112Y23979D01*
X22114Y23973D01*
X22116Y23967D01*
X22118Y23960D01*
X22122Y23945D01*
Y23946D01*
X22123Y23947D01*
X22123Y23948D01*
X22123Y23949D01*
X22124Y23953D01*
X22126Y23959D01*
X22128Y23965D01*
X22130Y23972D01*
X22133Y23979D01*
X22136Y23987D01*
X22204Y24170D01*
X22238D01*
X22140Y23918D01*
D02*
G37*
G36*
X21780D02*
X21744D01*
Y23953D01*
X21780D01*
Y23918D01*
D02*
G37*
G36*
X20196Y24174D02*
X20198D01*
X20205Y24173D01*
X20213Y24172D01*
X20221Y24170D01*
X20230Y24168D01*
X20238Y24165D01*
X20238D01*
X20239Y24165D01*
X20240Y24164D01*
X20241Y24163D01*
X20245Y24161D01*
X20250Y24158D01*
X20255Y24154D01*
X20261Y24150D01*
X20266Y24144D01*
X20270Y24138D01*
Y24138D01*
X20271Y24137D01*
X20271Y24136D01*
X20272Y24135D01*
X20274Y24131D01*
X20276Y24127D01*
X20279Y24121D01*
X20281Y24114D01*
X20282Y24107D01*
X20283Y24099D01*
X20251Y24096D01*
Y24096D01*
Y24097D01*
X20251Y24098D01*
X20250Y24100D01*
X20249Y24104D01*
X20248Y24110D01*
X20246Y24115D01*
X20242Y24121D01*
X20238Y24127D01*
X20233Y24132D01*
X20233Y24132D01*
X20231Y24134D01*
X20227Y24136D01*
X20222Y24138D01*
X20216Y24140D01*
X20209Y24142D01*
X20200Y24144D01*
X20190Y24144D01*
X20184D01*
X20182Y24144D01*
X20179Y24143D01*
X20173Y24143D01*
X20166Y24141D01*
X20158Y24139D01*
X20151Y24137D01*
X20148Y24135D01*
X20146Y24133D01*
X20145Y24133D01*
X20143Y24131D01*
X20141Y24129D01*
X20139Y24126D01*
X20136Y24122D01*
X20134Y24117D01*
X20133Y24112D01*
X20132Y24106D01*
Y24106D01*
Y24104D01*
X20132Y24102D01*
X20133Y24099D01*
X20134Y24095D01*
X20136Y24091D01*
X20138Y24088D01*
X20142Y24084D01*
X20142Y24084D01*
X20144Y24083D01*
X20145Y24082D01*
X20147Y24081D01*
X20149Y24080D01*
X20151Y24078D01*
X20155Y24077D01*
X20158Y24076D01*
X20162Y24074D01*
X20167Y24072D01*
X20172Y24071D01*
X20178Y24069D01*
X20184Y24068D01*
X20192Y24066D01*
X20192D01*
X20194Y24066D01*
X20196Y24065D01*
X20198Y24064D01*
X20202Y24064D01*
X20206Y24063D01*
X20210Y24062D01*
X20214Y24060D01*
X20223Y24058D01*
X20233Y24055D01*
X20237Y24054D01*
X20241Y24052D01*
X20245Y24051D01*
X20247Y24050D01*
X20248D01*
X20249Y24050D01*
X20250Y24049D01*
X20251Y24048D01*
X20255Y24046D01*
X20260Y24043D01*
X20265Y24039D01*
X20271Y24035D01*
X20276Y24030D01*
X20280Y24024D01*
X20281Y24023D01*
X20282Y24021D01*
X20283Y24018D01*
X20286Y24014D01*
X20287Y24009D01*
X20289Y24003D01*
X20290Y23996D01*
X20291Y23988D01*
Y23988D01*
Y23988D01*
Y23987D01*
Y23985D01*
X20290Y23981D01*
X20289Y23976D01*
X20288Y23970D01*
X20286Y23964D01*
X20283Y23957D01*
X20279Y23951D01*
Y23950D01*
X20279Y23950D01*
X20277Y23948D01*
X20274Y23944D01*
X20271Y23941D01*
X20266Y23936D01*
X20260Y23932D01*
X20254Y23927D01*
X20246Y23923D01*
X20246D01*
X20245Y23923D01*
X20244Y23922D01*
X20242Y23922D01*
X20240Y23921D01*
X20238Y23920D01*
X20232Y23918D01*
X20225Y23917D01*
X20216Y23915D01*
X20207Y23914D01*
X20198Y23913D01*
X20192D01*
X20189Y23914D01*
X20186D01*
X20182Y23914D01*
X20178Y23914D01*
X20168Y23916D01*
X20159Y23917D01*
X20150Y23920D01*
X20140Y23923D01*
X20140D01*
X20139Y23924D01*
X20138Y23924D01*
X20137Y23925D01*
X20132Y23927D01*
X20127Y23930D01*
X20121Y23935D01*
X20115Y23940D01*
X20109Y23946D01*
X20104Y23953D01*
Y23953D01*
X20103Y23954D01*
X20103Y23955D01*
X20102Y23957D01*
X20101Y23959D01*
X20100Y23961D01*
X20097Y23966D01*
X20095Y23973D01*
X20093Y23981D01*
X20091Y23989D01*
X20091Y23999D01*
X20122Y24001D01*
Y24001D01*
Y24001D01*
X20122Y24000D01*
Y23998D01*
X20123Y23995D01*
X20124Y23990D01*
X20126Y23985D01*
X20127Y23980D01*
X20129Y23975D01*
X20132Y23970D01*
X20132Y23970D01*
X20134Y23968D01*
X20135Y23966D01*
X20138Y23963D01*
X20142Y23960D01*
X20146Y23957D01*
X20151Y23953D01*
X20157Y23951D01*
X20158D01*
X20158Y23950D01*
X20159Y23950D01*
X20160Y23949D01*
X20164Y23948D01*
X20168Y23947D01*
X20174Y23945D01*
X20181Y23944D01*
X20188Y23944D01*
X20196Y23943D01*
X20199D01*
X20203Y23944D01*
X20207Y23944D01*
X20212Y23945D01*
X20218Y23945D01*
X20224Y23947D01*
X20230Y23949D01*
X20230Y23949D01*
X20232Y23950D01*
X20235Y23951D01*
X20238Y23953D01*
X20241Y23955D01*
X20245Y23958D01*
X20249Y23961D01*
X20251Y23964D01*
X20252Y23965D01*
X20253Y23966D01*
X20254Y23968D01*
X20255Y23971D01*
X20257Y23974D01*
X20258Y23977D01*
X20258Y23981D01*
X20259Y23986D01*
Y23986D01*
Y23988D01*
X20258Y23990D01*
X20258Y23993D01*
X20257Y23996D01*
X20256Y24000D01*
X20254Y24003D01*
X20251Y24007D01*
X20251Y24007D01*
X20250Y24008D01*
X20249Y24009D01*
X20246Y24012D01*
X20243Y24014D01*
X20239Y24016D01*
X20234Y24019D01*
X20229Y24021D01*
X20229Y24021D01*
X20227Y24022D01*
X20224Y24023D01*
X20222Y24023D01*
X20219Y24024D01*
X20217Y24025D01*
X20214Y24026D01*
X20210Y24027D01*
X20206Y24028D01*
X20201Y24029D01*
X20196Y24031D01*
X20190Y24032D01*
X20184Y24034D01*
X20184D01*
X20183Y24034D01*
X20181Y24034D01*
X20179Y24035D01*
X20176Y24036D01*
X20172Y24036D01*
X20165Y24039D01*
X20157Y24041D01*
X20149Y24044D01*
X20142Y24046D01*
X20138Y24048D01*
X20135Y24049D01*
X20135D01*
X20135Y24050D01*
X20132Y24051D01*
X20129Y24053D01*
X20126Y24056D01*
X20121Y24059D01*
X20117Y24063D01*
X20112Y24068D01*
X20109Y24073D01*
X20108Y24074D01*
X20107Y24075D01*
X20106Y24078D01*
X20104Y24082D01*
X20103Y24087D01*
X20101Y24092D01*
X20100Y24098D01*
X20100Y24104D01*
Y24104D01*
Y24105D01*
Y24106D01*
Y24107D01*
X20101Y24111D01*
X20101Y24116D01*
X20103Y24121D01*
X20104Y24127D01*
X20107Y24134D01*
X20111Y24140D01*
Y24140D01*
X20111Y24141D01*
X20113Y24143D01*
X20115Y24146D01*
X20119Y24149D01*
X20123Y24153D01*
X20128Y24158D01*
X20135Y24162D01*
X20142Y24165D01*
X20143D01*
X20143Y24166D01*
X20144Y24166D01*
X20146Y24167D01*
X20148Y24167D01*
X20150Y24168D01*
X20156Y24170D01*
X20163Y24171D01*
X20171Y24173D01*
X20179Y24174D01*
X20188Y24174D01*
X20193D01*
X20196Y24174D01*
D02*
G37*
G36*
X20784D02*
X20787Y24173D01*
X20791Y24173D01*
X20795Y24173D01*
X20800Y24171D01*
X20810Y24169D01*
X20821Y24166D01*
X20826Y24164D01*
X20831Y24161D01*
X20836Y24158D01*
X20841Y24155D01*
X20842Y24154D01*
X20843Y24154D01*
X20844Y24153D01*
X20846Y24151D01*
X20848Y24149D01*
X20850Y24147D01*
X20853Y24144D01*
X20856Y24141D01*
X20859Y24137D01*
X20861Y24133D01*
X20865Y24129D01*
X20868Y24124D01*
X20870Y24118D01*
X20873Y24113D01*
X20875Y24107D01*
X20878Y24100D01*
X20845Y24093D01*
Y24093D01*
X20844Y24094D01*
X20844Y24095D01*
X20843Y24097D01*
X20842Y24099D01*
X20841Y24102D01*
X20838Y24108D01*
X20835Y24115D01*
X20830Y24121D01*
X20825Y24127D01*
X20819Y24133D01*
X20818Y24134D01*
X20816Y24135D01*
X20812Y24137D01*
X20808Y24139D01*
X20801Y24142D01*
X20795Y24144D01*
X20786Y24145D01*
X20777Y24146D01*
X20774D01*
X20772Y24145D01*
X20770D01*
X20767Y24145D01*
X20760Y24144D01*
X20752Y24142D01*
X20744Y24140D01*
X20736Y24136D01*
X20728Y24131D01*
X20728D01*
X20728Y24131D01*
X20725Y24129D01*
X20722Y24126D01*
X20718Y24122D01*
X20713Y24116D01*
X20709Y24110D01*
X20705Y24102D01*
X20701Y24094D01*
Y24094D01*
X20701Y24093D01*
X20700Y24092D01*
X20700Y24090D01*
X20699Y24088D01*
X20698Y24085D01*
X20697Y24079D01*
X20696Y24072D01*
X20694Y24064D01*
X20694Y24055D01*
X20693Y24046D01*
Y24045D01*
Y24044D01*
Y24042D01*
Y24040D01*
X20694Y24038D01*
Y24034D01*
X20694Y24031D01*
X20694Y24027D01*
X20696Y24018D01*
X20697Y24008D01*
X20700Y23999D01*
X20702Y23989D01*
Y23989D01*
X20703Y23988D01*
X20704Y23987D01*
X20704Y23985D01*
X20706Y23981D01*
X20710Y23976D01*
X20714Y23970D01*
X20719Y23964D01*
X20725Y23959D01*
X20732Y23953D01*
X20732D01*
X20733Y23953D01*
X20734Y23952D01*
X20735Y23952D01*
X20737Y23951D01*
X20739Y23950D01*
X20744Y23948D01*
X20751Y23945D01*
X20758Y23944D01*
X20766Y23942D01*
X20775Y23942D01*
X20777D01*
X20779Y23942D01*
X20782D01*
X20784Y23943D01*
X20791Y23944D01*
X20799Y23946D01*
X20806Y23949D01*
X20814Y23953D01*
X20818Y23955D01*
X20822Y23958D01*
X20822Y23958D01*
X20823Y23959D01*
X20824Y23960D01*
X20825Y23961D01*
X20827Y23963D01*
X20828Y23965D01*
X20831Y23967D01*
X20832Y23970D01*
X20835Y23973D01*
X20837Y23977D01*
X20839Y23980D01*
X20841Y23985D01*
X20843Y23989D01*
X20845Y23995D01*
X20847Y24000D01*
X20848Y24006D01*
X20882Y23997D01*
Y23997D01*
X20882Y23996D01*
X20881Y23993D01*
X20880Y23991D01*
X20879Y23987D01*
X20877Y23983D01*
X20875Y23979D01*
X20873Y23974D01*
X20868Y23964D01*
X20861Y23954D01*
X20858Y23949D01*
X20853Y23944D01*
X20849Y23939D01*
X20844Y23935D01*
X20844Y23935D01*
X20843Y23934D01*
X20841Y23933D01*
X20839Y23932D01*
X20836Y23930D01*
X20833Y23928D01*
X20829Y23926D01*
X20825Y23924D01*
X20821Y23922D01*
X20816Y23920D01*
X20810Y23918D01*
X20804Y23917D01*
X20798Y23915D01*
X20792Y23914D01*
X20785Y23914D01*
X20777Y23913D01*
X20773D01*
X20770Y23914D01*
X20767D01*
X20763Y23914D01*
X20759Y23915D01*
X20754Y23916D01*
X20743Y23917D01*
X20732Y23920D01*
X20721Y23924D01*
X20716Y23927D01*
X20711Y23930D01*
X20711Y23930D01*
X20710Y23930D01*
X20709Y23932D01*
X20707Y23933D01*
X20705Y23935D01*
X20702Y23937D01*
X20700Y23939D01*
X20697Y23942D01*
X20694Y23945D01*
X20690Y23949D01*
X20684Y23957D01*
X20678Y23967D01*
X20672Y23978D01*
Y23978D01*
X20671Y23979D01*
X20671Y23981D01*
X20670Y23983D01*
X20669Y23986D01*
X20668Y23990D01*
X20667Y23994D01*
X20666Y23998D01*
X20665Y24003D01*
X20663Y24008D01*
X20661Y24020D01*
X20660Y24032D01*
X20659Y24046D01*
Y24046D01*
Y24047D01*
Y24050D01*
X20659Y24052D01*
Y24056D01*
X20660Y24059D01*
X20660Y24064D01*
X20661Y24069D01*
X20663Y24079D01*
X20665Y24091D01*
X20669Y24103D01*
X20674Y24114D01*
X20674Y24114D01*
X20675Y24115D01*
X20675Y24117D01*
X20677Y24119D01*
X20678Y24121D01*
X20680Y24124D01*
X20685Y24131D01*
X20691Y24138D01*
X20698Y24145D01*
X20707Y24153D01*
X20717Y24159D01*
X20717Y24159D01*
X20718Y24159D01*
X20720Y24160D01*
X20721Y24161D01*
X20724Y24162D01*
X20727Y24163D01*
X20731Y24165D01*
X20735Y24166D01*
X20739Y24168D01*
X20744Y24169D01*
X20754Y24171D01*
X20766Y24173D01*
X20778Y24174D01*
X20781D01*
X20784Y24174D01*
D02*
G37*
G36*
X21215Y24067D02*
X21326Y23918D01*
X21282D01*
X21192Y24045D01*
X21151Y24005D01*
Y23918D01*
X21117D01*
Y24170D01*
X21151D01*
Y24044D01*
X21275Y24170D01*
X21321D01*
X21215Y24067D01*
D02*
G37*
G36*
X20568Y23918D02*
X20536D01*
X20483Y24110D01*
Y24110D01*
X20483Y24111D01*
X20482Y24112D01*
X20482Y24114D01*
X20481Y24118D01*
X20480Y24122D01*
X20478Y24127D01*
X20477Y24132D01*
X20476Y24136D01*
X20475Y24138D01*
X20475Y24139D01*
Y24139D01*
X20475Y24138D01*
X20474Y24136D01*
X20473Y24133D01*
X20472Y24129D01*
X20471Y24125D01*
X20470Y24119D01*
X20469Y24114D01*
X20467Y24110D01*
X20414Y23918D01*
X20379D01*
X20313Y24170D01*
X20348D01*
X20385Y24004D01*
Y24004D01*
X20386Y24003D01*
X20386Y24002D01*
X20386Y24000D01*
X20387Y23997D01*
X20388Y23995D01*
X20388Y23992D01*
X20389Y23988D01*
X20391Y23980D01*
X20393Y23972D01*
X20394Y23962D01*
X20396Y23953D01*
Y23953D01*
X20397Y23955D01*
X20397Y23956D01*
X20398Y23959D01*
X20398Y23962D01*
X20400Y23966D01*
X20401Y23974D01*
X20404Y23982D01*
X20404Y23986D01*
X20405Y23989D01*
X20406Y23993D01*
X20407Y23996D01*
X20408Y23998D01*
X20408Y23999D01*
X20456Y24170D01*
X20496D01*
X20532Y24042D01*
Y24042D01*
X20532Y24040D01*
X20533Y24037D01*
X20534Y24034D01*
X20535Y24030D01*
X20536Y24025D01*
X20538Y24019D01*
X20539Y24013D01*
X20541Y24006D01*
X20543Y23999D01*
X20546Y23984D01*
X20549Y23969D01*
X20552Y23953D01*
Y23953D01*
X20552Y23954D01*
Y23955D01*
X20553Y23957D01*
X20553Y23959D01*
X20554Y23962D01*
X20554Y23965D01*
X20555Y23969D01*
X20557Y23977D01*
X20559Y23986D01*
X20562Y23996D01*
X20564Y24008D01*
X20604Y24170D01*
X20638D01*
X20568Y23918D01*
D02*
G37*
G36*
X20955Y23948D02*
X21079D01*
Y23918D01*
X20922D01*
Y24170D01*
X20955D01*
Y23948D01*
D02*
G37*
G36*
X18904Y24174D02*
X18907D01*
X18914Y24173D01*
X18922Y24172D01*
X18930Y24170D01*
X18938Y24168D01*
X18946Y24165D01*
X18947D01*
X18947Y24165D01*
X18948Y24164D01*
X18950Y24163D01*
X18954Y24161D01*
X18958Y24158D01*
X18964Y24154D01*
X18969Y24150D01*
X18974Y24144D01*
X18979Y24138D01*
Y24138D01*
X18979Y24137D01*
X18980Y24136D01*
X18981Y24135D01*
X18983Y24131D01*
X18985Y24127D01*
X18987Y24121D01*
X18989Y24114D01*
X18991Y24107D01*
X18992Y24099D01*
X18960Y24096D01*
Y24096D01*
Y24097D01*
X18959Y24098D01*
X18959Y24100D01*
X18958Y24104D01*
X18956Y24110D01*
X18954Y24115D01*
X18951Y24121D01*
X18947Y24127D01*
X18942Y24132D01*
X18941Y24132D01*
X18939Y24134D01*
X18936Y24136D01*
X18931Y24138D01*
X18925Y24140D01*
X18918Y24142D01*
X18908Y24144D01*
X18898Y24144D01*
X18893D01*
X18891Y24144D01*
X18888Y24143D01*
X18881Y24143D01*
X18874Y24141D01*
X18867Y24139D01*
X18860Y24137D01*
X18857Y24135D01*
X18854Y24133D01*
X18853Y24133D01*
X18852Y24131D01*
X18850Y24129D01*
X18848Y24126D01*
X18845Y24122D01*
X18843Y24117D01*
X18841Y24112D01*
X18841Y24106D01*
Y24106D01*
Y24104D01*
X18841Y24102D01*
X18842Y24099D01*
X18843Y24095D01*
X18845Y24091D01*
X18847Y24088D01*
X18850Y24084D01*
X18851Y24084D01*
X18852Y24083D01*
X18854Y24082D01*
X18855Y24081D01*
X18857Y24080D01*
X18860Y24078D01*
X18863Y24077D01*
X18867Y24076D01*
X18871Y24074D01*
X18876Y24072D01*
X18881Y24071D01*
X18887Y24069D01*
X18893Y24068D01*
X18900Y24066D01*
X18901D01*
X18902Y24066D01*
X18904Y24065D01*
X18907Y24064D01*
X18910Y24064D01*
X18914Y24063D01*
X18918Y24062D01*
X18923Y24060D01*
X18932Y24058D01*
X18941Y24055D01*
X18946Y24054D01*
X18950Y24052D01*
X18953Y24051D01*
X18956Y24050D01*
X18956D01*
X18957Y24050D01*
X18958Y24049D01*
X18960Y24048D01*
X18964Y24046D01*
X18968Y24043D01*
X18974Y24039D01*
X18979Y24035D01*
X18984Y24030D01*
X18989Y24024D01*
X18989Y24023D01*
X18991Y24021D01*
X18992Y24018D01*
X18994Y24014D01*
X18996Y24009D01*
X18998Y24003D01*
X18999Y23996D01*
X18999Y23988D01*
Y23988D01*
Y23988D01*
Y23987D01*
Y23985D01*
X18999Y23981D01*
X18998Y23976D01*
X18996Y23970D01*
X18995Y23964D01*
X18992Y23957D01*
X18988Y23951D01*
Y23950D01*
X18987Y23950D01*
X18986Y23948D01*
X18983Y23944D01*
X18979Y23941D01*
X18975Y23936D01*
X18969Y23932D01*
X18962Y23927D01*
X18955Y23923D01*
X18954D01*
X18954Y23923D01*
X18952Y23922D01*
X18951Y23922D01*
X18949Y23921D01*
X18946Y23920D01*
X18940Y23918D01*
X18934Y23917D01*
X18925Y23915D01*
X18916Y23914D01*
X18906Y23913D01*
X18900D01*
X18897Y23914D01*
X18894D01*
X18891Y23914D01*
X18886Y23914D01*
X18877Y23916D01*
X18868Y23917D01*
X18858Y23920D01*
X18849Y23923D01*
X18849D01*
X18848Y23924D01*
X18847Y23924D01*
X18845Y23925D01*
X18841Y23927D01*
X18836Y23930D01*
X18830Y23935D01*
X18824Y23940D01*
X18818Y23946D01*
X18813Y23953D01*
Y23953D01*
X18812Y23954D01*
X18812Y23955D01*
X18810Y23957D01*
X18810Y23959D01*
X18809Y23961D01*
X18806Y23966D01*
X18804Y23973D01*
X18801Y23981D01*
X18800Y23989D01*
X18799Y23999D01*
X18831Y24001D01*
Y24001D01*
Y24001D01*
X18831Y24000D01*
Y23998D01*
X18832Y23995D01*
X18833Y23990D01*
X18834Y23985D01*
X18836Y23980D01*
X18838Y23975D01*
X18841Y23970D01*
X18841Y23970D01*
X18842Y23968D01*
X18844Y23966D01*
X18847Y23963D01*
X18851Y23960D01*
X18855Y23957D01*
X18860Y23953D01*
X18866Y23951D01*
X18866D01*
X18867Y23950D01*
X18868Y23950D01*
X18869Y23949D01*
X18872Y23948D01*
X18877Y23947D01*
X18883Y23945D01*
X18889Y23944D01*
X18897Y23944D01*
X18905Y23943D01*
X18908D01*
X18912Y23944D01*
X18916Y23944D01*
X18921Y23945D01*
X18927Y23945D01*
X18933Y23947D01*
X18938Y23949D01*
X18939Y23949D01*
X18941Y23950D01*
X18943Y23951D01*
X18947Y23953D01*
X18950Y23955D01*
X18954Y23958D01*
X18957Y23961D01*
X18960Y23964D01*
X18960Y23965D01*
X18961Y23966D01*
X18962Y23968D01*
X18964Y23971D01*
X18965Y23974D01*
X18966Y23977D01*
X18967Y23981D01*
X18967Y23986D01*
Y23986D01*
Y23988D01*
X18967Y23990D01*
X18967Y23993D01*
X18966Y23996D01*
X18964Y24000D01*
X18963Y24003D01*
X18960Y24007D01*
X18960Y24007D01*
X18959Y24008D01*
X18957Y24009D01*
X18955Y24012D01*
X18952Y24014D01*
X18948Y24016D01*
X18943Y24019D01*
X18938Y24021D01*
X18937Y24021D01*
X18935Y24022D01*
X18932Y24023D01*
X18931Y24023D01*
X18928Y24024D01*
X18926Y24025D01*
X18922Y24026D01*
X18919Y24027D01*
X18914Y24028D01*
X18910Y24029D01*
X18905Y24031D01*
X18899Y24032D01*
X18893Y24034D01*
X18892D01*
X18891Y24034D01*
X18889Y24034D01*
X18887Y24035D01*
X18884Y24036D01*
X18881Y24036D01*
X18874Y24039D01*
X18866Y24041D01*
X18857Y24044D01*
X18850Y24046D01*
X18847Y24048D01*
X18844Y24049D01*
X18844D01*
X18843Y24050D01*
X18841Y24051D01*
X18838Y24053D01*
X18834Y24056D01*
X18830Y24059D01*
X18825Y24063D01*
X18821Y24068D01*
X18817Y24073D01*
X18817Y24074D01*
X18816Y24075D01*
X18815Y24078D01*
X18813Y24082D01*
X18812Y24087D01*
X18810Y24092D01*
X18809Y24098D01*
X18809Y24104D01*
Y24104D01*
Y24105D01*
Y24106D01*
Y24107D01*
X18809Y24111D01*
X18810Y24116D01*
X18811Y24121D01*
X18813Y24127D01*
X18816Y24134D01*
X18819Y24140D01*
Y24140D01*
X18820Y24141D01*
X18821Y24143D01*
X18824Y24146D01*
X18827Y24149D01*
X18832Y24153D01*
X18837Y24158D01*
X18844Y24162D01*
X18851Y24165D01*
X18851D01*
X18852Y24166D01*
X18853Y24166D01*
X18855Y24167D01*
X18856Y24167D01*
X18859Y24168D01*
X18864Y24170D01*
X18871Y24171D01*
X18879Y24173D01*
X18888Y24174D01*
X18897Y24174D01*
X18902D01*
X18904Y24174D01*
D02*
G37*
G36*
X19277Y23918D02*
X19244D01*
X19192Y24110D01*
Y24110D01*
X19191Y24111D01*
X19191Y24112D01*
X19191Y24114D01*
X19189Y24118D01*
X19188Y24122D01*
X19187Y24127D01*
X19185Y24132D01*
X19184Y24136D01*
X19184Y24138D01*
X19184Y24139D01*
Y24139D01*
X19183Y24138D01*
X19183Y24136D01*
X19182Y24133D01*
X19181Y24129D01*
X19180Y24125D01*
X19179Y24119D01*
X19177Y24114D01*
X19176Y24110D01*
X19123Y23918D01*
X19088D01*
X19022Y24170D01*
X19057D01*
X19094Y24004D01*
Y24004D01*
X19094Y24003D01*
X19095Y24002D01*
X19095Y24000D01*
X19096Y23997D01*
X19096Y23995D01*
X19097Y23992D01*
X19098Y23988D01*
X19100Y23980D01*
X19101Y23972D01*
X19103Y23962D01*
X19105Y23953D01*
Y23953D01*
X19105Y23955D01*
X19106Y23956D01*
X19106Y23959D01*
X19107Y23962D01*
X19108Y23966D01*
X19110Y23974D01*
X19112Y23982D01*
X19113Y23986D01*
X19114Y23989D01*
X19115Y23993D01*
X19116Y23996D01*
X19116Y23998D01*
X19117Y23999D01*
X19164Y24170D01*
X19205D01*
X19240Y24042D01*
Y24042D01*
X19241Y24040D01*
X19242Y24037D01*
X19243Y24034D01*
X19244Y24030D01*
X19245Y24025D01*
X19247Y24019D01*
X19248Y24013D01*
X19250Y24006D01*
X19251Y23999D01*
X19255Y23984D01*
X19258Y23969D01*
X19260Y23953D01*
Y23953D01*
X19261Y23954D01*
Y23955D01*
X19261Y23957D01*
X19262Y23959D01*
X19263Y23962D01*
X19263Y23965D01*
X19264Y23969D01*
X19266Y23977D01*
X19268Y23986D01*
X19270Y23996D01*
X19273Y24008D01*
X19312Y24170D01*
X19346D01*
X19277Y23918D01*
D02*
G37*
G36*
X19671D02*
X19637D01*
Y24170D01*
X19671D01*
Y23918D01*
D02*
G37*
G36*
X19481Y24169D02*
X19488Y24169D01*
X19496Y24168D01*
X19503Y24167D01*
X19509Y24166D01*
X19509D01*
X19510Y24166D01*
X19511D01*
X19513Y24165D01*
X19517Y24164D01*
X19522Y24162D01*
X19528Y24159D01*
X19534Y24156D01*
X19540Y24153D01*
X19546Y24148D01*
X19546Y24147D01*
X19547Y24147D01*
X19548Y24146D01*
X19549Y24145D01*
X19553Y24141D01*
X19557Y24136D01*
X19562Y24130D01*
X19567Y24123D01*
X19572Y24114D01*
X19576Y24105D01*
Y24104D01*
X19576Y24104D01*
X19577Y24102D01*
X19577Y24100D01*
X19578Y24098D01*
X19579Y24095D01*
X19580Y24091D01*
X19581Y24087D01*
X19582Y24083D01*
X19583Y24079D01*
X19584Y24068D01*
X19585Y24057D01*
X19586Y24045D01*
Y24044D01*
Y24044D01*
Y24042D01*
Y24040D01*
X19585Y24038D01*
Y24035D01*
X19585Y24028D01*
X19584Y24020D01*
X19583Y24011D01*
X19581Y24003D01*
X19579Y23994D01*
Y23993D01*
X19579Y23993D01*
X19578Y23992D01*
X19578Y23990D01*
X19576Y23986D01*
X19574Y23981D01*
X19572Y23975D01*
X19569Y23969D01*
X19565Y23963D01*
X19562Y23957D01*
X19561Y23957D01*
X19560Y23955D01*
X19558Y23952D01*
X19555Y23949D01*
X19552Y23945D01*
X19548Y23942D01*
X19544Y23938D01*
X19539Y23935D01*
X19538Y23934D01*
X19537Y23933D01*
X19534Y23932D01*
X19530Y23930D01*
X19526Y23928D01*
X19521Y23926D01*
X19515Y23924D01*
X19509Y23922D01*
X19508D01*
X19507Y23921D01*
X19506Y23921D01*
X19502Y23921D01*
X19497Y23920D01*
X19491Y23919D01*
X19484Y23918D01*
X19477Y23918D01*
X19468Y23918D01*
X19378D01*
Y24170D01*
X19474D01*
X19481Y24169D01*
D02*
G37*
G36*
X19846Y24174D02*
X19849D01*
X19852Y24173D01*
X19857Y24173D01*
X19861Y24172D01*
X19870Y24170D01*
X19881Y24167D01*
X19892Y24163D01*
X19897Y24160D01*
X19903Y24157D01*
X19903Y24157D01*
X19904Y24157D01*
X19905Y24155D01*
X19908Y24154D01*
X19910Y24153D01*
X19913Y24150D01*
X19919Y24145D01*
X19925Y24139D01*
X19933Y24131D01*
X19940Y24121D01*
X19945Y24111D01*
Y24110D01*
X19946Y24109D01*
X19947Y24108D01*
X19948Y24106D01*
X19949Y24103D01*
X19950Y24099D01*
X19952Y24095D01*
X19953Y24091D01*
X19954Y24086D01*
X19956Y24081D01*
X19957Y24075D01*
X19958Y24070D01*
X19960Y24057D01*
X19960Y24043D01*
Y24043D01*
Y24041D01*
Y24039D01*
X19960Y24036D01*
Y24033D01*
X19960Y24029D01*
X19959Y24025D01*
X19959Y24020D01*
X19957Y24009D01*
X19954Y23998D01*
X19950Y23986D01*
X19948Y23980D01*
X19945Y23975D01*
Y23974D01*
X19944Y23973D01*
X19943Y23972D01*
X19942Y23969D01*
X19940Y23967D01*
X19939Y23964D01*
X19933Y23957D01*
X19927Y23950D01*
X19920Y23943D01*
X19911Y23935D01*
X19901Y23929D01*
X19901D01*
X19900Y23928D01*
X19898Y23927D01*
X19896Y23926D01*
X19893Y23925D01*
X19890Y23924D01*
X19887Y23922D01*
X19883Y23921D01*
X19878Y23920D01*
X19874Y23918D01*
X19863Y23916D01*
X19852Y23914D01*
X19840Y23913D01*
X19836D01*
X19834Y23914D01*
X19831D01*
X19827Y23914D01*
X19823Y23915D01*
X19818Y23916D01*
X19809Y23918D01*
X19798Y23921D01*
X19787Y23925D01*
X19782Y23928D01*
X19776Y23930D01*
X19776Y23931D01*
X19775Y23931D01*
X19774Y23932D01*
X19771Y23934D01*
X19769Y23935D01*
X19767Y23937D01*
X19761Y23943D01*
X19754Y23949D01*
X19746Y23957D01*
X19740Y23967D01*
X19734Y23977D01*
Y23977D01*
X19733Y23979D01*
X19732Y23980D01*
X19731Y23982D01*
X19730Y23985D01*
X19729Y23988D01*
X19728Y23992D01*
X19727Y23996D01*
X19725Y24001D01*
X19724Y24005D01*
X19722Y24016D01*
X19720Y24028D01*
X19719Y24040D01*
Y24040D01*
Y24041D01*
Y24043D01*
X19720Y24046D01*
Y24051D01*
X19720Y24056D01*
X19721Y24062D01*
X19722Y24069D01*
X19724Y24076D01*
X19725Y24084D01*
X19727Y24092D01*
X19730Y24100D01*
X19734Y24108D01*
X19737Y24116D01*
X19742Y24124D01*
X19747Y24131D01*
X19753Y24138D01*
X19753Y24139D01*
X19754Y24140D01*
X19757Y24142D01*
X19759Y24144D01*
X19762Y24147D01*
X19766Y24150D01*
X19771Y24153D01*
X19777Y24156D01*
X19782Y24159D01*
X19789Y24163D01*
X19796Y24166D01*
X19804Y24169D01*
X19812Y24171D01*
X19821Y24173D01*
X19830Y24174D01*
X19840Y24174D01*
X19843D01*
X19846Y24174D01*
D02*
G37*
%LPC*%
G36*
X23050Y24140D02*
X22991D01*
Y23948D01*
X23051D01*
X23054Y23948D01*
X23059Y23948D01*
X23065Y23949D01*
X23072Y23949D01*
X23078Y23951D01*
X23084Y23952D01*
X23084Y23952D01*
X23086Y23953D01*
X23089Y23954D01*
X23092Y23955D01*
X23096Y23957D01*
X23099Y23960D01*
X23103Y23962D01*
X23107Y23965D01*
X23107Y23966D01*
X23108Y23967D01*
X23111Y23970D01*
X23113Y23973D01*
X23116Y23978D01*
X23119Y23984D01*
X23122Y23990D01*
X23125Y23997D01*
Y23997D01*
X23125Y23998D01*
X23126Y23999D01*
X23126Y24000D01*
X23126Y24002D01*
X23127Y24005D01*
X23128Y24007D01*
X23129Y24010D01*
X23130Y24017D01*
X23131Y24026D01*
X23131Y24035D01*
X23132Y24046D01*
Y24046D01*
Y24047D01*
Y24049D01*
X23131Y24052D01*
Y24055D01*
X23131Y24059D01*
X23131Y24063D01*
X23130Y24068D01*
X23129Y24078D01*
X23126Y24088D01*
X23123Y24097D01*
X23121Y24102D01*
X23119Y24106D01*
Y24106D01*
X23118Y24107D01*
X23117Y24108D01*
X23117Y24110D01*
X23114Y24113D01*
X23110Y24118D01*
X23105Y24122D01*
X23100Y24127D01*
X23094Y24131D01*
X23087Y24134D01*
X23086Y24135D01*
X23084Y24135D01*
X23081Y24136D01*
X23076Y24137D01*
X23071Y24138D01*
X23063Y24139D01*
X23059Y24139D01*
X23054D01*
X23050Y24140D01*
D02*
G37*
G36*
X19469D02*
X19411D01*
Y23948D01*
X19471D01*
X19473Y23948D01*
X19479Y23948D01*
X19485Y23949D01*
X19492Y23949D01*
X19498Y23951D01*
X19504Y23952D01*
X19504Y23952D01*
X19506Y23953D01*
X19509Y23954D01*
X19512Y23955D01*
X19516Y23957D01*
X19519Y23960D01*
X19523Y23962D01*
X19526Y23965D01*
X19527Y23966D01*
X19528Y23967D01*
X19530Y23970D01*
X19533Y23973D01*
X19536Y23978D01*
X19539Y23984D01*
X19542Y23990D01*
X19545Y23997D01*
Y23997D01*
X19545Y23998D01*
X19545Y23999D01*
X19546Y24000D01*
X19546Y24002D01*
X19547Y24005D01*
X19548Y24007D01*
X19548Y24010D01*
X19549Y24017D01*
X19551Y24026D01*
X19551Y24035D01*
X19552Y24046D01*
Y24046D01*
Y24047D01*
Y24049D01*
X19551Y24052D01*
Y24055D01*
X19551Y24059D01*
X19551Y24063D01*
X19550Y24068D01*
X19548Y24078D01*
X19546Y24088D01*
X19543Y24097D01*
X19541Y24102D01*
X19539Y24106D01*
Y24106D01*
X19538Y24107D01*
X19537Y24108D01*
X19536Y24110D01*
X19533Y24113D01*
X19530Y24118D01*
X19525Y24122D01*
X19520Y24127D01*
X19513Y24131D01*
X19507Y24134D01*
X19506Y24135D01*
X19504Y24135D01*
X19501Y24136D01*
X19496Y24137D01*
X19490Y24138D01*
X19483Y24139D01*
X19479Y24139D01*
X19474D01*
X19469Y24140D01*
D02*
G37*
G36*
X19840Y24145D02*
X19837D01*
X19834Y24145D01*
X19831Y24145D01*
X19828Y24144D01*
X19824Y24143D01*
X19819Y24142D01*
X19810Y24139D01*
X19805Y24137D01*
X19799Y24135D01*
X19794Y24132D01*
X19789Y24129D01*
X19784Y24125D01*
X19779Y24121D01*
X19779Y24121D01*
X19778Y24120D01*
X19777Y24118D01*
X19775Y24116D01*
X19773Y24114D01*
X19771Y24110D01*
X19769Y24106D01*
X19766Y24102D01*
X19764Y24096D01*
X19762Y24090D01*
X19759Y24084D01*
X19758Y24076D01*
X19756Y24068D01*
X19755Y24059D01*
X19754Y24050D01*
X19754Y24040D01*
Y24039D01*
Y24038D01*
Y24035D01*
X19754Y24032D01*
X19754Y24028D01*
X19755Y24024D01*
X19756Y24019D01*
X19757Y24014D01*
X19759Y24002D01*
X19762Y23996D01*
X19764Y23990D01*
X19767Y23984D01*
X19770Y23979D01*
X19774Y23973D01*
X19778Y23968D01*
X19778Y23968D01*
X19779Y23967D01*
X19781Y23965D01*
X19782Y23964D01*
X19785Y23962D01*
X19788Y23960D01*
X19791Y23957D01*
X19795Y23955D01*
X19799Y23952D01*
X19804Y23950D01*
X19809Y23948D01*
X19814Y23946D01*
X19820Y23944D01*
X19826Y23943D01*
X19833Y23942D01*
X19840Y23942D01*
X19841D01*
X19843Y23942D01*
X19846D01*
X19849Y23943D01*
X19853Y23943D01*
X19857Y23944D01*
X19861Y23945D01*
X19866Y23947D01*
X19871Y23948D01*
X19877Y23950D01*
X19882Y23953D01*
X19887Y23956D01*
X19892Y23959D01*
X19897Y23963D01*
X19902Y23968D01*
X19902Y23968D01*
X19903Y23969D01*
X19904Y23971D01*
X19906Y23973D01*
X19908Y23976D01*
X19909Y23979D01*
X19912Y23983D01*
X19914Y23987D01*
X19916Y23992D01*
X19919Y23998D01*
X19920Y24004D01*
X19923Y24011D01*
X19924Y24018D01*
X19925Y24026D01*
X19926Y24035D01*
X19926Y24043D01*
Y24044D01*
Y24045D01*
Y24046D01*
Y24048D01*
X19926Y24051D01*
Y24054D01*
X19925Y24058D01*
X19925Y24062D01*
X19924Y24070D01*
X19922Y24079D01*
X19919Y24088D01*
X19916Y24097D01*
Y24097D01*
X19915Y24098D01*
X19915Y24099D01*
X19914Y24100D01*
X19911Y24105D01*
X19908Y24110D01*
X19904Y24116D01*
X19898Y24122D01*
X19892Y24127D01*
X19885Y24133D01*
X19885D01*
X19884Y24133D01*
X19883Y24134D01*
X19881Y24135D01*
X19880Y24135D01*
X19877Y24137D01*
X19872Y24139D01*
X19865Y24141D01*
X19858Y24143D01*
X19849Y24145D01*
X19840Y24145D01*
D02*
G37*
%LPD*%
D10*
X24760Y41764D02*
G03*
X24760Y41764I-118J0D01*
G01*
X22535D02*
G03*
X22535Y41764I-118J0D01*
G01*
X26984D02*
G03*
X26984Y41764I-118J0D01*
G01*
X22753Y29190D02*
G03*
X22753Y29190I-118J0D01*
G01*
X7752Y27998D02*
G03*
X7752Y27998I-118J0D01*
G01*
X4732D02*
G03*
X4732Y27998I-118J0D01*
G01*
X31902Y31486D02*
G03*
X31902Y31486I-118J0D01*
G01*
X31906Y28767D02*
G03*
X31906Y28767I-118J0D01*
G01*
X31906Y25951D02*
G03*
X31906Y25951I-118J0D01*
G01*
X17083Y33709D02*
G03*
X17083Y33709I-118J0D01*
G01*
X6899D02*
G03*
X6899Y33709I-118J0D01*
G01*
X11991D02*
G03*
X11991Y33709I-118J0D01*
G01*
X1807D02*
G03*
X1807Y33709I-118J0D01*
G01*
X29209Y41764D02*
G03*
X29209Y41764I-118J0D01*
G01*
D11*
X25093Y42748D02*
G03*
X25093Y42748I-49J0D01*
G01*
X22868D02*
G03*
X22868Y42748I-49J0D01*
G01*
X27317D02*
G03*
X27317Y42748I-49J0D01*
G01*
X37758Y43732D02*
G03*
X37758Y43732I-49J0D01*
G01*
X21778Y29662D02*
G03*
X21778Y29662I-49J0D01*
G01*
X6876Y28470D02*
G03*
X6876Y28470I-49J0D01*
G01*
X3856D02*
G03*
X3856Y28470I-49J0D01*
G01*
X30996Y31980D02*
G03*
X30996Y31980I-49J0D01*
G01*
X31000Y29261D02*
G03*
X31000Y29261I-49J0D01*
G01*
X31000Y26445D02*
G03*
X31000Y26445I-49J0D01*
G01*
X14805Y25724D02*
G03*
X14805Y25724I-49J0D01*
G01*
X16762Y34465D02*
G03*
X16762Y34465I-49J0D01*
G01*
X16030Y34110D02*
G03*
X16030Y34110I-49J0D01*
G01*
X5846D02*
G03*
X5846Y34110I-49J0D01*
G01*
X10938D02*
G03*
X10938Y34110I-49J0D01*
G01*
X11649Y34465D02*
G03*
X11649Y34465I-49J0D01*
G01*
X754Y34110D02*
G03*
X754Y34110I-49J0D01*
G01*
X6536Y34465D02*
G03*
X6536Y34465I-49J0D01*
G01*
X1423D02*
G03*
X1423Y34465I-49J0D01*
G01*
X29541Y42748D02*
G03*
X29541Y42748I-49J0D01*
G01*
D12*
X35756Y34866D02*
G03*
X35835Y34866I39J0D01*
G01*
D02*
G03*
X35756Y34866I-39J0D01*
G01*
X37854Y44531D02*
Y46303D01*
X38957Y44531D02*
Y46303D01*
X37854Y44531D02*
X37953D01*
X37854Y46303D02*
X37953D01*
X38858D02*
X38957D01*
X38858Y44531D02*
X38957D01*
X35833Y44748D02*
Y46685D01*
X30614Y44807D02*
X30811Y44787D01*
X30614Y44591D02*
X30811Y44610D01*
X30614Y44591D02*
Y44807D01*
X30811Y44354D02*
X33567D01*
Y46598D02*
Y47110D01*
X30811D02*
X33567D01*
X30811Y44354D02*
Y44610D01*
Y44787D02*
Y47110D01*
X33764Y46315D02*
Y46629D01*
X33567Y46598D02*
X33764Y46629D01*
X33567Y44354D02*
Y46343D01*
X33566Y46342D02*
X33764Y46315D01*
X5525Y44382D02*
X9659D01*
Y46626D02*
Y47138D01*
X5525D02*
X9659D01*
X9856Y46343D02*
Y46657D01*
X9659Y46626D02*
X9856Y46657D01*
X9659Y44382D02*
Y46370D01*
X9658Y46370D02*
X9856Y46343D01*
X5525Y44815D02*
Y47138D01*
Y44382D02*
Y44638D01*
X5328Y44618D02*
Y44835D01*
X5328Y44618D02*
X5525Y44638D01*
X5328Y44834D02*
X5525Y44815D01*
X398Y44382D02*
X4532D01*
Y46626D02*
Y47138D01*
X398D02*
X4532D01*
X4728Y46343D02*
Y46657D01*
X4532Y46626D02*
X4728Y46657D01*
X4532Y44382D02*
Y46370D01*
X4531Y46370D02*
X4728Y46343D01*
X398Y44815D02*
Y47138D01*
Y44382D02*
Y44638D01*
X201Y44618D02*
Y44835D01*
X201Y44618D02*
X398Y44638D01*
X201Y44834D02*
X398Y44815D01*
X10652Y44382D02*
X14786D01*
Y46626D02*
Y47138D01*
X10652D02*
X14786D01*
X14983Y46343D02*
Y46657D01*
X14786Y46626D02*
X14983Y46657D01*
X14786Y44382D02*
Y46370D01*
X14786Y46370D02*
X14983Y46343D01*
X10652Y44815D02*
Y47138D01*
Y44382D02*
Y44638D01*
X10455Y44618D02*
Y44835D01*
X10455Y44618D02*
X10652Y44638D01*
X10455Y44834D02*
X10652Y44815D01*
X15780Y44382D02*
X19913D01*
Y46626D02*
Y47138D01*
X15780D02*
X19913D01*
X20110Y46343D02*
Y46657D01*
X19913Y46626D02*
X20110Y46657D01*
X19913Y44382D02*
Y46370D01*
X19913Y46370D02*
X20110Y46343D01*
X15780Y44815D02*
Y47138D01*
Y44382D02*
Y44638D01*
X15583Y44618D02*
Y44835D01*
X15583Y44618D02*
X15780Y44638D01*
X15583Y44834D02*
X15780Y44815D01*
X25492Y44850D02*
X25689Y44831D01*
X25492Y44634D02*
X25689Y44654D01*
X25492Y44634D02*
Y44850D01*
X25689Y44398D02*
X28445D01*
Y46642D02*
Y47154D01*
X25689D02*
X28445D01*
X25689Y44398D02*
Y44654D01*
Y44831D02*
Y47154D01*
X28642Y46358D02*
Y46673D01*
X28445Y46642D02*
X28642Y46673D01*
X28445Y44398D02*
Y46386D01*
X28444Y46386D02*
X28642Y46358D01*
X21547Y44398D02*
X25681D01*
Y46642D02*
Y47154D01*
X21547D02*
X25681D01*
X25878Y46358D02*
Y46673D01*
X25681Y46642D02*
X25878Y46673D01*
X25681Y44398D02*
Y46386D01*
X25681Y46386D02*
X25878Y46358D01*
X21547Y44831D02*
Y47154D01*
Y44398D02*
Y44654D01*
X21350Y44634D02*
Y44850D01*
X21350Y44634D02*
X21547Y44654D01*
X21350Y44850D02*
X21547Y44831D01*
X23028Y39717D02*
Y42157D01*
X25035Y39717D02*
Y42157D01*
X23028Y39717D02*
X25035D01*
X23028Y42157D02*
X25035D01*
X20803Y39717D02*
Y42157D01*
X22811Y39717D02*
Y42157D01*
X20803Y39717D02*
X22811D01*
X20803Y42157D02*
X22811D01*
X25252Y39717D02*
Y42157D01*
X27260Y39717D02*
Y42157D01*
X25252Y39717D02*
X27260D01*
X25252Y42157D02*
X27260D01*
X32437Y40394D02*
X33067D01*
X32437Y41496D02*
X33067D01*
X36756Y42209D02*
Y43980D01*
X36362Y41815D02*
X36756Y42209D01*
X34591D02*
X34984Y41815D01*
X34591Y42209D02*
Y43980D01*
X36106D02*
X36756D01*
X34591D02*
X35240D01*
X36106Y41815D02*
X36362D01*
X34984D02*
X35240D01*
X38063Y43614D02*
X38457D01*
Y43299D02*
Y43614D01*
X38063Y42433D02*
X38457D01*
Y42748D01*
X35335Y40768D02*
X35965D01*
X35335Y40020D02*
X35965D01*
X35335Y39004D02*
X35965D01*
X35335Y39752D02*
X35965D01*
X22241Y26237D02*
X25588D01*
X22241Y29583D02*
X25588D01*
Y26237D02*
Y29583D01*
X22241Y26237D02*
Y29583D01*
X36882Y26744D02*
X36901Y26941D01*
X36685D02*
X36705Y26744D01*
X36685Y26941D02*
X36902D01*
X36449Y23988D02*
Y26744D01*
X38693Y23988D02*
X39205D01*
Y26744D01*
X36449D02*
X36705D01*
X36882D02*
X39205D01*
X38409Y23791D02*
X38724D01*
X38693Y23988D02*
X38724Y23791D01*
X36449Y23988D02*
X38437D01*
X38409Y23791D02*
X38437Y23989D01*
X36882Y29520D02*
X36901Y29717D01*
X36685D02*
X36705Y29520D01*
X36685Y29717D02*
X36902D01*
X36449Y26764D02*
Y29520D01*
X38693Y26764D02*
X39205D01*
Y29520D01*
X36449D02*
X36705D01*
X36882D02*
X39205D01*
X38409Y26567D02*
X38724D01*
X38693Y26764D02*
X38724Y26567D01*
X36449Y26764D02*
X38437D01*
X38409Y26567D02*
X38437Y26764D01*
X36878Y32319D02*
X36897Y32516D01*
X36681D02*
X36701Y32319D01*
X36681Y32516D02*
X36898D01*
X36445Y29563D02*
Y32319D01*
X38689Y29563D02*
X39201D01*
Y32319D01*
X36445D02*
X36701D01*
X36878D02*
X39201D01*
X38406Y29366D02*
X38720D01*
X38689Y29563D02*
X38720Y29366D01*
X36445Y29563D02*
X38433D01*
X38406Y29366D02*
X38433Y29564D01*
X11563Y26047D02*
X11760Y26028D01*
X11563Y26224D02*
X11760Y26244D01*
X11760Y26028D02*
Y26244D01*
X8808Y26480D02*
X11563D01*
X8808Y23724D02*
Y24236D01*
Y23724D02*
X11563D01*
Y26224D02*
Y26480D01*
Y23724D02*
Y26047D01*
X8611Y24205D02*
Y24520D01*
Y24205D02*
X8808Y24236D01*
Y24492D02*
Y26480D01*
X8611Y24520D02*
X8808Y24492D01*
X8729Y26047D02*
X8926Y26028D01*
X8729Y26224D02*
X8926Y26244D01*
X8926Y26028D02*
Y26244D01*
X5973Y26480D02*
X8729D01*
X5973Y23724D02*
Y24236D01*
Y23724D02*
X8729D01*
Y26224D02*
Y26480D01*
Y23724D02*
Y26047D01*
X5776Y24205D02*
Y24520D01*
Y24205D02*
X5973Y24236D01*
Y24492D02*
Y26480D01*
X5776Y24520D02*
X5973Y24492D01*
X5890Y26047D02*
X6087Y26028D01*
X5890Y26224D02*
X6087Y26244D01*
X6087Y26028D02*
Y26244D01*
X3134Y26480D02*
X5890D01*
X3134Y23724D02*
Y24236D01*
Y23724D02*
X5890D01*
Y26224D02*
Y26480D01*
Y23724D02*
Y26047D01*
X2937Y24205D02*
Y24520D01*
Y24205D02*
X3134Y24236D01*
Y24492D02*
Y26480D01*
X2937Y24520D02*
X3135Y24492D01*
X24016Y23687D02*
X28134D01*
X24016D02*
Y24746D01*
X28134D01*
Y23687D02*
Y24746D01*
X7240Y27171D02*
Y28392D01*
X8146Y27171D02*
Y28392D01*
X7240D02*
X8146D01*
X7240Y27171D02*
X8146D01*
X4220D02*
Y28392D01*
X5126Y27171D02*
Y28392D01*
X4220D02*
X5126D01*
X4220Y27171D02*
X5126D01*
X3044Y26047D02*
X3241Y26028D01*
X3044Y26224D02*
X3241Y26244D01*
X3241Y26028D02*
Y26244D01*
X288Y26480D02*
X3044D01*
X288Y23724D02*
Y24236D01*
Y23724D02*
X3044D01*
Y26224D02*
Y26480D01*
Y23724D02*
Y26047D01*
X91Y24205D02*
Y24520D01*
Y24205D02*
X288Y24236D01*
Y24492D02*
Y26480D01*
X91Y24520D02*
X288Y24492D01*
X26264Y35720D02*
X28626D01*
X26264Y37256D02*
X28626D01*
Y35720D02*
Y36094D01*
X26264Y35720D02*
Y36094D01*
X28626Y36882D02*
Y37256D01*
X26264Y36882D02*
Y37256D01*
X34898Y25949D02*
X35409D01*
X35547Y24783D02*
Y25933D01*
Y24783D02*
X35587D01*
Y25933D01*
X35547D02*
X35587D01*
X34898Y28780D02*
X35409D01*
X35547Y27614D02*
Y28764D01*
Y27614D02*
X35587D01*
Y28764D01*
X35547D02*
X35587D01*
X34894Y31469D02*
X35406D01*
X35543Y30303D02*
Y31453D01*
Y30303D02*
X35583D01*
Y31453D01*
X35543D02*
X35583D01*
X31390Y29911D02*
Y31880D01*
X32650Y29911D02*
Y31880D01*
X31390D02*
X32650D01*
X31390Y29911D02*
X32650D01*
X31394Y27192D02*
Y29160D01*
X32654Y27192D02*
Y29160D01*
X31394D02*
X32654D01*
X31394Y27192D02*
X32654D01*
X34431Y30858D02*
Y30937D01*
X33978Y30858D02*
Y30937D01*
X31394Y24376D02*
Y26345D01*
X32654Y24376D02*
Y26345D01*
X31394D02*
X32654D01*
X31394Y24376D02*
X32654D01*
X34431Y25327D02*
Y25406D01*
X33978Y25327D02*
Y25406D01*
X34431Y28146D02*
Y28224D01*
X33978Y28146D02*
Y28224D01*
X16968Y34524D02*
X18740D01*
X16968Y35547D02*
X18740D01*
X16571Y32094D02*
Y34102D01*
X19012Y32094D02*
Y34102D01*
X16571D02*
X19012D01*
X16571Y32094D02*
X19012D01*
X6387D02*
Y34102D01*
X8828Y32094D02*
Y34102D01*
X6387D02*
X8828D01*
X6387Y32094D02*
X8828D01*
X11479D02*
Y34102D01*
X13920Y32094D02*
Y34102D01*
X11479D02*
X13920D01*
X11479Y32094D02*
X13920D01*
X11856Y34524D02*
X13627D01*
X11856Y35547D02*
X13627D01*
X1295Y32094D02*
Y34102D01*
X3736Y32094D02*
Y34102D01*
X1295D02*
X3736D01*
X1295Y32094D02*
X3736D01*
X6743Y34524D02*
X8514D01*
X6743Y35547D02*
X8514D01*
X1630Y34524D02*
X3402D01*
X1630Y35547D02*
X3402D01*
X27476Y42157D02*
X29484D01*
X27476Y39717D02*
X29484D01*
Y42157D01*
X27476Y39717D02*
Y42157D01*
X33819Y38539D02*
Y39140D01*
X32843Y39642D02*
X32882D01*
X32843Y40114D02*
X32882D01*
D13*
X23671Y23988D02*
X23748Y24065D01*
X23661Y24154D02*
X23748Y24067D01*
Y24063D02*
Y24067D01*
X23323Y24063D02*
X23748D01*
X22327Y23886D02*
Y24181D01*
X21441Y23886D02*
Y24181D01*
X20020Y23886D02*
Y24181D01*
X4429Y41020D02*
Y42791D01*
Y41020D02*
Y42791D01*
Y37083D02*
Y39839D01*
X1354Y36055D02*
X3323D01*
X492Y37083D02*
Y41807D01*
Y42988D02*
Y43972D01*
Y43929D02*
X3323D01*
X5622D02*
X8453D01*
X5622Y42988D02*
Y43972D01*
Y37083D02*
Y41807D01*
X6484Y36055D02*
X8453D01*
X9559Y37083D02*
Y39839D01*
Y41020D02*
Y42791D01*
Y41020D02*
Y42791D01*
X14689Y41020D02*
Y42791D01*
Y41020D02*
Y42791D01*
Y37083D02*
Y39839D01*
X11614Y36055D02*
X13583D01*
X10752Y37083D02*
Y41807D01*
Y42988D02*
Y43972D01*
Y43929D02*
X13583D01*
X19819Y41020D02*
Y42791D01*
Y41020D02*
Y42791D01*
Y37083D02*
Y39839D01*
X16744Y36055D02*
X18713D01*
X15882Y37083D02*
Y41807D01*
Y42988D02*
Y43972D01*
Y43929D02*
X18713D01*
X37370Y36362D02*
Y37150D01*
X34220Y36362D02*
Y37150D01*
X32122Y39488D02*
X33602D01*
X32122D02*
Y40258D01*
X33602D01*
Y39488D02*
Y40258D01*
D14*
X21207Y43835D02*
X22368D01*
Y43283D02*
Y43835D01*
X21207Y43283D02*
X22368D01*
X21207D02*
Y43835D01*
X23448D02*
X24609D01*
Y43283D02*
Y43835D01*
X23448Y43283D02*
X24609D01*
X23448D02*
Y43835D01*
X27852Y38035D02*
X29014D01*
X27852D02*
Y38587D01*
X29014D01*
Y38035D02*
Y38587D01*
X25688Y38035D02*
X26850D01*
X25688D02*
Y38587D01*
X26850D01*
Y38035D02*
Y38587D01*
X23448Y38035D02*
X24609D01*
X23448D02*
Y38587D01*
X24609D01*
Y38035D02*
Y38587D01*
X21207Y38035D02*
X22368D01*
X21207D02*
Y38587D01*
X22368D01*
Y38035D02*
Y38587D01*
X25688Y43835D02*
X26850D01*
Y43283D02*
Y43835D01*
X25688Y43283D02*
X26850D01*
X25688D02*
Y43835D01*
X37890Y40931D02*
Y42093D01*
X38441D01*
Y40931D02*
Y42093D01*
X37890Y40931D02*
X38441D01*
X39110Y40931D02*
Y42093D01*
X38559Y40931D02*
X39110D01*
X38559D02*
Y42093D01*
X39110D01*
X31020Y34837D02*
Y35998D01*
X31571D01*
Y34837D02*
Y35998D01*
X31020Y34837D02*
X31571D01*
X1346Y29945D02*
X1898D01*
X1346Y28783D02*
Y29945D01*
Y28783D02*
X1898D01*
Y29945D01*
X23013Y32093D02*
X23564D01*
X23013Y30932D02*
Y32093D01*
Y30932D02*
X23564D01*
Y32093D01*
X22300Y32107D02*
X22851D01*
X22300Y30945D02*
Y32107D01*
Y30945D02*
X22851D01*
Y32107D01*
X18024Y26295D02*
Y26846D01*
Y26295D02*
X19185D01*
Y26846D01*
X18024D02*
X19185D01*
X29278Y29870D02*
X30439D01*
X29278D02*
Y30421D01*
X30439D01*
Y29870D02*
Y30421D01*
X29278Y31925D02*
X30439D01*
Y31374D02*
Y31925D01*
X29278Y31374D02*
X30439D01*
X29278D02*
Y31925D01*
X29278Y29201D02*
X30439D01*
Y28650D02*
Y29201D01*
X29278Y28650D02*
X30439D01*
X29278D02*
Y29201D01*
X29278Y26358D02*
X30439D01*
Y25807D02*
Y26358D01*
X29278Y25807D02*
X30439D01*
X29278D02*
Y26358D01*
X29278Y24343D02*
X30439D01*
X29278D02*
Y24894D01*
X30439D01*
Y24343D02*
Y24894D01*
X29278Y27161D02*
X30439D01*
X29278D02*
Y27713D01*
X30439D01*
Y27161D02*
Y27713D01*
X16606Y27075D02*
Y27626D01*
X15445D02*
X16606D01*
X15445Y27075D02*
Y27626D01*
Y27075D02*
X16606D01*
X15445Y26278D02*
Y26829D01*
Y26278D02*
X16606D01*
Y26829D01*
X15445D02*
X16606D01*
X14711Y24961D02*
Y25512D01*
X13549D02*
X14711D01*
X13549Y24961D02*
Y25512D01*
Y24961D02*
X14711D01*
X16606Y25500D02*
Y26051D01*
X15445D02*
X16606D01*
X15445Y25500D02*
Y26051D01*
Y25500D02*
X16606D01*
X15691Y31382D02*
Y31933D01*
Y31382D02*
X16852D01*
Y31933D01*
X15691D02*
X16852D01*
X10591Y31382D02*
Y31933D01*
Y31382D02*
X11753D01*
Y31933D01*
X10591D02*
X11753D01*
X5491Y31382D02*
Y31933D01*
Y31382D02*
X6653D01*
Y31933D01*
X5491D02*
X6653D01*
X392Y31382D02*
Y31933D01*
Y31382D02*
X1553D01*
Y31933D01*
X392D02*
X1553D01*
X27852Y43283D02*
Y43835D01*
Y43283D02*
X29014D01*
Y43835D01*
X27852D02*
X29014D01*
X30299Y36018D02*
X30850D01*
X30299Y34856D02*
Y36018D01*
Y34856D02*
X30850D01*
Y36018D01*
X30976Y40102D02*
X31528D01*
X30976Y38941D02*
Y40102D01*
Y38941D02*
X31528D01*
Y40102D01*
X31039Y36171D02*
X31591D01*
Y37333D01*
X31039D02*
X31591D01*
X31039Y36171D02*
Y37333D01*
X27555Y34984D02*
Y35535D01*
Y34984D02*
X28717D01*
Y35535D01*
X27555D02*
X28717D01*
D15*
X32359Y34822D02*
Y36003D01*
X31799Y34822D02*
Y36003D01*
X32359D01*
X31799Y34822D02*
X32359D01*
X22246Y30961D02*
Y32142D01*
X21686Y30961D02*
Y32142D01*
X22246D01*
X21686Y30961D02*
X22246D01*
X21620Y30969D02*
Y32150D01*
X21060Y30969D02*
Y32150D01*
X21620D01*
X21060Y30969D02*
X21620D01*
X2610Y28023D02*
Y28583D01*
X1429Y28023D02*
Y28583D01*
Y28023D02*
X2610D01*
X1429Y28583D02*
X2610D01*
Y27334D02*
Y27894D01*
X1429Y27334D02*
Y27894D01*
Y27334D02*
X2610D01*
X1429Y27894D02*
X2610D01*
X26682Y25461D02*
Y26021D01*
X27863Y25461D02*
Y26021D01*
X26682D02*
X27863D01*
X26682Y25461D02*
X27863D01*
X26686Y29114D02*
Y29674D01*
X27867Y29114D02*
Y29674D01*
X26686D02*
X27867D01*
X26686Y29114D02*
X27867D01*
X20512Y24779D02*
Y25339D01*
X19331Y24779D02*
Y25339D01*
Y24779D02*
X20512D01*
X19331Y25339D02*
X20512D01*
X19456Y28016D02*
Y28576D01*
X20637Y28016D02*
Y28576D01*
X19456D02*
X20637D01*
X19456Y28016D02*
X20637D01*
Y28953D02*
Y29513D01*
X19456Y28953D02*
Y29513D01*
Y28953D02*
X20637D01*
X19456Y29513D02*
X20637D01*
X19456Y27067D02*
Y27627D01*
X20637Y27067D02*
Y27627D01*
X19456D02*
X20637D01*
X19456Y27067D02*
X20637D01*
X19965Y25623D02*
X20525D01*
X19965Y26804D02*
X20525D01*
X19965Y25623D02*
Y26804D01*
X20525Y25623D02*
Y26804D01*
X19323Y25623D02*
X19883D01*
X19323Y26804D02*
X19883D01*
X19323Y25623D02*
Y26804D01*
X19883Y25623D02*
Y26804D01*
X20637Y29858D02*
Y30418D01*
X19456Y29858D02*
Y30418D01*
Y29858D02*
X20637D01*
X19456Y30418D02*
X20637D01*
X34004Y29251D02*
Y29811D01*
X32823Y29251D02*
Y29811D01*
Y29251D02*
X34004D01*
X32823Y29811D02*
X34004D01*
Y32000D02*
Y32560D01*
X32823Y32000D02*
Y32560D01*
Y32000D02*
X34004D01*
X32823Y32560D02*
X34004D01*
Y26488D02*
Y27048D01*
X32823Y26488D02*
Y27048D01*
Y26488D02*
X34004D01*
X32823Y27048D02*
X34004D01*
X13535Y27045D02*
Y27605D01*
X14716Y27045D02*
Y27605D01*
X13535D02*
X14716D01*
X13535Y27045D02*
X14716D01*
X4650Y28641D02*
Y29201D01*
X5831Y28641D02*
Y29201D01*
X4650D02*
X5831D01*
X4650Y28641D02*
X5831D01*
X7673D02*
Y29201D01*
X8854Y28641D02*
Y29201D01*
X7673D02*
X8854D01*
X7673Y28641D02*
X8854D01*
X30988Y38724D02*
X31548D01*
X30988Y37543D02*
X31548D01*
Y38724D01*
X30988Y37543D02*
Y38724D01*
X33811Y34874D02*
Y35434D01*
X32630Y34874D02*
Y35434D01*
Y34874D02*
X33811D01*
X32630Y35434D02*
X33811D01*
X26165Y34984D02*
Y35544D01*
X27346Y34984D02*
Y35544D01*
X26165D02*
X27346D01*
X26165Y34984D02*
X27346D01*
D16*
X18491Y27152D02*
X18767D01*
X18491Y28471D02*
X18796D01*
X18097Y27684D02*
Y27959D01*
X19141Y27684D02*
Y27959D01*
X18406Y28918D02*
X19292D01*
Y30453D01*
X18426D02*
X19292D01*
X18406D02*
X18426D01*
X18406Y28918D02*
Y30453D01*
X33811Y30150D02*
X34559D01*
X34579Y30169D01*
Y31636D01*
X33811D02*
X34579D01*
X33811Y30150D02*
Y31636D01*
Y24618D02*
X34559D01*
X34579Y24638D01*
Y26104D01*
X33811D02*
X34579D01*
X33811Y24618D02*
Y26104D01*
X33811Y27437D02*
X34559D01*
X34579Y27457D01*
Y28923D01*
X33811D02*
X34579D01*
X33811Y27437D02*
Y28923D01*
X38839Y40221D02*
X38959Y40341D01*
X38719D02*
X38839Y40221D01*
X38719Y40341D02*
X38959D01*
X38612Y40823D02*
X39065D01*
X38612Y39760D02*
Y40823D01*
Y39760D02*
X39065D01*
Y40823D01*
X38388Y39754D02*
Y40817D01*
X37935Y39754D02*
X38388D01*
X37935D02*
Y40817D01*
X38388D01*
X38041Y40335D02*
X38281D01*
X38041D02*
X38161Y40215D01*
X38281Y40335D01*
D17*
X14626Y25776D02*
Y25876D01*
X13626Y26676D02*
Y26776D01*
X14626D01*
Y26676D02*
Y26776D01*
X13626Y25776D02*
Y25876D01*
Y25776D02*
X14626D01*
X38100Y47110D02*
Y46795D01*
X38257D01*
X38310Y46848D01*
Y47058D01*
X38257Y47110D01*
X38100D01*
X38625D02*
X38415D01*
Y46953D01*
X38520Y47005D01*
X38572D01*
X38625Y46953D01*
Y46848D01*
X38572Y46795D01*
X38467D01*
X38415Y46848D01*
X34142Y44504D02*
X33932D01*
Y44346D01*
X34037D01*
X33932D01*
Y44189D01*
X34247D02*
X34352D01*
X34299D01*
Y44504D01*
X34247Y44451D01*
X30266Y47150D02*
X30161D01*
X30214D01*
Y46887D01*
X30161Y46835D01*
X30109D01*
X30057Y46887D01*
X30529Y46835D02*
Y47150D01*
X30371Y46992D01*
X30581D01*
X17756Y27942D02*
X17441Y27732D01*
X17756D02*
X17441Y27942D01*
Y27627D02*
Y27522D01*
Y27575D01*
X17756D01*
X17703Y27627D01*
X17803Y29936D02*
X17488Y29726D01*
X17803D02*
X17488Y29936D01*
Y29411D02*
Y29621D01*
X17698Y29411D01*
X17751D01*
X17803Y29463D01*
Y29568D01*
X17751Y29621D01*
X5378Y46967D02*
Y47072D01*
Y47020D01*
X5116D01*
X5063Y47072D01*
Y47125D01*
X5116Y47177D01*
X5063Y46862D02*
Y46757D01*
Y46810D01*
X5378D01*
X5325Y46862D01*
X5063Y46442D02*
X5378D01*
X5220Y46600D01*
Y46390D01*
X4984Y45971D02*
Y46076D01*
Y46024D01*
X4722D01*
X4669Y46076D01*
Y46129D01*
X4722Y46181D01*
X4669Y45866D02*
Y45761D01*
Y45814D01*
X4984D01*
X4932Y45866D01*
X4669Y45394D02*
Y45604D01*
X4879Y45394D01*
X4932D01*
X4984Y45446D01*
Y45551D01*
X4932Y45604D01*
X4929Y43820D02*
X4614D01*
X4719D01*
X4929Y43610D01*
X4772Y43768D01*
X4614Y43610D01*
Y43505D02*
Y43400D01*
Y43453D01*
X4929D01*
X4877Y43505D01*
X5429Y36577D02*
X5114D01*
X5219D01*
X5429Y36367D01*
X5272Y36525D01*
X5114Y36367D01*
Y36053D02*
Y36262D01*
X5324Y36053D01*
X5377D01*
X5429Y36105D01*
Y36210D01*
X5377Y36262D01*
X10520Y36629D02*
X10205D01*
X10310D01*
X10520Y36419D01*
X10362Y36576D01*
X10205Y36419D01*
X10467Y36314D02*
X10520Y36261D01*
Y36156D01*
X10467Y36104D01*
X10415D01*
X10362Y36156D01*
Y36209D01*
Y36156D01*
X10310Y36104D01*
X10257D01*
X10205Y36156D01*
Y36261D01*
X10257Y36314D01*
X10484Y46982D02*
Y47087D01*
Y47034D01*
X10222D01*
X10169Y47087D01*
Y47139D01*
X10222Y47191D01*
X10169Y46877D02*
Y46772D01*
Y46824D01*
X10484D01*
X10432Y46877D01*
X10169Y46614D02*
Y46509D01*
Y46562D01*
X10484D01*
X10432Y46614D01*
X15646Y36676D02*
X15331D01*
X15436D01*
X15646Y36466D01*
X15488Y36623D01*
X15331Y36466D01*
Y36203D02*
X15646D01*
X15488Y36361D01*
Y36151D01*
X15610Y46908D02*
Y47013D01*
Y46961D01*
X15348D01*
X15295Y47013D01*
Y47066D01*
X15348Y47118D01*
X15295Y46803D02*
Y46698D01*
Y46751D01*
X15610D01*
X15558Y46803D01*
Y46541D02*
X15610Y46488D01*
Y46383D01*
X15558Y46331D01*
X15505D01*
X15453Y46383D01*
Y46436D01*
Y46383D01*
X15400Y46331D01*
X15348D01*
X15295Y46383D01*
Y46488D01*
X15348Y46541D01*
X29105Y47169D02*
X29000D01*
X29053D01*
Y46907D01*
X29000Y46854D01*
X28948D01*
X28895Y46907D01*
X29210D02*
X29262Y46854D01*
X29367D01*
X29420Y46907D01*
Y47117D01*
X29367Y47169D01*
X29262D01*
X29210Y47117D01*
Y47064D01*
X29262Y47012D01*
X29420D01*
X20785Y47020D02*
X20680D01*
X20732D01*
Y46757D01*
X20680Y46705D01*
X20627D01*
X20575Y46757D01*
X20890Y46705D02*
X20995D01*
X20942D01*
Y47020D01*
X20890Y46967D01*
X21152D02*
X21205Y47020D01*
X21310D01*
X21362Y46967D01*
Y46757D01*
X21310Y46705D01*
X21205D01*
X21152Y46757D01*
Y46967D01*
X22498Y43413D02*
Y43728D01*
X22655D01*
X22707Y43676D01*
Y43571D01*
X22655Y43518D01*
X22498D01*
X22602D02*
X22707Y43413D01*
X23022D02*
X22812D01*
X23022Y43623D01*
Y43676D01*
X22970Y43728D01*
X22865D01*
X22812Y43676D01*
X23337Y43728D02*
X23232Y43676D01*
X23127Y43571D01*
Y43466D01*
X23180Y43413D01*
X23285D01*
X23337Y43466D01*
Y43518D01*
X23285Y43571D01*
X23127D01*
X24718Y43413D02*
Y43728D01*
X24875D01*
X24928Y43676D01*
Y43571D01*
X24875Y43518D01*
X24718D01*
X24823D02*
X24928Y43413D01*
X25033Y43676D02*
X25085Y43728D01*
X25190D01*
X25243Y43676D01*
Y43623D01*
X25190Y43571D01*
X25138D01*
X25190D01*
X25243Y43518D01*
Y43466D01*
X25190Y43413D01*
X25085D01*
X25033Y43466D01*
X25348Y43676D02*
X25400Y43728D01*
X25505D01*
X25558Y43676D01*
Y43466D01*
X25505Y43413D01*
X25400D01*
X25348Y43466D01*
Y43676D01*
X25056Y38324D02*
X25266D01*
X25319Y38377D01*
Y38482D01*
X25266Y38534D01*
X25056D01*
X25004Y38482D01*
Y38377D01*
X25109Y38429D02*
X25004Y38324D01*
Y38377D02*
X25056Y38324D01*
X25319Y38009D02*
Y38219D01*
X25161D01*
X25214Y38114D01*
Y38062D01*
X25161Y38009D01*
X25056D01*
X25004Y38062D01*
Y38167D01*
X25056Y38219D01*
X28041Y37484D02*
Y37799D01*
X28198D01*
X28251Y37747D01*
Y37642D01*
X28198Y37589D01*
X28041D01*
X28146D02*
X28251Y37484D01*
X28566D02*
X28356D01*
X28566Y37694D01*
Y37747D01*
X28513Y37799D01*
X28408D01*
X28356Y37747D01*
X28671D02*
X28723Y37799D01*
X28828D01*
X28880Y37747D01*
Y37694D01*
X28828Y37642D01*
X28775D01*
X28828D01*
X28880Y37589D01*
Y37537D01*
X28828Y37484D01*
X28723D01*
X28671Y37537D01*
X25797Y37484D02*
Y37799D01*
X25954D01*
X26007Y37747D01*
Y37642D01*
X25954Y37589D01*
X25797D01*
X25902D02*
X26007Y37484D01*
X26321D02*
X26112D01*
X26321Y37694D01*
Y37747D01*
X26269Y37799D01*
X26164D01*
X26112Y37747D01*
X26426Y37799D02*
X26636D01*
Y37747D01*
X26426Y37537D01*
Y37484D01*
X23600D02*
Y37799D01*
X23757D01*
X23810Y37747D01*
Y37642D01*
X23757Y37589D01*
X23600D01*
X23705D02*
X23810Y37484D01*
X24125D02*
X23915D01*
X24125Y37694D01*
Y37747D01*
X24072Y37799D01*
X23967D01*
X23915Y37747D01*
X24230Y37537D02*
X24282Y37484D01*
X24387D01*
X24439Y37537D01*
Y37747D01*
X24387Y37799D01*
X24282D01*
X24230Y37747D01*
Y37694D01*
X24282Y37642D01*
X24439D01*
X21305Y37484D02*
Y37799D01*
X21462D01*
X21514Y37747D01*
Y37642D01*
X21462Y37589D01*
X21305D01*
X21410D02*
X21514Y37484D01*
X21829D02*
X21619D01*
X21829Y37694D01*
Y37747D01*
X21777Y37799D01*
X21672D01*
X21619Y37747D01*
X22144Y37799D02*
X21934D01*
Y37642D01*
X22039Y37694D01*
X22092D01*
X22144Y37642D01*
Y37537D01*
X22092Y37484D01*
X21987D01*
X21934Y37537D01*
X22781Y38324D02*
X22991D01*
X23043Y38377D01*
Y38482D01*
X22991Y38534D01*
X22781D01*
X22728Y38482D01*
Y38377D01*
X22833Y38429D02*
X22728Y38324D01*
Y38377D02*
X22781Y38324D01*
X22991Y38219D02*
X23043Y38167D01*
Y38062D01*
X22991Y38009D01*
X22938D01*
X22886Y38062D01*
Y38114D01*
Y38062D01*
X22833Y38009D01*
X22781D01*
X22728Y38062D01*
Y38167D01*
X22781Y38219D01*
X26950Y43413D02*
Y43728D01*
X27108D01*
X27160Y43676D01*
Y43571D01*
X27108Y43518D01*
X26950D01*
X27055D02*
X27160Y43413D01*
X27475D02*
X27265D01*
X27475Y43623D01*
Y43676D01*
X27423Y43728D01*
X27318D01*
X27265Y43676D01*
X27580D02*
X27632Y43728D01*
X27737D01*
X27790Y43676D01*
Y43623D01*
X27737Y43571D01*
X27790Y43518D01*
Y43466D01*
X27737Y43413D01*
X27632D01*
X27580Y43466D01*
Y43518D01*
X27632Y43571D01*
X27580Y43623D01*
Y43676D01*
X27632Y43571D02*
X27737D01*
X27308Y38356D02*
X27518D01*
X27571Y38408D01*
Y38513D01*
X27518Y38566D01*
X27308D01*
X27256Y38513D01*
Y38408D01*
X27361Y38461D02*
X27256Y38356D01*
Y38408D02*
X27308Y38356D01*
X27256Y38093D02*
X27571D01*
X27413Y38251D01*
Y38041D01*
X33445Y43730D02*
X33130D01*
Y43520D01*
Y43415D02*
Y43310D01*
Y43362D01*
X33445D01*
X33392Y43415D01*
X33990Y40955D02*
X33937Y41008D01*
X33832D01*
X33780Y40955D01*
Y40745D01*
X33832Y40693D01*
X33937D01*
X33990Y40745D01*
X34095Y40693D02*
X34199D01*
X34147D01*
Y41008D01*
X34095Y40955D01*
X34357Y41008D02*
X34567D01*
Y40955D01*
X34357Y40745D01*
Y40693D01*
X34227Y43596D02*
X34279Y43648D01*
Y43753D01*
X34227Y43806D01*
X34017D01*
X33965Y43753D01*
Y43648D01*
X34017Y43596D01*
X33965Y43281D02*
Y43491D01*
X34175Y43281D01*
X34227D01*
X34279Y43333D01*
Y43438D01*
X34227Y43491D01*
Y43176D02*
X34279Y43123D01*
Y43018D01*
X34227Y42966D01*
X34175D01*
X34122Y43018D01*
Y43071D01*
Y43018D01*
X34070Y42966D01*
X34017D01*
X33965Y43018D01*
Y43123D01*
X34017Y43176D01*
X37720Y44045D02*
Y44255D01*
X37668Y44307D01*
X37563D01*
X37511Y44255D01*
Y44045D01*
X37563Y43992D01*
X37668D01*
X37616Y44097D02*
X37720Y43992D01*
X37668D02*
X37720Y44045D01*
X37825Y43992D02*
X37930D01*
X37878D01*
Y44307D01*
X37825Y44255D01*
X38146Y39517D02*
X38461D01*
Y39360D01*
X38408Y39307D01*
X38303D01*
X38251Y39360D01*
Y39517D01*
Y39412D02*
X38146Y39307D01*
Y38992D02*
Y39202D01*
X38356Y38992D01*
X38408D01*
X38461Y39045D01*
Y39150D01*
X38408Y39202D01*
X38146Y38887D02*
Y38782D01*
Y38835D01*
X38461D01*
X38408Y38887D01*
X38744Y39526D02*
X39059D01*
Y39369D01*
X39007Y39316D01*
X38902D01*
X38849Y39369D01*
Y39526D01*
Y39421D02*
X38744Y39316D01*
Y39001D02*
Y39211D01*
X38954Y39001D01*
X39007D01*
X39059Y39054D01*
Y39159D01*
X39007Y39211D01*
Y38896D02*
X39059Y38844D01*
Y38739D01*
X39007Y38686D01*
X38797D01*
X38744Y38739D01*
Y38844D01*
X38797Y38896D01*
X39007D01*
X36871Y40479D02*
X36819Y40531D01*
X36714D01*
X36662Y40479D01*
Y40269D01*
X36714Y40217D01*
X36819D01*
X36871Y40269D01*
X36976Y40217D02*
X37081D01*
X37029D01*
Y40531D01*
X36976Y40479D01*
X37239D02*
X37291Y40531D01*
X37396D01*
X37449Y40479D01*
Y40426D01*
X37396Y40374D01*
X37449Y40322D01*
Y40269D01*
X37396Y40217D01*
X37291D01*
X37239Y40269D01*
Y40322D01*
X37291Y40374D01*
X37239Y40426D01*
Y40479D01*
X37291Y40374D02*
X37396D01*
X36895Y39420D02*
X36843Y39472D01*
X36738D01*
X36685Y39420D01*
Y39210D01*
X36738Y39158D01*
X36843D01*
X36895Y39210D01*
X37000Y39158D02*
X37105D01*
X37053D01*
Y39472D01*
X37000Y39420D01*
X37262Y39210D02*
X37315Y39158D01*
X37420D01*
X37472Y39210D01*
Y39420D01*
X37420Y39472D01*
X37315D01*
X37262Y39420D01*
Y39367D01*
X37315Y39315D01*
X37472D01*
X38220Y36810D02*
X37906D01*
Y36600D01*
Y36285D02*
Y36495D01*
X38115Y36285D01*
X38168D01*
X38220Y36337D01*
Y36442D01*
X38168Y36495D01*
X31150Y34617D02*
X31465D01*
Y34459D01*
X31412Y34407D01*
X31307D01*
X31255Y34459D01*
Y34617D01*
Y34512D02*
X31150Y34407D01*
X31412Y34302D02*
X31465Y34249D01*
Y34144D01*
X31412Y34092D01*
X31360D01*
X31307Y34144D01*
Y34197D01*
Y34144D01*
X31255Y34092D01*
X31202D01*
X31150Y34144D01*
Y34249D01*
X31202Y34302D01*
X31465Y33777D02*
Y33987D01*
X31307D01*
X31360Y33882D01*
Y33830D01*
X31307Y33777D01*
X31202D01*
X31150Y33830D01*
Y33934D01*
X31202Y33987D01*
X32215Y34438D02*
X32268Y34491D01*
Y34596D01*
X32215Y34648D01*
X32005D01*
X31953Y34596D01*
Y34491D01*
X32005Y34438D01*
X31953Y34123D02*
Y34333D01*
X32163Y34123D01*
X32215D01*
X32268Y34176D01*
Y34281D01*
X32215Y34333D01*
X32005Y34018D02*
X31953Y33966D01*
Y33861D01*
X32005Y33809D01*
X32215D01*
X32268Y33861D01*
Y33966D01*
X32215Y34018D01*
X32163D01*
X32110Y33966D01*
Y33809D01*
X22050Y32804D02*
X22102Y32857D01*
Y32962D01*
X22050Y33014D01*
X21840D01*
X21787Y32962D01*
Y32857D01*
X21840Y32804D01*
Y32699D02*
X21787Y32647D01*
Y32542D01*
X21840Y32490D01*
X22050D01*
X22102Y32542D01*
Y32647D01*
X22050Y32699D01*
X21997D01*
X21945Y32647D01*
Y32490D01*
X21554Y30394D02*
Y30131D01*
X21606Y30079D01*
X21711D01*
X21764Y30131D01*
Y30394D01*
X21869Y30079D02*
X21974D01*
X21921D01*
Y30394D01*
X21869Y30341D01*
X21444Y32804D02*
X21496Y32857D01*
Y32962D01*
X21444Y33014D01*
X21234D01*
X21181Y32962D01*
Y32857D01*
X21234Y32804D01*
X21181Y32699D02*
Y32595D01*
Y32647D01*
X21496D01*
X21444Y32699D01*
X21181Y32437D02*
Y32332D01*
Y32385D01*
X21496D01*
X21444Y32437D01*
X36291Y26521D02*
Y26626D01*
Y26573D01*
X36029D01*
X35976Y26626D01*
Y26678D01*
X36029Y26731D01*
X35976Y26206D02*
Y26416D01*
X36186Y26206D01*
X36239D01*
X36291Y26259D01*
Y26364D01*
X36239Y26416D01*
X36236Y29354D02*
Y29459D01*
Y29407D01*
X35974D01*
X35921Y29459D01*
Y29512D01*
X35974Y29564D01*
X35921Y29249D02*
Y29144D01*
Y29197D01*
X36236D01*
X36184Y29249D01*
X36264Y32261D02*
Y32366D01*
Y32314D01*
X36001D01*
X35949Y32366D01*
Y32419D01*
X36001Y32471D01*
X36211Y32156D02*
X36264Y32104D01*
Y31999D01*
X36211Y31946D01*
X36159D01*
X36106Y31999D01*
Y32051D01*
Y31999D01*
X36054Y31946D01*
X36001D01*
X35949Y31999D01*
Y32104D01*
X36001Y32156D01*
X9011Y27016D02*
X8906D01*
X8958D01*
Y26753D01*
X8906Y26701D01*
X8853D01*
X8801Y26753D01*
X9325Y27016D02*
X9220Y26963D01*
X9115Y26858D01*
Y26753D01*
X9168Y26701D01*
X9273D01*
X9325Y26753D01*
Y26806D01*
X9273Y26858D01*
X9115D01*
X6188Y27031D02*
X6083D01*
X6135D01*
Y26769D01*
X6083Y26717D01*
X6030D01*
X5978Y26769D01*
X6503Y27031D02*
X6293D01*
Y26874D01*
X6398Y26926D01*
X6450D01*
X6503Y26874D01*
Y26769D01*
X6450Y26717D01*
X6345D01*
X6293Y26769D01*
X3325Y27004D02*
X3221D01*
X3273D01*
Y26741D01*
X3221Y26689D01*
X3168D01*
X3116Y26741D01*
X3430Y26951D02*
X3483Y27004D01*
X3588D01*
X3640Y26951D01*
Y26899D01*
X3588Y26846D01*
X3640Y26794D01*
Y26741D01*
X3588Y26689D01*
X3483D01*
X3430Y26741D01*
Y26794D01*
X3483Y26846D01*
X3430Y26899D01*
Y26951D01*
X3483Y26846D02*
X3588D01*
X574Y28392D02*
X521Y28445D01*
X416D01*
X364Y28392D01*
Y28182D01*
X416Y28130D01*
X521D01*
X574Y28182D01*
X888Y28130D02*
X679D01*
X888Y28340D01*
Y28392D01*
X836Y28445D01*
X731D01*
X679Y28392D01*
X993D02*
X1046Y28445D01*
X1151D01*
X1203Y28392D01*
Y28182D01*
X1151Y28130D01*
X1046D01*
X993Y28182D01*
Y28392D01*
X574Y27766D02*
X521Y27819D01*
X416D01*
X364Y27766D01*
Y27556D01*
X416Y27504D01*
X521D01*
X574Y27556D01*
X888Y27504D02*
X679D01*
X888Y27714D01*
Y27766D01*
X836Y27819D01*
X731D01*
X679Y27766D01*
X993Y27504D02*
X1098D01*
X1046D01*
Y27819D01*
X993Y27766D01*
X3039Y29574D02*
Y29784D01*
X2882D01*
Y29679D01*
Y29784D01*
X2724D01*
X3039Y29469D02*
X2724D01*
Y29312D01*
X2777Y29259D01*
X2829D01*
X2882Y29312D01*
Y29469D01*
Y29312D01*
X2934Y29259D01*
X2987D01*
X3039Y29312D01*
Y29469D01*
X2724Y28944D02*
Y29154D01*
X2934Y28944D01*
X2987D01*
X3039Y28997D01*
Y29102D01*
X2987Y29154D01*
X787Y29819D02*
X1102D01*
Y29662D01*
X1050Y29610D01*
X945D01*
X892Y29662D01*
Y29819D01*
Y29714D02*
X787Y29610D01*
X1050Y29505D02*
X1102Y29452D01*
Y29347D01*
X1050Y29295D01*
X997D01*
X945Y29347D01*
Y29400D01*
Y29347D01*
X892Y29295D01*
X840D01*
X787Y29347D01*
Y29452D01*
X840Y29505D01*
X1050Y29190D02*
X1102Y29137D01*
Y29032D01*
X1050Y28980D01*
X997D01*
X945Y29032D01*
X892Y28980D01*
X840D01*
X787Y29032D01*
Y29137D01*
X840Y29190D01*
X892D01*
X945Y29137D01*
X997Y29190D01*
X1050D01*
X945Y29137D02*
Y29032D01*
X23353Y24445D02*
Y24760D01*
X23511D01*
X23563Y24707D01*
Y24602D01*
X23511Y24550D01*
X23353D01*
X23668Y24445D02*
X23773D01*
X23720D01*
Y24760D01*
X23668Y24707D01*
X6655Y29087D02*
Y28824D01*
X6707Y28772D01*
X6812D01*
X6865Y28824D01*
Y29087D01*
X7180Y28772D02*
X6970D01*
X7180Y28982D01*
Y29034D01*
X7127Y29087D01*
X7022D01*
X6970Y29034D01*
X3655Y29102D02*
Y28840D01*
X3707Y28787D01*
X3812D01*
X3865Y28840D01*
Y29102D01*
X3970Y29050D02*
X4022Y29102D01*
X4127D01*
X4180Y29050D01*
Y28997D01*
X4127Y28945D01*
X4075D01*
X4127D01*
X4180Y28892D01*
Y28840D01*
X4127Y28787D01*
X4022D01*
X3970Y28840D01*
X518Y27059D02*
X413D01*
X466D01*
Y26797D01*
X413Y26744D01*
X361D01*
X308Y26797D01*
X623Y27059D02*
X833D01*
Y27007D01*
X623Y26797D01*
Y26744D01*
X25106Y36522D02*
X25054Y36575D01*
X24949D01*
X24896Y36522D01*
Y36470D01*
X24949Y36417D01*
X25054D01*
X25106Y36365D01*
Y36312D01*
X25054Y36260D01*
X24949D01*
X24896Y36312D01*
X25211Y36575D02*
Y36260D01*
X25316Y36365D01*
X25421Y36260D01*
Y36575D01*
X25526Y36260D02*
X25631D01*
X25579D01*
Y36575D01*
X25526Y36522D01*
X30437Y39987D02*
X30752D01*
Y39829D01*
X30699Y39777D01*
X30594D01*
X30542Y39829D01*
Y39987D01*
Y39882D02*
X30437Y39777D01*
X30699Y39672D02*
X30752Y39619D01*
Y39514D01*
X30699Y39462D01*
X30647D01*
X30594Y39514D01*
Y39567D01*
Y39514D01*
X30542Y39462D01*
X30490D01*
X30437Y39514D01*
Y39619D01*
X30490Y39672D01*
X30752Y39357D02*
Y39147D01*
X30699D01*
X30490Y39357D01*
X30437D01*
Y37164D02*
X30752D01*
Y37006D01*
X30699Y36954D01*
X30594D01*
X30542Y37006D01*
Y37164D01*
Y37059D02*
X30437Y36954D01*
X30699Y36849D02*
X30752Y36797D01*
Y36692D01*
X30699Y36639D01*
X30647D01*
X30594Y36692D01*
Y36744D01*
Y36692D01*
X30542Y36639D01*
X30490D01*
X30437Y36692D01*
Y36797D01*
X30490Y36849D01*
X30752Y36324D02*
X30699Y36429D01*
X30594Y36534D01*
X30490D01*
X30437Y36482D01*
Y36377D01*
X30490Y36324D01*
X30542D01*
X30594Y36377D01*
Y36534D01*
X38461Y38479D02*
X38146D01*
Y38269D01*
X38461Y37954D02*
Y38164D01*
X38146D01*
Y37954D01*
X38303Y38164D02*
Y38059D01*
X38461Y37849D02*
X38146D01*
Y37692D01*
X38198Y37639D01*
X38408D01*
X38461Y37692D01*
Y37849D01*
X38146Y37324D02*
Y37534D01*
X38356Y37324D01*
X38408D01*
X38461Y37377D01*
Y37482D01*
X38408Y37534D01*
X39118Y38442D02*
X38803D01*
Y38232D01*
X39118Y37917D02*
Y38127D01*
X38803D01*
Y37917D01*
X38961Y38127D02*
Y38022D01*
X39118Y37812D02*
X38803D01*
Y37655D01*
X38856Y37602D01*
X39066D01*
X39118Y37655D01*
Y37812D01*
X38803Y37498D02*
Y37393D01*
Y37445D01*
X39118D01*
X39066Y37498D01*
X34398Y39575D02*
Y39470D01*
Y39522D01*
X34083D01*
Y39575D01*
Y39470D01*
X34345Y39102D02*
X34398Y39155D01*
Y39260D01*
X34345Y39312D01*
X34135D01*
X34083Y39260D01*
Y39155D01*
X34135Y39102D01*
X34398Y38788D02*
X34345Y38892D01*
X34240Y38997D01*
X34135D01*
X34083Y38945D01*
Y38840D01*
X34135Y38788D01*
X34188D01*
X34240Y38840D01*
Y38997D01*
X30699Y38363D02*
X30752Y38416D01*
Y38521D01*
X30699Y38573D01*
X30490D01*
X30437Y38521D01*
Y38416D01*
X30490Y38363D01*
X30699Y38259D02*
X30752Y38206D01*
Y38101D01*
X30699Y38049D01*
X30647D01*
X30594Y38101D01*
Y38154D01*
Y38101D01*
X30542Y38049D01*
X30490D01*
X30437Y38101D01*
Y38206D01*
X30490Y38259D01*
X30437Y37734D02*
Y37944D01*
X30647Y37734D01*
X30699D01*
X30752Y37786D01*
Y37891D01*
X30699Y37944D01*
X31038Y41030D02*
X30986Y41083D01*
X30881D01*
X30828Y41030D01*
Y40820D01*
X30881Y40768D01*
X30986D01*
X31038Y40820D01*
X31353Y40768D02*
X31143D01*
X31353Y40978D01*
Y41030D01*
X31301Y41083D01*
X31196D01*
X31143Y41030D01*
X31458D02*
X31510Y41083D01*
X31615D01*
X31668Y41030D01*
Y40978D01*
X31615Y40925D01*
X31668Y40873D01*
Y40820D01*
X31615Y40768D01*
X31510D01*
X31458Y40820D01*
Y40873D01*
X31510Y40925D01*
X31458Y40978D01*
Y41030D01*
X31510Y40925D02*
X31615D01*
X32995Y34621D02*
X32942Y34673D01*
X32837D01*
X32785Y34621D01*
Y34411D01*
X32837Y34358D01*
X32942D01*
X32995Y34411D01*
X33310Y34358D02*
X33100D01*
X33310Y34568D01*
Y34621D01*
X33257Y34673D01*
X33152D01*
X33100Y34621D01*
X33625Y34673D02*
X33520Y34621D01*
X33415Y34516D01*
Y34411D01*
X33467Y34358D01*
X33572D01*
X33625Y34411D01*
Y34463D01*
X33572Y34516D01*
X33415D01*
X17013Y31492D02*
Y31807D01*
X17171D01*
X17223Y31755D01*
Y31650D01*
X17171Y31597D01*
X17013D01*
X17118D02*
X17223Y31492D01*
X17328Y31755D02*
X17381Y31807D01*
X17486D01*
X17538Y31755D01*
Y31702D01*
X17486Y31650D01*
X17433D01*
X17486D01*
X17538Y31597D01*
Y31545D01*
X17486Y31492D01*
X17381D01*
X17328Y31545D01*
X17800Y31492D02*
Y31807D01*
X17643Y31650D01*
X17853D01*
X11914Y31492D02*
Y31807D01*
X12071D01*
X12123Y31755D01*
Y31650D01*
X12071Y31597D01*
X11914D01*
X12018D02*
X12123Y31492D01*
X12228Y31755D02*
X12281Y31807D01*
X12386D01*
X12438Y31755D01*
Y31702D01*
X12386Y31650D01*
X12333D01*
X12386D01*
X12438Y31597D01*
Y31545D01*
X12386Y31492D01*
X12281D01*
X12228Y31545D01*
X12543Y31755D02*
X12596Y31807D01*
X12701D01*
X12753Y31755D01*
Y31702D01*
X12701Y31650D01*
X12648D01*
X12701D01*
X12753Y31597D01*
Y31545D01*
X12701Y31492D01*
X12596D01*
X12543Y31545D01*
X6822Y31488D02*
Y31803D01*
X6979D01*
X7032Y31751D01*
Y31646D01*
X6979Y31593D01*
X6822D01*
X6927D02*
X7032Y31488D01*
X7137Y31751D02*
X7189Y31803D01*
X7294D01*
X7346Y31751D01*
Y31698D01*
X7294Y31646D01*
X7241D01*
X7294D01*
X7346Y31593D01*
Y31541D01*
X7294Y31488D01*
X7189D01*
X7137Y31541D01*
X7661Y31488D02*
X7451D01*
X7661Y31698D01*
Y31751D01*
X7609Y31803D01*
X7504D01*
X7451Y31751D01*
X1767Y31417D02*
Y31732D01*
X1924D01*
X1976Y31680D01*
Y31575D01*
X1924Y31522D01*
X1767D01*
X1871D02*
X1976Y31417D01*
X2081Y31680D02*
X2134Y31732D01*
X2239D01*
X2291Y31680D01*
Y31627D01*
X2239Y31575D01*
X2186D01*
X2239D01*
X2291Y31522D01*
Y31470D01*
X2239Y31417D01*
X2134D01*
X2081Y31470D01*
X2396Y31417D02*
X2501D01*
X2449D01*
Y31732D01*
X2396Y31680D01*
X29159Y43413D02*
Y43728D01*
X29316D01*
X29369Y43676D01*
Y43571D01*
X29316Y43518D01*
X29159D01*
X29264D02*
X29369Y43413D01*
X29684D02*
X29474D01*
X29684Y43623D01*
Y43676D01*
X29631Y43728D01*
X29526D01*
X29474Y43676D01*
X29946Y43413D02*
Y43728D01*
X29789Y43571D01*
X29999D01*
X30465Y34609D02*
X30779D01*
Y34451D01*
X30727Y34399D01*
X30622D01*
X30570Y34451D01*
Y34609D01*
Y34504D02*
X30465Y34399D01*
Y34084D02*
Y34294D01*
X30675Y34084D01*
X30727D01*
X30779Y34137D01*
Y34241D01*
X30727Y34294D01*
X30465Y33769D02*
Y33979D01*
X30675Y33769D01*
X30727D01*
X30779Y33822D01*
Y33927D01*
X30727Y33979D01*
X28327Y29882D02*
Y30197D01*
X28484D01*
X28537Y30144D01*
Y30039D01*
X28484Y29987D01*
X28327D01*
X28432D02*
X28537Y29882D01*
X28642D02*
X28747D01*
X28694D01*
Y30197D01*
X28642Y30144D01*
X28904Y29934D02*
X28957Y29882D01*
X29062D01*
X29114Y29934D01*
Y30144D01*
X29062Y30197D01*
X28957D01*
X28904Y30144D01*
Y30092D01*
X28957Y30039D01*
X29114D01*
X28524Y31240D02*
X28839D01*
Y31083D01*
X28786Y31030D01*
X28681D01*
X28629Y31083D01*
Y31240D01*
Y31135D02*
X28524Y31030D01*
Y30925D02*
Y30820D01*
Y30873D01*
X28839D01*
X28786Y30925D01*
Y30663D02*
X28839Y30610D01*
Y30505D01*
X28786Y30453D01*
X28734D01*
X28681Y30505D01*
X28629Y30453D01*
X28576D01*
X28524Y30505D01*
Y30610D01*
X28576Y30663D01*
X28629D01*
X28681Y30610D01*
X28734Y30663D01*
X28786D01*
X28681Y30610D02*
Y30505D01*
X28327Y31606D02*
Y31921D01*
X28484D01*
X28537Y31869D01*
Y31764D01*
X28484Y31711D01*
X28327D01*
X28432D02*
X28537Y31606D01*
X28642D02*
X28747D01*
X28694D01*
Y31921D01*
X28642Y31869D01*
X28904Y31921D02*
X29114D01*
Y31869D01*
X28904Y31659D01*
Y31606D01*
X28327Y24382D02*
Y24697D01*
X28484D01*
X28537Y24644D01*
Y24539D01*
X28484Y24487D01*
X28327D01*
X28432D02*
X28537Y24382D01*
X28642D02*
X28747D01*
X28694D01*
Y24697D01*
X28642Y24644D01*
X29114Y24697D02*
X29009Y24644D01*
X28904Y24539D01*
Y24434D01*
X28957Y24382D01*
X29062D01*
X29114Y24434D01*
Y24487D01*
X29062Y24539D01*
X28904D01*
X28524Y25756D02*
X28839D01*
Y25598D01*
X28786Y25546D01*
X28681D01*
X28629Y25598D01*
Y25756D01*
Y25651D02*
X28524Y25546D01*
Y25441D02*
Y25336D01*
Y25388D01*
X28839D01*
X28786Y25441D01*
X28839Y24969D02*
Y25179D01*
X28681D01*
X28734Y25074D01*
Y25021D01*
X28681Y24969D01*
X28576D01*
X28524Y25021D01*
Y25126D01*
X28576Y25179D01*
X28327Y26047D02*
Y26362D01*
X28484D01*
X28537Y26310D01*
Y26205D01*
X28484Y26152D01*
X28327D01*
X28432D02*
X28537Y26047D01*
X28642D02*
X28747D01*
X28694D01*
Y26362D01*
X28642Y26310D01*
X29062Y26047D02*
Y26362D01*
X28904Y26205D01*
X29114D01*
X28327Y27169D02*
Y27484D01*
X28484D01*
X28537Y27432D01*
Y27327D01*
X28484Y27274D01*
X28327D01*
X28432D02*
X28537Y27169D01*
X28642D02*
X28747D01*
X28694D01*
Y27484D01*
X28642Y27432D01*
X28904D02*
X28957Y27484D01*
X29062D01*
X29114Y27432D01*
Y27379D01*
X29062Y27327D01*
X29009D01*
X29062D01*
X29114Y27274D01*
Y27222D01*
X29062Y27169D01*
X28957D01*
X28904Y27222D01*
X28524Y28547D02*
X28839D01*
Y28390D01*
X28786Y28337D01*
X28681D01*
X28629Y28390D01*
Y28547D01*
Y28442D02*
X28524Y28337D01*
Y28232D02*
Y28127D01*
Y28180D01*
X28839D01*
X28786Y28232D01*
X28524Y27760D02*
Y27970D01*
X28734Y27760D01*
X28786D01*
X28839Y27812D01*
Y27917D01*
X28786Y27970D01*
X28327Y28862D02*
Y29177D01*
X28484D01*
X28537Y29125D01*
Y29020D01*
X28484Y28967D01*
X28327D01*
X28432D02*
X28537Y28862D01*
X28642D02*
X28747D01*
X28694D01*
Y29177D01*
X28642Y29125D01*
X28904Y28862D02*
X29009D01*
X28957D01*
Y29177D01*
X28904Y29125D01*
X15497Y28415D02*
Y28730D01*
X15655D01*
X15707Y28678D01*
Y28573D01*
X15655Y28520D01*
X15497D01*
X15602D02*
X15707Y28415D01*
X15812D02*
X15917D01*
X15865D01*
Y28730D01*
X15812Y28678D01*
X16075D02*
X16127Y28730D01*
X16232D01*
X16285Y28678D01*
Y28468D01*
X16232Y28415D01*
X16127D01*
X16075Y28468D01*
Y28678D01*
X12738Y25142D02*
Y25457D01*
X12895D01*
X12948Y25404D01*
Y25299D01*
X12895Y25247D01*
X12738D01*
X12843D02*
X12948Y25142D01*
X13052Y25194D02*
X13105Y25142D01*
X13210D01*
X13262Y25194D01*
Y25404D01*
X13210Y25457D01*
X13105D01*
X13052Y25404D01*
Y25352D01*
X13105Y25299D01*
X13262D01*
X15497Y27898D02*
Y28213D01*
X15655D01*
X15707Y28160D01*
Y28055D01*
X15655Y28003D01*
X15497D01*
X15602D02*
X15707Y27898D01*
X15812Y28160D02*
X15865Y28213D01*
X15970D01*
X16022Y28160D01*
Y28108D01*
X15970Y28055D01*
X16022Y28003D01*
Y27950D01*
X15970Y27898D01*
X15865D01*
X15812Y27950D01*
Y28003D01*
X15865Y28055D01*
X15812Y28108D01*
Y28160D01*
X15865Y28055D02*
X15970D01*
X15497Y28933D02*
Y29248D01*
X15655D01*
X15707Y29195D01*
Y29091D01*
X15655Y29038D01*
X15497D01*
X15602D02*
X15707Y28933D01*
X15812Y29248D02*
X16022D01*
Y29195D01*
X15812Y28986D01*
Y28933D01*
X27738Y34433D02*
Y34748D01*
X27895D01*
X27948Y34695D01*
Y34591D01*
X27895Y34538D01*
X27738D01*
X27843D02*
X27948Y34433D01*
X28262Y34748D02*
X28157Y34695D01*
X28052Y34591D01*
Y34486D01*
X28105Y34433D01*
X28210D01*
X28262Y34486D01*
Y34538D01*
X28210Y34591D01*
X28052D01*
X23110Y33014D02*
X23425D01*
Y32857D01*
X23373Y32804D01*
X23268D01*
X23215Y32857D01*
Y33014D01*
Y32909D02*
X23110Y32804D01*
Y32542D02*
X23425D01*
X23268Y32699D01*
Y32490D01*
X22441Y33014D02*
X22756D01*
Y32857D01*
X22703Y32804D01*
X22598D01*
X22546Y32857D01*
Y33014D01*
Y32909D02*
X22441Y32804D01*
Y32490D02*
Y32699D01*
X22651Y32490D01*
X22703D01*
X22756Y32542D01*
Y32647D01*
X22703Y32699D01*
X17459Y26311D02*
Y26626D01*
X17617D01*
X17669Y26573D01*
Y26469D01*
X17617Y26416D01*
X17459D01*
X17564D02*
X17669Y26311D01*
X17774D02*
X17879D01*
X17827D01*
Y26626D01*
X17774Y26573D01*
X15750Y34522D02*
Y34732D01*
X15697Y34785D01*
X15592D01*
X15540Y34732D01*
Y34522D01*
X15592Y34470D01*
X15697D01*
X15645Y34575D02*
X15750Y34470D01*
X15697D02*
X15750Y34522D01*
X15855D02*
X15907Y34470D01*
X16012D01*
X16065Y34522D01*
Y34732D01*
X16012Y34785D01*
X15907D01*
X15855Y34732D01*
Y34680D01*
X15907Y34627D01*
X16065D01*
X10660Y34522D02*
Y34732D01*
X10607Y34785D01*
X10502D01*
X10450Y34732D01*
Y34522D01*
X10502Y34470D01*
X10607D01*
X10555Y34575D02*
X10660Y34470D01*
X10607D02*
X10660Y34522D01*
X10765Y34732D02*
X10817Y34785D01*
X10922D01*
X10975Y34732D01*
Y34680D01*
X10922Y34627D01*
X10975Y34575D01*
Y34522D01*
X10922Y34470D01*
X10817D01*
X10765Y34522D01*
Y34575D01*
X10817Y34627D01*
X10765Y34680D01*
Y34732D01*
X10817Y34627D02*
X10922D01*
X5560Y34522D02*
Y34732D01*
X5507Y34785D01*
X5402D01*
X5350Y34732D01*
Y34522D01*
X5402Y34470D01*
X5507D01*
X5455Y34575D02*
X5560Y34470D01*
X5507D02*
X5560Y34522D01*
X5665Y34785D02*
X5875D01*
Y34732D01*
X5665Y34522D01*
Y34470D01*
X470Y34522D02*
Y34732D01*
X417Y34785D01*
X312D01*
X260Y34732D01*
Y34522D01*
X312Y34470D01*
X417D01*
X365Y34575D02*
X470Y34470D01*
X417D02*
X470Y34522D01*
X785Y34785D02*
X680Y34732D01*
X575Y34627D01*
Y34522D01*
X627Y34470D01*
X732D01*
X785Y34522D01*
Y34575D01*
X732Y34627D01*
X575D01*
X29442Y38395D02*
X29652D01*
X29705Y38447D01*
Y38552D01*
X29652Y38605D01*
X29442D01*
X29390Y38552D01*
Y38447D01*
X29495Y38500D02*
X29390Y38395D01*
Y38447D02*
X29442Y38395D01*
X29390Y38080D02*
Y38290D01*
X29600Y38080D01*
X29652D01*
X29705Y38133D01*
Y38238D01*
X29652Y38290D01*
X31634Y32457D02*
X31739D01*
X31686D01*
Y32142D01*
X31634D01*
X31739D01*
X32106Y32404D02*
X32054Y32457D01*
X31949D01*
X31896Y32404D01*
Y32194D01*
X31949Y32142D01*
X32054D01*
X32106Y32194D01*
X32369Y32142D02*
Y32457D01*
X32211Y32299D01*
X32421D01*
X31705Y26913D02*
X31810D01*
X31757D01*
Y26598D01*
X31705D01*
X31810D01*
X32177Y26861D02*
X32125Y26913D01*
X32020D01*
X31967Y26861D01*
Y26651D01*
X32020Y26598D01*
X32125D01*
X32177Y26651D01*
X32282Y26861D02*
X32335Y26913D01*
X32440D01*
X32492Y26861D01*
Y26808D01*
X32440Y26756D01*
X32387D01*
X32440D01*
X32492Y26703D01*
Y26651D01*
X32440Y26598D01*
X32335D01*
X32282Y26651D01*
X31646Y29673D02*
X31751D01*
X31698D01*
Y29358D01*
X31646D01*
X31751D01*
X32118Y29621D02*
X32066Y29673D01*
X31961D01*
X31908Y29621D01*
Y29411D01*
X31961Y29358D01*
X32066D01*
X32118Y29411D01*
X32433Y29358D02*
X32223D01*
X32433Y29568D01*
Y29621D01*
X32380Y29673D01*
X32276D01*
X32223Y29621D01*
X12600Y26429D02*
X12705D01*
X12652D01*
Y26114D01*
X12600D01*
X12705D01*
X13072Y26377D02*
X13020Y26429D01*
X12915D01*
X12862Y26377D01*
Y26167D01*
X12915Y26114D01*
X13020D01*
X13072Y26167D01*
X13177Y26114D02*
X13282D01*
X13230D01*
Y26429D01*
X13177Y26377D01*
X18343Y25307D02*
X18133D01*
Y25150D01*
X18238D01*
X18133D01*
Y24992D01*
X18448Y25307D02*
Y24992D01*
X18605D01*
X18657Y25045D01*
Y25097D01*
X18605Y25150D01*
X18448D01*
X18605D01*
X18657Y25202D01*
Y25255D01*
X18605Y25307D01*
X18448D01*
X18762Y24992D02*
X18867D01*
X18815D01*
Y25307D01*
X18762Y25255D01*
X15564Y35342D02*
Y35028D01*
X15722D01*
X15774Y35080D01*
Y35290D01*
X15722Y35342D01*
X15564D01*
X15879Y35080D02*
X15932Y35028D01*
X16037D01*
X16089Y35080D01*
Y35290D01*
X16037Y35342D01*
X15932D01*
X15879Y35290D01*
Y35238D01*
X15932Y35185D01*
X16089D01*
X10458Y35370D02*
Y35055D01*
X10616D01*
X10668Y35108D01*
Y35318D01*
X10616Y35370D01*
X10458D01*
X10773Y35318D02*
X10825Y35370D01*
X10930D01*
X10983Y35318D01*
Y35265D01*
X10930Y35213D01*
X10983Y35160D01*
Y35108D01*
X10930Y35055D01*
X10825D01*
X10773Y35108D01*
Y35160D01*
X10825Y35213D01*
X10773Y35265D01*
Y35318D01*
X10825Y35213D02*
X10930D01*
X5344Y35335D02*
Y35020D01*
X5501D01*
X5554Y35072D01*
Y35282D01*
X5501Y35335D01*
X5344D01*
X5659D02*
X5869D01*
Y35282D01*
X5659Y35072D01*
Y35020D01*
X308Y35398D02*
Y35083D01*
X466D01*
X518Y35135D01*
Y35345D01*
X466Y35398D01*
X308D01*
X833D02*
X728Y35345D01*
X623Y35240D01*
Y35135D01*
X676Y35083D01*
X781D01*
X833Y35135D01*
Y35188D01*
X781Y35240D01*
X623D01*
X29332Y31047D02*
Y30732D01*
X29490D01*
X29542Y30785D01*
Y30995D01*
X29490Y31047D01*
X29332D01*
X29804Y30732D02*
Y31047D01*
X29647Y30890D01*
X29857D01*
X29285Y25496D02*
Y25181D01*
X29442D01*
X29495Y25234D01*
Y25444D01*
X29442Y25496D01*
X29285D01*
X29600Y25444D02*
X29652Y25496D01*
X29757D01*
X29810Y25444D01*
Y25391D01*
X29757Y25339D01*
X29705D01*
X29757D01*
X29810Y25286D01*
Y25234D01*
X29757Y25181D01*
X29652D01*
X29600Y25234D01*
X29379Y28315D02*
Y28000D01*
X29537D01*
X29589Y28053D01*
Y28262D01*
X29537Y28315D01*
X29379D01*
X29904Y28000D02*
X29694D01*
X29904Y28210D01*
Y28262D01*
X29852Y28315D01*
X29747D01*
X29694Y28262D01*
X4853Y29636D02*
X4801Y29689D01*
X4696D01*
X4643Y29636D01*
Y29427D01*
X4696Y29374D01*
X4801D01*
X4853Y29427D01*
X5168Y29374D02*
X4958D01*
X5168Y29584D01*
Y29636D01*
X5115Y29689D01*
X5011D01*
X4958Y29636D01*
X5483Y29689D02*
X5273D01*
Y29532D01*
X5378Y29584D01*
X5430D01*
X5483Y29532D01*
Y29427D01*
X5430Y29374D01*
X5325D01*
X5273Y29427D01*
X8003Y29680D02*
X7950Y29732D01*
X7845D01*
X7793Y29680D01*
Y29470D01*
X7845Y29417D01*
X7950D01*
X8003Y29470D01*
X8318Y29417D02*
X8108D01*
X8318Y29627D01*
Y29680D01*
X8265Y29732D01*
X8160D01*
X8108Y29680D01*
X8580Y29417D02*
Y29732D01*
X8422Y29575D01*
X8632D01*
X34395Y32392D02*
X34343Y32445D01*
X34238D01*
X34185Y32392D01*
Y32182D01*
X34238Y32130D01*
X34343D01*
X34395Y32182D01*
X34500Y32130D02*
X34605D01*
X34553D01*
Y32445D01*
X34500Y32392D01*
X34972Y32445D02*
X34867Y32392D01*
X34762Y32287D01*
Y32182D01*
X34815Y32130D01*
X34920D01*
X34972Y32182D01*
Y32235D01*
X34920Y32287D01*
X34762D01*
X34399Y26857D02*
X34347Y26909D01*
X34242D01*
X34189Y26857D01*
Y26647D01*
X34242Y26595D01*
X34347D01*
X34399Y26647D01*
X34504Y26595D02*
X34609D01*
X34556D01*
Y26909D01*
X34504Y26857D01*
X34976Y26909D02*
X34766D01*
Y26752D01*
X34871Y26804D01*
X34924D01*
X34976Y26752D01*
Y26647D01*
X34924Y26595D01*
X34819D01*
X34766Y26647D01*
X34430Y29601D02*
X34378Y29653D01*
X34273D01*
X34221Y29601D01*
Y29391D01*
X34273Y29339D01*
X34378D01*
X34430Y29391D01*
X34535Y29339D02*
X34640D01*
X34588D01*
Y29653D01*
X34535Y29601D01*
X34955Y29339D02*
Y29653D01*
X34798Y29496D01*
X35008D01*
X12747Y27414D02*
X12695Y27466D01*
X12590D01*
X12538Y27414D01*
Y27204D01*
X12590Y27152D01*
X12695D01*
X12747Y27204D01*
X12852Y27152D02*
X12957D01*
X12905D01*
Y27466D01*
X12852Y27414D01*
X13115D02*
X13167Y27466D01*
X13272D01*
X13325Y27414D01*
Y27362D01*
X13272Y27309D01*
X13220D01*
X13272D01*
X13325Y27257D01*
Y27204D01*
X13272Y27152D01*
X13167D01*
X13115Y27204D01*
X26702Y34684D02*
X26650Y34736D01*
X26545D01*
X26492Y34684D01*
Y34474D01*
X26545Y34421D01*
X26650D01*
X26702Y34474D01*
X26807Y34421D02*
X26912D01*
X26860D01*
Y34736D01*
X26807Y34684D01*
X27279Y34421D02*
X27069D01*
X27279Y34631D01*
Y34684D01*
X27227Y34736D01*
X27122D01*
X27069Y34684D01*
X26930Y30222D02*
X26877Y30275D01*
X26772D01*
X26720Y30222D01*
Y30012D01*
X26772Y29960D01*
X26877D01*
X26930Y30012D01*
X27035Y29960D02*
X27140D01*
X27087D01*
Y30275D01*
X27035Y30222D01*
X27297D02*
X27350Y30275D01*
X27455D01*
X27507Y30222D01*
Y30012D01*
X27455Y29960D01*
X27350D01*
X27297Y30012D01*
Y30222D01*
X27388Y26325D02*
X27441Y26272D01*
X27545D01*
X27598Y26325D01*
Y26535D01*
X27545Y26587D01*
X27441D01*
X27388Y26535D01*
X27283Y26325D02*
X27231Y26272D01*
X27126D01*
X27073Y26325D01*
Y26377D01*
X27126Y26430D01*
X27073Y26482D01*
Y26535D01*
X27126Y26587D01*
X27231D01*
X27283Y26535D01*
Y26482D01*
X27231Y26430D01*
X27283Y26377D01*
Y26325D01*
X27231Y26430D02*
X27126D01*
X21148Y25066D02*
X21096Y25118D01*
X20991D01*
X20938Y25066D01*
Y24856D01*
X20991Y24803D01*
X21096D01*
X21148Y24856D01*
X21253Y25118D02*
X21463D01*
Y25066D01*
X21253Y24856D01*
Y24803D01*
X21625Y25564D02*
X21677Y25617D01*
Y25722D01*
X21625Y25774D01*
X21415D01*
X21362Y25722D01*
Y25617D01*
X21415Y25564D01*
X21677Y25249D02*
X21625Y25354D01*
X21520Y25459D01*
X21415D01*
X21362Y25407D01*
Y25302D01*
X21415Y25249D01*
X21467D01*
X21520Y25302D01*
Y25459D01*
X21168Y25560D02*
X21220Y25613D01*
Y25718D01*
X21168Y25770D01*
X20958D01*
X20906Y25718D01*
Y25613D01*
X20958Y25560D01*
X21220Y25245D02*
Y25455D01*
X21063D01*
X21115Y25350D01*
Y25298D01*
X21063Y25245D01*
X20958D01*
X20906Y25298D01*
Y25403D01*
X20958Y25455D01*
X17487Y29184D02*
X17434Y29236D01*
X17329D01*
X17277Y29184D01*
Y28974D01*
X17329Y28921D01*
X17434D01*
X17487Y28974D01*
X17749Y28921D02*
Y29236D01*
X17592Y29079D01*
X17802D01*
X17487Y30342D02*
X17434Y30394D01*
X17329D01*
X17277Y30342D01*
Y30132D01*
X17329Y30079D01*
X17434D01*
X17487Y30132D01*
X17592Y30342D02*
X17644Y30394D01*
X17749D01*
X17802Y30342D01*
Y30289D01*
X17749Y30237D01*
X17697D01*
X17749D01*
X17802Y30184D01*
Y30132D01*
X17749Y30079D01*
X17644D01*
X17592Y30132D01*
X17487Y27259D02*
X17434Y27312D01*
X17329D01*
X17277Y27259D01*
Y27049D01*
X17329Y26997D01*
X17434D01*
X17487Y27049D01*
X17802Y26997D02*
X17592D01*
X17802Y27207D01*
Y27259D01*
X17749Y27312D01*
X17644D01*
X17592Y27259D01*
X17487Y28432D02*
X17434Y28484D01*
X17329D01*
X17277Y28432D01*
Y28222D01*
X17329Y28169D01*
X17434D01*
X17487Y28222D01*
X17592Y28169D02*
X17697D01*
X17644D01*
Y28484D01*
X17592Y28432D01*
D18*
X35876Y41126D02*
X35471D01*
X35673Y41328D02*
Y40924D01*
D19*
X38406Y45173D02*
D03*
D20*
X17298Y34563D02*
D03*
Y35508D02*
D03*
X12185Y34563D02*
D03*
Y35508D02*
D03*
X7072Y34563D02*
D03*
Y35508D02*
D03*
X1960Y34563D02*
D03*
Y35508D02*
D03*
D21*
X17667Y35045D02*
D03*
X12555Y35045D02*
D03*
X7442Y35045D02*
D03*
X2329Y35045D02*
D03*
M02*
