M48
;Layer_Color=9474304
;FILE_FORMAT=2:4
INCH,TZ
;TYPE=PLATED
T1F00S00C0.0118
T2F00S00C0.0236
T3F00S00C0.0433
T4F00S00C0.0472
T5F00S00C0.0551
%
T01
X35050Y24372
X35450
X35900
X35500Y25372
X35250
Y26972
X35600
X34900
X35250Y28172
X35500
Y29922
X35150
X34800
X35150Y30872
X35450
X29250Y30572
X28950
X28900Y29722
Y29422
Y29122
Y28872
X29181Y27575
X29184Y27285
X28900Y26722
Y26422
Y26122
Y25822
X28100Y25722
X28050Y26572
Y26872
Y27172
X27994Y27590
X27693Y27336
X27395Y27051
X27091Y26785
X27068Y26062
X26829Y26067
X26400Y25422
X26150
X27511Y25401
X27700Y26572
X28950Y24922
X29200Y24722
X29453Y24949
X29050Y23922
X28750
X28450
X24950Y26772
Y27172
Y27522
X25354Y28993
X25673Y30132
X26823Y29827
X27150Y30372
X27450
X27750
X28050
X27186Y29019
X26925Y29021
X23724Y28973
X23426Y29215
X23036Y29452
X20719Y30049
X20707Y30316
X20993Y31131
X20200Y31172
X19800
X19400
X19050
X18700
X16850Y31072
Y30722
Y30422
X17433Y30236
X17673
X17675Y29994
X17429
X17544Y29761
X17700Y28372
Y28072
Y27822
X18590Y27500
X18588Y27220
X17650Y26172
X16850
Y26472
Y26822
X15701Y26201
X15701Y27756
X20859Y27583
X21062Y27787
X20380Y28651
X20361Y28893
X20800Y25472
X21100
X21500
X21900
X19287Y25059
X24750Y31022
X15447Y29175
X15115Y29497
X14820Y28798
X14200Y28622
Y28272
Y27922
X14738Y27780
X15022Y26222
X14950Y25522
X15250
X12685Y27335
X12693Y27693
Y28039
X9859Y28355
X9520Y28343
X9151Y28920
X8906Y28916
X7600Y28122
Y27772
Y27372
X4800
Y27772
Y28122
X5459Y29256
X5706Y29252
X7350Y31122
X7650
X8000
X3941Y31118
X3616
X3290
X2954Y27638
X2724Y27528
X2729Y27771
X2350Y32222
Y32572
X650Y31338
X5748Y31339
X6350Y32522
Y32822
X5736Y34846
Y35146
Y35446
X3992Y35457
Y35157
Y34858
X7630Y34835
Y35134
Y35434
X9299
Y35134
Y34835
X10382Y34843
Y35142
Y35442
X12744Y35481
Y35181
Y34882
X14331Y34878
Y35178
Y35477
X15476Y35465
Y35166
Y34866
X11400Y32672
Y32372
X10847Y31338
X15947Y31335
X16500Y32272
Y32522
X20991Y31380
X22579Y32283
X22550Y33972
Y34222
Y34472
Y34722
X22850
Y34472
Y34222
Y33972
X20126Y34898
Y35197
Y35497
X20980Y37130
Y37546
Y37962
Y38378
X22232Y37815
X23394Y38311
X25642
X27787
X28050Y37472
Y37172
X28400
Y37472
X28700
Y37172
X30587Y37146
X30606Y36780
X30594Y36394
X30618Y37531
Y37988
X30594Y38433
X30606Y38941
X30323Y42031
X30071Y42035
X29815
X28067Y42102
X27767
X27468
X26087Y42157
X25787
X25487
X24463Y42120
X24163
X23863
X20968Y41303
X20972Y40913
X21000Y40520
X27055Y34933
X27811Y34953
X28350Y34622
Y34322
Y34022
X28700
Y34322
Y34622
X29550Y34572
X29850
Y34872
X29550
Y35372
X29850
X29800Y35672
X29550
Y35972
X29800
X29131Y32781
Y32543
Y32295
X25591Y32010
Y31766
X25328
Y32010
X25064
Y31766
X25000Y31372
X25300
X25600
X24700
X30941Y43862
Y44392
Y44933
X31417
Y44449
X31913Y44409
Y44933
Y43862
X31417
X34051Y40988
Y40639
Y40290
Y39941
X35559Y40114
Y39760
Y39406
Y40469
X39020Y39600
X39028Y39306
X39025Y39015
X37795Y37268
X37819Y36866
X37827Y36480
X37839Y36126
X37835Y35724
X37394Y33672
X36970
X36546
X36122
X35698
X35274
X34850
X32553Y36242
X31717Y38209
X38134Y45508
X38461Y45500
X38776Y45484
X38984Y45854
X38980Y46213
X39016Y46532
T02
X1146Y35035
X6295
X11445
X16508
T03
X24575Y24217
X25575
X26575
X27575
T04
X37787Y24677
Y26055
X37787Y27453
Y28831
X37783Y30252
X10874Y25142
X9497
X8040
X6662
X5201
X3823
X2355
X977
X1087Y45720
X2465
X3843
X6214
X7592
X8970
X11341
X12719
X14097
X16468
X17846
X19224
X22236Y45736
X23614
X24992
X26378
X27756
X31500Y45693
X32878
X37783Y31630
T05
X961Y36492
X3961
X6091
X9091
X11220
X14220
Y40492
Y43492
X11220Y42492
X9091Y43492
Y40492
X6091Y42492
X3961Y43492
Y40492
X961Y42492
X16350
X19350Y43492
Y40492
Y36492
X16350
M30
