G04*
G04 #@! TF.GenerationSoftware,Altium Limited,Altium Designer,21.2.1 (34)*
G04*
G04 Layer_Color=32768*
%FSLAX24Y24*%
%MOIN*%
G70*
G04*
G04 #@! TF.SameCoordinates,093661B1-31BE-42CD-8BD9-57EC7F8E6B73*
G04*
G04*
G04 #@! TF.FilePolarity,Positive*
G04*
G01*
G75*
%ADD13C,0.0039*%
%ADD18C,0.0059*%
%ADD102C,0.0028*%
D13*
X38209Y45089D02*
X38602D01*
Y45286D01*
X38537Y45352D01*
X38274D01*
X38209Y45286D01*
Y45089D01*
Y45745D02*
Y45483D01*
X38406D01*
X38340Y45614D01*
Y45680D01*
X38406Y45745D01*
X38537D01*
X38602Y45680D01*
Y45549D01*
X38537Y45483D01*
X27642Y36357D02*
X27707Y36291D01*
X27838D01*
X27904Y36357D01*
Y36423D01*
X27838Y36488D01*
X27707D01*
X27642Y36554D01*
Y36619D01*
X27707Y36685D01*
X27838D01*
X27904Y36619D01*
X27510Y36291D02*
Y36685D01*
X27379Y36554D01*
X27248Y36685D01*
Y36291D01*
X27117Y36685D02*
X26986D01*
X27051D01*
Y36291D01*
X27117Y36357D01*
D18*
X32287Y45437D02*
X32484D01*
X32386D01*
Y45929D01*
X32484Y46027D01*
X32583D01*
X32681Y45929D01*
X31795Y46027D02*
Y45437D01*
X32091Y45732D01*
X31697D01*
X7936Y45465D02*
X8133D01*
X8035D01*
Y45957D01*
X8133Y46055D01*
X8231D01*
X8330Y45957D01*
X7739Y46055D02*
X7543D01*
X7641D01*
Y45465D01*
X7739Y45563D01*
X6952Y46055D02*
Y45465D01*
X7247Y45760D01*
X6854D01*
X2809Y45465D02*
X3006D01*
X2907D01*
Y45957D01*
X3006Y46055D01*
X3104D01*
X3203Y45957D01*
X2612Y46055D02*
X2415D01*
X2514D01*
Y45465D01*
X2612Y45563D01*
X1727Y46055D02*
X2120D01*
X1727Y45661D01*
Y45563D01*
X1825Y45465D01*
X2022D01*
X2120Y45563D01*
X12965Y45465D02*
X13162D01*
X13064D01*
Y45957D01*
X13162Y46055D01*
X13260D01*
X13359Y45957D01*
X12768Y46055D02*
X12572D01*
X12670D01*
Y45465D01*
X12768Y45563D01*
X12276Y46055D02*
X12080D01*
X12178D01*
Y45465D01*
X12276Y45563D01*
X18191Y45465D02*
X18388D01*
X18289D01*
Y45957D01*
X18388Y46055D01*
X18486D01*
X18584Y45957D01*
X17994Y46055D02*
X17797D01*
X17896D01*
Y45465D01*
X17994Y45563D01*
X17502D02*
X17404Y45465D01*
X17207D01*
X17109Y45563D01*
Y45661D01*
X17207Y45760D01*
X17305D01*
X17207D01*
X17109Y45858D01*
Y45957D01*
X17207Y46055D01*
X17404D01*
X17502Y45957D01*
X27165Y45480D02*
X27362D01*
X27264D01*
Y45972D01*
X27362Y46071D01*
X27460D01*
X27559Y45972D01*
X26969D02*
X26870Y46071D01*
X26673D01*
X26575Y45972D01*
Y45579D01*
X26673Y45480D01*
X26870D01*
X26969Y45579D01*
Y45677D01*
X26870Y45776D01*
X26575D01*
X23959Y45480D02*
X24155D01*
X24057D01*
Y45972D01*
X24155Y46071D01*
X24254D01*
X24352Y45972D01*
X23762Y46071D02*
X23565D01*
X23663D01*
Y45480D01*
X23762Y45579D01*
X23270D02*
X23171Y45480D01*
X22975D01*
X22876Y45579D01*
Y45972D01*
X22975Y46071D01*
X23171D01*
X23270Y45972D01*
Y45579D01*
X35870Y43291D02*
X35968Y43390D01*
Y43586D01*
X35870Y43685D01*
X35476D01*
X35378Y43586D01*
Y43390D01*
X35476Y43291D01*
X35378Y42701D02*
Y43094D01*
X35772Y42701D01*
X35870D01*
X35968Y42799D01*
Y42996D01*
X35870Y43094D01*
Y42504D02*
X35968Y42406D01*
Y42209D01*
X35870Y42110D01*
X35772D01*
X35673Y42209D01*
Y42307D01*
Y42209D01*
X35575Y42110D01*
X35476D01*
X35378Y42209D01*
Y42406D01*
X35476Y42504D01*
X37532Y25268D02*
Y25071D01*
Y25169D01*
X38024D01*
X38122Y25071D01*
Y24973D01*
X38024Y24874D01*
X38122Y25858D02*
Y25465D01*
X37728Y25858D01*
X37630D01*
X37532Y25760D01*
Y25563D01*
X37630Y25465D01*
X37532Y28142D02*
Y27945D01*
Y28043D01*
X38024D01*
X38122Y27945D01*
Y27847D01*
X38024Y27748D01*
X38122Y28339D02*
Y28535D01*
Y28437D01*
X37532D01*
X37630Y28339D01*
X37528Y30843D02*
Y30646D01*
Y30744D01*
X38020D01*
X38118Y30646D01*
Y30547D01*
X38020Y30449D01*
X37626Y31039D02*
X37528Y31138D01*
Y31335D01*
X37626Y31433D01*
X37724D01*
X37823Y31335D01*
Y31236D01*
Y31335D01*
X37921Y31433D01*
X38020D01*
X38118Y31335D01*
Y31138D01*
X38020Y31039D01*
X10087Y25398D02*
X9890D01*
X9989D01*
Y24906D01*
X9890Y24807D01*
X9792D01*
X9694Y24906D01*
X10677Y25398D02*
X10481Y25299D01*
X10284Y25102D01*
Y24906D01*
X10382Y24807D01*
X10579D01*
X10677Y24906D01*
Y25004D01*
X10579Y25102D01*
X10284D01*
X7252Y25398D02*
X7056D01*
X7154D01*
Y24906D01*
X7056Y24807D01*
X6957D01*
X6859Y24906D01*
X7843Y25398D02*
X7449D01*
Y25102D01*
X7646Y25201D01*
X7744D01*
X7843Y25102D01*
Y24906D01*
X7744Y24807D01*
X7548D01*
X7449Y24906D01*
X4414Y25398D02*
X4217D01*
X4315D01*
Y24906D01*
X4217Y24807D01*
X4119D01*
X4020Y24906D01*
X4611Y25299D02*
X4709Y25398D01*
X4906D01*
X5004Y25299D01*
Y25201D01*
X4906Y25102D01*
X5004Y25004D01*
Y24906D01*
X4906Y24807D01*
X4709D01*
X4611Y24906D01*
Y25004D01*
X4709Y25102D01*
X4611Y25201D01*
Y25299D01*
X4709Y25102D02*
X4906D01*
X25681Y23921D02*
Y24512D01*
X25976D01*
X26075Y24413D01*
Y24217D01*
X25976Y24118D01*
X25681D01*
X26272Y23921D02*
X26468D01*
X26370D01*
Y24512D01*
X26272Y24413D01*
X1567Y25398D02*
X1371D01*
X1469D01*
Y24906D01*
X1371Y24807D01*
X1272D01*
X1174Y24906D01*
X1764Y25398D02*
X2158D01*
Y25299D01*
X1764Y24906D01*
Y24807D01*
D102*
X32911Y42606D02*
Y42331D01*
X33094D01*
X33186D02*
X33278D01*
X33232D01*
Y42606D01*
X33186Y42560D01*
M02*
